M48
;Layer_Color=9474304
;FILE_FORMAT=2:5
INCH,LZ
;TYPE=PLATED
T1F00S00C0.01575
T2F00S00C0.01968
T3F00S00C0.03937
T4F00S00C0.04724
T5F00S00C0.05512
T6F00S00C0.06181
T7F00S00C0.20472
%
T01
X0019685Y0035433
X0023622Y0031496
X0027559Y0027559
X0031496Y0023622
X0035433Y0019685
X003937Y0015748
X0043307Y0011811
X0047244Y0007874
X005315Y0003937
X0059055
X0064961
X0070866
X0076772
X0082677
X0088583
X0094488
X0100394
X0106299
X0112205
X011811
X0124016
X0129921
X0135827
X0141732
X0147638
X0153543
X0159449
X0165354
X017126
X0177165
X0183071
X0188976
X0194882
X0200787
X0206693
X0212598
X0209355Y0042913
X0212598Y0057087
X0167323Y0045276
Y0033465
X0149606Y0031496
Y0017717
X0163386Y0015748
X0108268Y0023622
Y003937
X0122047Y0045276
X0094488Y005315
X0088583
X0082677
X007874Y0049213
X0218504Y0057087
X022441
X0246063Y0051181
X0253937Y0043307
X0261811Y0035433
X0269685Y0027559
X0271654Y0003937
X0265748
X0259842
X0253937
X0248031
X0242126
X0236221
X0230315
X022441
X0218504
X0230315Y0027559
X0277559Y0003937
X0283465
X028937
X0295276
X0301181
X0307087
X0312992
X0318898
X0324803
X0330709
X0336614
X034252
X0348425
X0354331
X0360236
X0366142
X0324803Y0045276
X0316929
X0314961Y0057087
X0389764Y0055118
Y0049213
X0393701Y0045276
X0397638Y0041339
X0401575Y0037402
X0403543Y0031496
Y0025591
X0399606Y0021654
X0395669Y0017717
X0391732Y001378
X0387795Y0009843
X0383858Y0005906
X0377953Y0003937
X0372047
Y0062992
X0377953
X038189Y0066929
X0389764
Y0061024
X0385827Y0070866
X038189Y0074803
X0377953Y007874
Y0084646
Y0090551
Y0096457
Y0102362
Y0108268
Y0114173
Y0120079
Y0125984
Y013189
Y0137795
X0372047
X0429134
Y009252
Y0086614
Y0080709
X0366142Y0062992
X0360236
X0350394Y0068898
X0344488
X0340551Y0072835
X0336614Y0076772
X0332677Y0080709
X032874Y0084646
Y0098425
X0322835
X0316929
X0332677Y0102362
X0336614Y0108268
Y0114173
Y0120079
Y0125984
Y013189
Y0137795
X0330709
X0324803
X0318898
X0312992
X0307087
X0301181
X0295276
X028937
X0283465
X0277559
X0271654
X0265748
X0259842
X0253937
X0248031
X0242126
X0236221
X0230315
X022441
X0218504
X027559Y0114173
X0298425Y0112205
X0299213Y0088583
X0291339
X0281496
X0287402Y0072835
X0299213
X030315Y0064961
X032874Y0062992
X027559Y0064961
X034252Y0137795
X0348425
X0354331
X0360236
X0366142
X0212598
X0206693
X0200787
X0194882
X0188976
X0183071
X0177165
X017126
X0165354
X0175197Y0122047
X0177165Y0101378
X0183071Y0088583
X015748Y0090551
Y0084646
Y0096457
X0167323Y0068898
X0175197
X0167323Y0061024
X0151575Y0059055
X0192913Y0062992
X0198819
X0125984Y0080709
X0120079
X0074803Y0072835
X0068898
X0062992
X0057087
X0051181
X0045276
X003937
X0003937Y007874
Y0084646
Y0090551
Y0096457
Y0102362
Y0108268
Y0114173
Y0120079
Y0125984
Y013189
Y0137795
T02
X0249015Y0091535
X0251969Y0096457
X0259843Y0097967
X0266732Y0103347
X027559Y0108268
X0275787Y0090847
X0279528Y0081693
X0280512Y0076772
X0241811Y0109783
X0242523Y0115157
X0346457Y0061024
X0354331
X0186024
X0176181
X0188976Y0075787
X0195669Y0086023
X0059842Y0120472
X0051181Y0115748
X0047244Y0087008
X0055118Y0082677
T03
X0241811Y0017717
X0251811
X0261811
X0265748Y0127953
X0255748
X0245748
X0235748
X0225748
X0215748
X0295945Y0127953
X0305945
X0315945
X0134646Y0106595
X0126654
X0118661
X0110669
X0114646Y0096595
X0122638
X013063
X0106653
X0059842Y0106595
X005185
X0043858
X0035866
X0039843Y0096595
X0047835
X0055827
X003185
T04
X019252Y0011024
X0206299
Y0026024
X019252
X0220079
Y0011024
T05
X0059055Y0028642
Y0048642
X0291339Y0021811
X0311339
X0346457
X0366457
T06
X0077874Y0109783
X0088661
X0152677
X0013858
T07
X0413386Y0059055
X0019685
M30
