G04*
G04 #@! TF.GenerationSoftware,Altium Limited,Altium Designer,20.0.11 (256)*
G04*
G04 Layer_Color=32896*
%FSLAX25Y25*%
%MOIN*%
G70*
G01*
G75*
%ADD12C,0.01000*%
%ADD13C,0.00787*%
%ADD15C,0.00591*%
D12*
X314961Y43307D02*
X312961D01*
X313961D01*
Y49305D01*
X314961Y48305D01*
X309962Y43307D02*
X307963D01*
X308963D01*
Y49305D01*
X309962Y48305D01*
X304964Y43307D02*
X300965Y47306D01*
X298966Y43307D02*
X296967D01*
X297966D01*
Y49305D01*
X298966Y48305D01*
X293967Y43307D02*
X289969Y47306D01*
X283971Y43307D02*
X287969D01*
X283971Y47306D01*
Y48305D01*
X284970Y49305D01*
X286970D01*
X287969Y48305D01*
X281971D02*
X280972Y49305D01*
X278972D01*
X277973Y48305D01*
Y44307D01*
X278972Y43307D01*
X280972D01*
X281971Y44307D01*
Y48305D01*
X271974Y43307D02*
X275973D01*
X271974Y47306D01*
Y48305D01*
X272974Y49305D01*
X274974D01*
X275973Y48305D01*
X269975D02*
X268975Y49305D01*
X266976D01*
X265977Y48305D01*
Y44307D01*
X266976Y43307D01*
X268975D01*
X269975Y44307D01*
Y48305D01*
X310962Y64053D02*
X311962Y65053D01*
X313961D01*
X314961Y64053D01*
Y63054D01*
X313961Y62054D01*
X311962D01*
X310962Y61054D01*
Y60055D01*
X311962Y59055D01*
X313961D01*
X314961Y60055D01*
X308963Y65053D02*
Y59055D01*
X304964D01*
X298966Y64053D02*
X299966Y65053D01*
X301965D01*
X302964Y64053D01*
Y63054D01*
X301965Y62054D01*
X299966D01*
X298966Y61054D01*
Y60055D01*
X299966Y59055D01*
X301965D01*
X302964Y60055D01*
X289969Y64053D02*
Y63054D01*
X290968D01*
X288969D01*
X289969D01*
Y60055D01*
X288969Y59055D01*
X284970D02*
X282971D01*
X281971Y60055D01*
Y62054D01*
X282971Y63054D01*
X284970D01*
X285970Y62054D01*
Y60055D01*
X284970Y59055D01*
X269975Y64053D02*
X270975Y65053D01*
X272974D01*
X273974Y64053D01*
Y60055D01*
X272974Y59055D01*
X270975D01*
X269975Y60055D01*
X267976Y59055D02*
Y63054D01*
X265977Y65053D01*
X263977Y63054D01*
Y59055D01*
Y62054D01*
X267976D01*
X261978Y59055D02*
Y65053D01*
X257979Y59055D01*
Y65053D01*
X249982Y59055D02*
X247982D01*
X248982D01*
Y63054D01*
X249982D01*
X244983Y59055D02*
Y63054D01*
X241984D01*
X240985Y62054D01*
Y59055D01*
X237985Y64053D02*
Y63054D01*
X238985D01*
X236986D01*
X237985D01*
Y60055D01*
X236986Y59055D01*
X230988D02*
X232987D01*
X233987Y60055D01*
Y62054D01*
X232987Y63054D01*
X230988D01*
X229988Y62054D01*
Y61054D01*
X233987D01*
X227989Y63054D02*
Y59055D01*
Y61054D01*
X226989Y62054D01*
X225989Y63054D01*
X224990D01*
X220991Y59055D02*
Y64053D01*
Y62054D01*
X221991D01*
X219991D01*
X220991D01*
Y64053D01*
X219991Y65053D01*
X215993Y63054D02*
X213993D01*
X212994Y62054D01*
Y59055D01*
X215993D01*
X216992Y60055D01*
X215993Y61054D01*
X212994D01*
X206996Y63054D02*
X209995D01*
X210994Y62054D01*
Y60055D01*
X209995Y59055D01*
X206996D01*
X201997D02*
X203996D01*
X204996Y60055D01*
Y62054D01*
X203996Y63054D01*
X201997D01*
X200997Y62054D01*
Y61054D01*
X204996D01*
X314961Y71927D02*
X313961Y72927D01*
X311962D01*
X310962Y71927D01*
Y67929D01*
X311962Y66929D01*
X313961D01*
X314961Y67929D01*
Y71927D01*
X308963D02*
X307963Y72927D01*
X305963D01*
X304964Y71927D01*
Y67929D01*
X305963Y66929D01*
X307963D01*
X308963Y67929D01*
Y71927D01*
X298966Y66929D02*
X302964D01*
X298966Y70928D01*
Y71927D01*
X299966Y72927D01*
X301965D01*
X302964Y71927D01*
X296966Y69928D02*
X292968D01*
X290968Y72927D02*
Y66929D01*
Y69928D01*
X286970D01*
Y72927D01*
Y66929D01*
X284970Y69928D02*
X280972D01*
X278972Y71927D02*
X277973Y72927D01*
X275973D01*
X274974Y71927D01*
Y67929D01*
X275973Y66929D01*
X277973D01*
X278972Y67929D01*
Y71927D01*
X272974Y66929D02*
X270975D01*
X271974D01*
Y72927D01*
X272974Y71927D01*
X314961Y57179D02*
Y53180D01*
X312961Y51181D01*
X310962Y53180D01*
Y57179D01*
X305963Y51181D02*
X307963D01*
X308963Y52181D01*
Y54180D01*
X307963Y55180D01*
X305963D01*
X304964Y54180D01*
Y53180D01*
X308963D01*
X302964Y55180D02*
Y51181D01*
Y53180D01*
X301965Y54180D01*
X300965Y55180D01*
X299966D01*
X296966Y51181D02*
X293967D01*
X292968Y52181D01*
X293967Y53180D01*
X295967D01*
X296966Y54180D01*
X295967Y55180D01*
X292968D01*
X290968Y51181D02*
X288969D01*
X289969D01*
Y55180D01*
X290968D01*
X284970Y51181D02*
X282971D01*
X281971Y52181D01*
Y54180D01*
X282971Y55180D01*
X284970D01*
X285970Y54180D01*
Y52181D01*
X284970Y51181D01*
X279972D02*
Y55180D01*
X276973D01*
X275973Y54180D01*
Y51181D01*
X273974Y55180D02*
X272974D01*
Y54180D01*
X273974D01*
Y55180D01*
Y52181D02*
X272974D01*
Y51181D01*
X273974D01*
Y52181D01*
X262977Y57179D02*
Y53180D01*
X260978Y51181D01*
X258979Y53180D01*
Y57179D01*
X256979Y51181D02*
X254980D01*
X255980D01*
Y57179D01*
X256979Y56179D01*
X251981Y51181D02*
Y52181D01*
X250981D01*
Y51181D01*
X251981D01*
X246983Y56179D02*
X245983Y57179D01*
X243984D01*
X242984Y56179D01*
Y52181D01*
X243984Y51181D01*
X245983D01*
X246983Y52181D01*
Y56179D01*
X240985D02*
X239985Y57179D01*
X237985D01*
X236986Y56179D01*
Y52181D01*
X237985Y51181D01*
X239985D01*
X240985Y52181D01*
Y56179D01*
D13*
X184055Y31024D02*
X228543D01*
X184055Y5512D02*
X228543D01*
X184055D02*
Y31024D01*
X228543Y5512D02*
Y31024D01*
D15*
X233475Y33975D02*
Y37911D01*
X231507D01*
X230851Y37255D01*
Y35943D01*
X231507Y35287D01*
X233475D01*
X226915Y37911D02*
X229539D01*
Y35943D01*
X228227Y36599D01*
X227571D01*
X226915Y35943D01*
Y34631D01*
X227571Y33975D01*
X228883D01*
X229539Y34631D01*
M02*
