G04*
G04 #@! TF.GenerationSoftware,Altium Limited,Altium Designer,20.0.11 (256)*
G04*
G04 Layer_Physical_Order=2*
G04 Layer_Color=16711680*
%FSLAX25Y25*%
%MOIN*%
G70*
G01*
G75*
%ADD74C,0.01968*%
%ADD75C,0.02953*%
%ADD77C,0.09843*%
%ADD78R,0.09843X0.09843*%
%ADD79R,0.09843X0.09843*%
%ADD80R,0.06890X0.06890*%
%ADD81C,0.06890*%
%ADD82C,0.06000*%
%ADD83C,0.11811*%
%ADD84R,0.07874X0.07874*%
%ADD85C,0.07874*%
%ADD86C,0.39370*%
%ADD87C,0.02756*%
%ADD88C,0.03937*%
G36*
X432268Y67739D02*
X431768Y67622D01*
X430983Y69215D01*
X429506Y71425D01*
X427754Y73423D01*
X425755Y75175D01*
X423545Y76652D01*
X421162Y77828D01*
X418645Y78682D01*
X416038Y79201D01*
X413386Y79374D01*
X410734Y79201D01*
X408127Y78682D01*
X405610Y77828D01*
X403226Y76652D01*
X401016Y75175D01*
X399018Y73423D01*
X397266Y71425D01*
X395789Y69215D01*
X394613Y66831D01*
X393759Y64314D01*
X393240Y61707D01*
X393067Y59055D01*
X393240Y56403D01*
X393759Y53796D01*
X394613Y51279D01*
X395789Y48896D01*
X397266Y46686D01*
X399018Y44687D01*
X401016Y42935D01*
X403226Y41458D01*
X405610Y40283D01*
X408127Y39428D01*
X410734Y38910D01*
X413386Y38736D01*
X416038Y38910D01*
X418645Y39428D01*
X421162Y40283D01*
X423405Y41389D01*
X423700Y40977D01*
X383526Y803D01*
X49545D01*
X9371Y40977D01*
X9666Y41389D01*
X11909Y40283D01*
X14426Y39428D01*
X17033Y38910D01*
X19685Y38736D01*
X22337Y38910D01*
X24944Y39428D01*
X27461Y40283D01*
X29844Y41458D01*
X32054Y42935D01*
X34053Y44687D01*
X35805Y46686D01*
X37282Y48896D01*
X38457Y51279D01*
X39312Y53796D01*
X39830Y56403D01*
X40004Y59055D01*
X39830Y61707D01*
X39312Y64314D01*
X38457Y66831D01*
X37282Y69215D01*
X35805Y71425D01*
X34053Y73423D01*
X32054Y75175D01*
X29844Y76652D01*
X27461Y77828D01*
X24944Y78682D01*
X22337Y79201D01*
X19685Y79374D01*
X17033Y79201D01*
X14426Y78682D01*
X11909Y77828D01*
X9526Y76652D01*
X7316Y75175D01*
X5317Y73423D01*
X3565Y71425D01*
X2088Y69215D01*
X1303Y67622D01*
X803Y67739D01*
Y140929D01*
X432268D01*
Y67739D01*
D02*
G37*
%LPC*%
G36*
X430134Y139495D02*
Y138795D01*
X430833D01*
X430553Y139215D01*
X430134Y139495D01*
D02*
G37*
G36*
X428134D02*
X427715Y139215D01*
X427434Y138795D01*
X428134D01*
Y139495D01*
D02*
G37*
G36*
X378953D02*
Y138795D01*
X379652D01*
X379372Y139215D01*
X378953Y139495D01*
D02*
G37*
G36*
X376953D02*
X376534Y139215D01*
X376253Y138795D01*
X376953D01*
Y139495D01*
D02*
G37*
G36*
X373047D02*
Y138795D01*
X373747D01*
X373466Y139215D01*
X373047Y139495D01*
D02*
G37*
G36*
X371047D02*
X370628Y139215D01*
X370348Y138795D01*
X371047D01*
Y139495D01*
D02*
G37*
G36*
X367142D02*
Y138795D01*
X367841D01*
X367561Y139215D01*
X367142Y139495D01*
D02*
G37*
G36*
X365142D02*
X364722Y139215D01*
X364442Y138795D01*
X365142D01*
Y139495D01*
D02*
G37*
G36*
X361236D02*
Y138795D01*
X361935D01*
X361655Y139215D01*
X361236Y139495D01*
D02*
G37*
G36*
X359236D02*
X358817Y139215D01*
X358537Y138795D01*
X359236D01*
Y139495D01*
D02*
G37*
G36*
X355331D02*
Y138795D01*
X356030D01*
X355750Y139215D01*
X355331Y139495D01*
D02*
G37*
G36*
X353331D02*
X352911Y139215D01*
X352631Y138795D01*
X353331D01*
Y139495D01*
D02*
G37*
G36*
X349425D02*
Y138795D01*
X350125D01*
X349844Y139215D01*
X349425Y139495D01*
D02*
G37*
G36*
X347425D02*
X347006Y139215D01*
X346726Y138795D01*
X347425D01*
Y139495D01*
D02*
G37*
G36*
X343520D02*
Y138795D01*
X344219D01*
X343939Y139215D01*
X343520Y139495D01*
D02*
G37*
G36*
X341520D02*
X341101Y139215D01*
X340820Y138795D01*
X341520D01*
Y139495D01*
D02*
G37*
G36*
X337614D02*
Y138795D01*
X338314D01*
X338033Y139215D01*
X337614Y139495D01*
D02*
G37*
G36*
X335614D02*
X335195Y139215D01*
X334915Y138795D01*
X335614D01*
Y139495D01*
D02*
G37*
G36*
X331709D02*
Y138795D01*
X332408D01*
X332128Y139215D01*
X331709Y139495D01*
D02*
G37*
G36*
X329709D02*
X329289Y139215D01*
X329009Y138795D01*
X329709D01*
Y139495D01*
D02*
G37*
G36*
X325803D02*
Y138795D01*
X326502D01*
X326222Y139215D01*
X325803Y139495D01*
D02*
G37*
G36*
X323803D02*
X323384Y139215D01*
X323104Y138795D01*
X323803D01*
Y139495D01*
D02*
G37*
G36*
X319898D02*
Y138795D01*
X320597D01*
X320317Y139215D01*
X319898Y139495D01*
D02*
G37*
G36*
X317898D02*
X317478Y139215D01*
X317198Y138795D01*
X317898D01*
Y139495D01*
D02*
G37*
G36*
X313992D02*
Y138795D01*
X314691D01*
X314411Y139215D01*
X313992Y139495D01*
D02*
G37*
G36*
X311992D02*
X311573Y139215D01*
X311293Y138795D01*
X311992D01*
Y139495D01*
D02*
G37*
G36*
X308087D02*
Y138795D01*
X308786D01*
X308506Y139215D01*
X308087Y139495D01*
D02*
G37*
G36*
X306087D02*
X305667Y139215D01*
X305387Y138795D01*
X306087D01*
Y139495D01*
D02*
G37*
G36*
X302181D02*
Y138795D01*
X302880D01*
X302600Y139215D01*
X302181Y139495D01*
D02*
G37*
G36*
X300181D02*
X299762Y139215D01*
X299482Y138795D01*
X300181D01*
Y139495D01*
D02*
G37*
G36*
X296276D02*
Y138795D01*
X296975D01*
X296695Y139215D01*
X296276Y139495D01*
D02*
G37*
G36*
X294276D02*
X293856Y139215D01*
X293576Y138795D01*
X294276D01*
Y139495D01*
D02*
G37*
G36*
X290370D02*
Y138795D01*
X291069D01*
X290789Y139215D01*
X290370Y139495D01*
D02*
G37*
G36*
X288370D02*
X287951Y139215D01*
X287671Y138795D01*
X288370D01*
Y139495D01*
D02*
G37*
G36*
X284465D02*
Y138795D01*
X285164D01*
X284884Y139215D01*
X284465Y139495D01*
D02*
G37*
G36*
X282465D02*
X282045Y139215D01*
X281765Y138795D01*
X282465D01*
Y139495D01*
D02*
G37*
G36*
X278559D02*
Y138795D01*
X279258D01*
X278978Y139215D01*
X278559Y139495D01*
D02*
G37*
G36*
X276559D02*
X276140Y139215D01*
X275860Y138795D01*
X276559D01*
Y139495D01*
D02*
G37*
G36*
X272654D02*
Y138795D01*
X273353D01*
X273073Y139215D01*
X272654Y139495D01*
D02*
G37*
G36*
X270654D02*
X270234Y139215D01*
X269954Y138795D01*
X270654D01*
Y139495D01*
D02*
G37*
G36*
X266748D02*
Y138795D01*
X267447D01*
X267167Y139215D01*
X266748Y139495D01*
D02*
G37*
G36*
X264748D02*
X264329Y139215D01*
X264049Y138795D01*
X264748D01*
Y139495D01*
D02*
G37*
G36*
X260842D02*
Y138795D01*
X261542D01*
X261262Y139215D01*
X260842Y139495D01*
D02*
G37*
G36*
X258842D02*
X258423Y139215D01*
X258143Y138795D01*
X258842D01*
Y139495D01*
D02*
G37*
G36*
X254937D02*
Y138795D01*
X255636D01*
X255356Y139215D01*
X254937Y139495D01*
D02*
G37*
G36*
X252937D02*
X252518Y139215D01*
X252238Y138795D01*
X252937D01*
Y139495D01*
D02*
G37*
G36*
X249031D02*
Y138795D01*
X249731D01*
X249451Y139215D01*
X249031Y139495D01*
D02*
G37*
G36*
X247031D02*
X246612Y139215D01*
X246332Y138795D01*
X247031D01*
Y139495D01*
D02*
G37*
G36*
X243126D02*
Y138795D01*
X243825D01*
X243545Y139215D01*
X243126Y139495D01*
D02*
G37*
G36*
X241126D02*
X240707Y139215D01*
X240427Y138795D01*
X241126D01*
Y139495D01*
D02*
G37*
G36*
X237221D02*
Y138795D01*
X237920D01*
X237640Y139215D01*
X237221Y139495D01*
D02*
G37*
G36*
X235221D02*
X234801Y139215D01*
X234521Y138795D01*
X235221D01*
Y139495D01*
D02*
G37*
G36*
X231315D02*
Y138795D01*
X232014D01*
X231734Y139215D01*
X231315Y139495D01*
D02*
G37*
G36*
X229315D02*
X228896Y139215D01*
X228616Y138795D01*
X229315D01*
Y139495D01*
D02*
G37*
G36*
X225410D02*
Y138795D01*
X226109D01*
X225829Y139215D01*
X225410Y139495D01*
D02*
G37*
G36*
X223410D02*
X222990Y139215D01*
X222710Y138795D01*
X223410D01*
Y139495D01*
D02*
G37*
G36*
X219504D02*
Y138795D01*
X220203D01*
X219923Y139215D01*
X219504Y139495D01*
D02*
G37*
G36*
X217504D02*
X217085Y139215D01*
X216805Y138795D01*
X217504D01*
Y139495D01*
D02*
G37*
G36*
X213598D02*
Y138795D01*
X214298D01*
X214018Y139215D01*
X213598Y139495D01*
D02*
G37*
G36*
X211598D02*
X211179Y139215D01*
X210899Y138795D01*
X211598D01*
Y139495D01*
D02*
G37*
G36*
X207693D02*
Y138795D01*
X208392D01*
X208112Y139215D01*
X207693Y139495D01*
D02*
G37*
G36*
X205693D02*
X205274Y139215D01*
X204994Y138795D01*
X205693D01*
Y139495D01*
D02*
G37*
G36*
X201787D02*
Y138795D01*
X202487D01*
X202207Y139215D01*
X201787Y139495D01*
D02*
G37*
G36*
X199787D02*
X199368Y139215D01*
X199088Y138795D01*
X199787D01*
Y139495D01*
D02*
G37*
G36*
X195882D02*
Y138795D01*
X196581D01*
X196301Y139215D01*
X195882Y139495D01*
D02*
G37*
G36*
X193882D02*
X193463Y139215D01*
X193183Y138795D01*
X193882D01*
Y139495D01*
D02*
G37*
G36*
X189976D02*
Y138795D01*
X190676D01*
X190396Y139215D01*
X189976Y139495D01*
D02*
G37*
G36*
X187976D02*
X187557Y139215D01*
X187277Y138795D01*
X187976D01*
Y139495D01*
D02*
G37*
G36*
X184071D02*
Y138795D01*
X184770D01*
X184490Y139215D01*
X184071Y139495D01*
D02*
G37*
G36*
X182071D02*
X181652Y139215D01*
X181372Y138795D01*
X182071D01*
Y139495D01*
D02*
G37*
G36*
X178165D02*
Y138795D01*
X178865D01*
X178585Y139215D01*
X178165Y139495D01*
D02*
G37*
G36*
X176165D02*
X175746Y139215D01*
X175466Y138795D01*
X176165D01*
Y139495D01*
D02*
G37*
G36*
X172260D02*
Y138795D01*
X172959D01*
X172679Y139215D01*
X172260Y139495D01*
D02*
G37*
G36*
X170260D02*
X169841Y139215D01*
X169561Y138795D01*
X170260D01*
Y139495D01*
D02*
G37*
G36*
X166354D02*
Y138795D01*
X167054D01*
X166773Y139215D01*
X166354Y139495D01*
D02*
G37*
G36*
X164354D02*
X163935Y139215D01*
X163655Y138795D01*
X164354D01*
Y139495D01*
D02*
G37*
G36*
X4937D02*
Y138795D01*
X5636D01*
X5356Y139215D01*
X4937Y139495D01*
D02*
G37*
G36*
X2937D02*
X2518Y139215D01*
X2238Y138795D01*
X2937D01*
Y139495D01*
D02*
G37*
G36*
X430833Y136795D02*
X430134D01*
Y136096D01*
X430553Y136376D01*
X430833Y136795D01*
D02*
G37*
G36*
X428134D02*
X427434D01*
X427715Y136376D01*
X428134Y136096D01*
Y136795D01*
D02*
G37*
G36*
X379652D02*
X378953D01*
Y136096D01*
X379372Y136376D01*
X379652Y136795D01*
D02*
G37*
G36*
X376953D02*
X376253D01*
X376534Y136376D01*
X376953Y136096D01*
Y136795D01*
D02*
G37*
G36*
X373747D02*
X373047D01*
Y136096D01*
X373466Y136376D01*
X373747Y136795D01*
D02*
G37*
G36*
X371047D02*
X370348D01*
X370628Y136376D01*
X371047Y136096D01*
Y136795D01*
D02*
G37*
G36*
X367841D02*
X367142D01*
Y136096D01*
X367561Y136376D01*
X367841Y136795D01*
D02*
G37*
G36*
X365142D02*
X364442D01*
X364722Y136376D01*
X365142Y136096D01*
Y136795D01*
D02*
G37*
G36*
X361935D02*
X361236D01*
Y136096D01*
X361655Y136376D01*
X361935Y136795D01*
D02*
G37*
G36*
X359236D02*
X358537D01*
X358817Y136376D01*
X359236Y136096D01*
Y136795D01*
D02*
G37*
G36*
X356030D02*
X355331D01*
Y136096D01*
X355750Y136376D01*
X356030Y136795D01*
D02*
G37*
G36*
X353331D02*
X352631D01*
X352911Y136376D01*
X353331Y136096D01*
Y136795D01*
D02*
G37*
G36*
X350125D02*
X349425D01*
Y136096D01*
X349844Y136376D01*
X350125Y136795D01*
D02*
G37*
G36*
X347425D02*
X346726D01*
X347006Y136376D01*
X347425Y136096D01*
Y136795D01*
D02*
G37*
G36*
X344219D02*
X343520D01*
Y136096D01*
X343939Y136376D01*
X344219Y136795D01*
D02*
G37*
G36*
X341520D02*
X340820D01*
X341101Y136376D01*
X341520Y136096D01*
Y136795D01*
D02*
G37*
G36*
X338314D02*
X337614D01*
Y136096D01*
X338033Y136376D01*
X338314Y136795D01*
D02*
G37*
G36*
X335614D02*
X334915D01*
X335195Y136376D01*
X335614Y136096D01*
Y136795D01*
D02*
G37*
G36*
X332408D02*
X331709D01*
Y136096D01*
X332128Y136376D01*
X332408Y136795D01*
D02*
G37*
G36*
X329709D02*
X329009D01*
X329289Y136376D01*
X329709Y136096D01*
Y136795D01*
D02*
G37*
G36*
X326502D02*
X325803D01*
Y136096D01*
X326222Y136376D01*
X326502Y136795D01*
D02*
G37*
G36*
X323803D02*
X323104D01*
X323384Y136376D01*
X323803Y136096D01*
Y136795D01*
D02*
G37*
G36*
X320597D02*
X319898D01*
Y136096D01*
X320317Y136376D01*
X320597Y136795D01*
D02*
G37*
G36*
X317898D02*
X317198D01*
X317478Y136376D01*
X317898Y136096D01*
Y136795D01*
D02*
G37*
G36*
X314691D02*
X313992D01*
Y136096D01*
X314411Y136376D01*
X314691Y136795D01*
D02*
G37*
G36*
X311992D02*
X311293D01*
X311573Y136376D01*
X311992Y136096D01*
Y136795D01*
D02*
G37*
G36*
X308786D02*
X308087D01*
Y136096D01*
X308506Y136376D01*
X308786Y136795D01*
D02*
G37*
G36*
X306087D02*
X305387D01*
X305667Y136376D01*
X306087Y136096D01*
Y136795D01*
D02*
G37*
G36*
X302880D02*
X302181D01*
Y136096D01*
X302600Y136376D01*
X302880Y136795D01*
D02*
G37*
G36*
X300181D02*
X299482D01*
X299762Y136376D01*
X300181Y136096D01*
Y136795D01*
D02*
G37*
G36*
X296975D02*
X296276D01*
Y136096D01*
X296695Y136376D01*
X296975Y136795D01*
D02*
G37*
G36*
X294276D02*
X293576D01*
X293856Y136376D01*
X294276Y136096D01*
Y136795D01*
D02*
G37*
G36*
X291069D02*
X290370D01*
Y136096D01*
X290789Y136376D01*
X291069Y136795D01*
D02*
G37*
G36*
X288370D02*
X287671D01*
X287951Y136376D01*
X288370Y136096D01*
Y136795D01*
D02*
G37*
G36*
X285164D02*
X284465D01*
Y136096D01*
X284884Y136376D01*
X285164Y136795D01*
D02*
G37*
G36*
X282465D02*
X281765D01*
X282045Y136376D01*
X282465Y136096D01*
Y136795D01*
D02*
G37*
G36*
X279258D02*
X278559D01*
Y136096D01*
X278978Y136376D01*
X279258Y136795D01*
D02*
G37*
G36*
X276559D02*
X275860D01*
X276140Y136376D01*
X276559Y136096D01*
Y136795D01*
D02*
G37*
G36*
X273353D02*
X272654D01*
Y136096D01*
X273073Y136376D01*
X273353Y136795D01*
D02*
G37*
G36*
X270654D02*
X269954D01*
X270234Y136376D01*
X270654Y136096D01*
Y136795D01*
D02*
G37*
G36*
X267447D02*
X266748D01*
Y136096D01*
X267167Y136376D01*
X267447Y136795D01*
D02*
G37*
G36*
X264748D02*
X264049D01*
X264329Y136376D01*
X264748Y136096D01*
Y136795D01*
D02*
G37*
G36*
X261542D02*
X260842D01*
Y136096D01*
X261262Y136376D01*
X261542Y136795D01*
D02*
G37*
G36*
X258842D02*
X258143D01*
X258423Y136376D01*
X258842Y136096D01*
Y136795D01*
D02*
G37*
G36*
X255636D02*
X254937D01*
Y136096D01*
X255356Y136376D01*
X255636Y136795D01*
D02*
G37*
G36*
X252937D02*
X252238D01*
X252518Y136376D01*
X252937Y136096D01*
Y136795D01*
D02*
G37*
G36*
X249731D02*
X249031D01*
Y136096D01*
X249451Y136376D01*
X249731Y136795D01*
D02*
G37*
G36*
X247031D02*
X246332D01*
X246612Y136376D01*
X247031Y136096D01*
Y136795D01*
D02*
G37*
G36*
X243825D02*
X243126D01*
Y136096D01*
X243545Y136376D01*
X243825Y136795D01*
D02*
G37*
G36*
X241126D02*
X240427D01*
X240707Y136376D01*
X241126Y136096D01*
Y136795D01*
D02*
G37*
G36*
X237920D02*
X237221D01*
Y136096D01*
X237640Y136376D01*
X237920Y136795D01*
D02*
G37*
G36*
X235221D02*
X234521D01*
X234801Y136376D01*
X235221Y136096D01*
Y136795D01*
D02*
G37*
G36*
X232014D02*
X231315D01*
Y136096D01*
X231734Y136376D01*
X232014Y136795D01*
D02*
G37*
G36*
X229315D02*
X228616D01*
X228896Y136376D01*
X229315Y136096D01*
Y136795D01*
D02*
G37*
G36*
X226109D02*
X225410D01*
Y136096D01*
X225829Y136376D01*
X226109Y136795D01*
D02*
G37*
G36*
X223410D02*
X222710D01*
X222990Y136376D01*
X223410Y136096D01*
Y136795D01*
D02*
G37*
G36*
X220203D02*
X219504D01*
Y136096D01*
X219923Y136376D01*
X220203Y136795D01*
D02*
G37*
G36*
X217504D02*
X216805D01*
X217085Y136376D01*
X217504Y136096D01*
Y136795D01*
D02*
G37*
G36*
X214298D02*
X213598D01*
Y136096D01*
X214018Y136376D01*
X214298Y136795D01*
D02*
G37*
G36*
X211598D02*
X210899D01*
X211179Y136376D01*
X211598Y136096D01*
Y136795D01*
D02*
G37*
G36*
X208392D02*
X207693D01*
Y136096D01*
X208112Y136376D01*
X208392Y136795D01*
D02*
G37*
G36*
X205693D02*
X204994D01*
X205274Y136376D01*
X205693Y136096D01*
Y136795D01*
D02*
G37*
G36*
X202487D02*
X201787D01*
Y136096D01*
X202207Y136376D01*
X202487Y136795D01*
D02*
G37*
G36*
X199787D02*
X199088D01*
X199368Y136376D01*
X199787Y136096D01*
Y136795D01*
D02*
G37*
G36*
X196581D02*
X195882D01*
Y136096D01*
X196301Y136376D01*
X196581Y136795D01*
D02*
G37*
G36*
X193882D02*
X193183D01*
X193463Y136376D01*
X193882Y136096D01*
Y136795D01*
D02*
G37*
G36*
X190676D02*
X189976D01*
Y136096D01*
X190396Y136376D01*
X190676Y136795D01*
D02*
G37*
G36*
X187976D02*
X187277D01*
X187557Y136376D01*
X187976Y136096D01*
Y136795D01*
D02*
G37*
G36*
X184770D02*
X184071D01*
Y136096D01*
X184490Y136376D01*
X184770Y136795D01*
D02*
G37*
G36*
X182071D02*
X181372D01*
X181652Y136376D01*
X182071Y136096D01*
Y136795D01*
D02*
G37*
G36*
X178865D02*
X178165D01*
Y136096D01*
X178585Y136376D01*
X178865Y136795D01*
D02*
G37*
G36*
X176165D02*
X175466D01*
X175746Y136376D01*
X176165Y136096D01*
Y136795D01*
D02*
G37*
G36*
X172959D02*
X172260D01*
Y136096D01*
X172679Y136376D01*
X172959Y136795D01*
D02*
G37*
G36*
X170260D02*
X169561D01*
X169841Y136376D01*
X170260Y136096D01*
Y136795D01*
D02*
G37*
G36*
X167054D02*
X166354D01*
Y136096D01*
X166773Y136376D01*
X167054Y136795D01*
D02*
G37*
G36*
X164354D02*
X163655D01*
X163935Y136376D01*
X164354Y136096D01*
Y136795D01*
D02*
G37*
G36*
X5636D02*
X4937D01*
Y136096D01*
X5356Y136376D01*
X5636Y136795D01*
D02*
G37*
G36*
X2937D02*
X2238D01*
X2518Y136376D01*
X2937Y136096D01*
Y136795D01*
D02*
G37*
G36*
X378953Y133589D02*
Y132890D01*
X379652D01*
X379372Y133309D01*
X378953Y133589D01*
D02*
G37*
G36*
X376953D02*
X376534Y133309D01*
X376253Y132890D01*
X376953D01*
Y133589D01*
D02*
G37*
G36*
X337614D02*
Y132890D01*
X338314D01*
X338033Y133309D01*
X337614Y133589D01*
D02*
G37*
G36*
X335614D02*
X335195Y133309D01*
X334915Y132890D01*
X335614D01*
Y133589D01*
D02*
G37*
G36*
X4937D02*
Y132890D01*
X5636D01*
X5356Y133309D01*
X4937Y133589D01*
D02*
G37*
G36*
X2937D02*
X2518Y133309D01*
X2238Y132890D01*
X2937D01*
Y133589D01*
D02*
G37*
G36*
X379652Y130890D02*
X378953D01*
Y130190D01*
X379372Y130471D01*
X379652Y130890D01*
D02*
G37*
G36*
X376953D02*
X376253D01*
X376534Y130471D01*
X376953Y130190D01*
Y130890D01*
D02*
G37*
G36*
X338314D02*
X337614D01*
Y130190D01*
X338033Y130471D01*
X338314Y130890D01*
D02*
G37*
G36*
X335614D02*
X334915D01*
X335195Y130471D01*
X335614Y130190D01*
Y130890D01*
D02*
G37*
G36*
X5636D02*
X4937D01*
Y130190D01*
X5356Y130471D01*
X5636Y130890D01*
D02*
G37*
G36*
X2937D02*
X2238D01*
X2518Y130471D01*
X2937Y130190D01*
Y130890D01*
D02*
G37*
G36*
X246748Y131891D02*
Y128953D01*
X249687D01*
X249679Y129006D01*
X249273Y129988D01*
X248626Y130831D01*
X247783Y131478D01*
X246801Y131884D01*
X246748Y131891D01*
D02*
G37*
G36*
X244748Y131891D02*
X244694Y131884D01*
X243713Y131478D01*
X242870Y130831D01*
X242223Y129988D01*
X241816Y129006D01*
X241809Y128953D01*
X244748D01*
Y131891D01*
D02*
G37*
G36*
X296945Y131891D02*
Y128953D01*
X299884D01*
X299876Y129006D01*
X299470Y129988D01*
X298823Y130831D01*
X297980Y131478D01*
X296998Y131884D01*
X296945Y131891D01*
D02*
G37*
G36*
X294945Y131891D02*
X294892Y131884D01*
X293910Y131478D01*
X293067Y130831D01*
X292420Y129988D01*
X292013Y129006D01*
X292006Y128953D01*
X294945D01*
Y131891D01*
D02*
G37*
G36*
X378953Y127684D02*
Y126984D01*
X379652D01*
X379372Y127403D01*
X378953Y127684D01*
D02*
G37*
G36*
X376953D02*
X376534Y127403D01*
X376253Y126984D01*
X376953D01*
Y127684D01*
D02*
G37*
G36*
X337614D02*
Y126984D01*
X338314D01*
X338033Y127403D01*
X337614Y127684D01*
D02*
G37*
G36*
X335614D02*
X335195Y127403D01*
X334915Y126984D01*
X335614D01*
Y127684D01*
D02*
G37*
G36*
X4937D02*
Y126984D01*
X5636D01*
X5356Y127403D01*
X4937Y127684D01*
D02*
G37*
G36*
X2937D02*
X2518Y127403D01*
X2238Y126984D01*
X2937D01*
Y127684D01*
D02*
G37*
G36*
X379652Y124984D02*
X378953D01*
Y124285D01*
X379372Y124565D01*
X379652Y124984D01*
D02*
G37*
G36*
X376953D02*
X376253D01*
X376534Y124565D01*
X376953Y124285D01*
Y124984D01*
D02*
G37*
G36*
X338314D02*
X337614D01*
Y124285D01*
X338033Y124565D01*
X338314Y124984D01*
D02*
G37*
G36*
X335614D02*
X334915D01*
X335195Y124565D01*
X335614Y124285D01*
Y124984D01*
D02*
G37*
G36*
X5636D02*
X4937D01*
Y124285D01*
X5356Y124565D01*
X5636Y124984D01*
D02*
G37*
G36*
X2937D02*
X2238D01*
X2518Y124565D01*
X2937Y124285D01*
Y124984D01*
D02*
G37*
G36*
X299884Y126953D02*
X296945D01*
Y124014D01*
X296998Y124021D01*
X297980Y124428D01*
X298823Y125075D01*
X299470Y125918D01*
X299876Y126899D01*
X299884Y126953D01*
D02*
G37*
G36*
X244748Y126953D02*
X241809D01*
X241816Y126899D01*
X242223Y125918D01*
X242870Y125075D01*
X243713Y124428D01*
X244694Y124021D01*
X244748Y124014D01*
Y126953D01*
D02*
G37*
G36*
X294945Y126953D02*
X292006D01*
X292013Y126899D01*
X292420Y125918D01*
X293067Y125075D01*
X293910Y124428D01*
X294892Y124021D01*
X294945Y124014D01*
Y126953D01*
D02*
G37*
G36*
X249687Y126953D02*
X246748D01*
Y124014D01*
X246801Y124021D01*
X247783Y124428D01*
X248626Y125075D01*
X249273Y125918D01*
X249679Y126899D01*
X249687Y126953D01*
D02*
G37*
G36*
X319980Y131988D02*
X311910D01*
Y123917D01*
X319980D01*
Y131988D01*
D02*
G37*
G36*
X269783Y131988D02*
X261713D01*
Y123917D01*
X269783D01*
Y131988D01*
D02*
G37*
G36*
X305945Y132023D02*
X304891Y131884D01*
X303910Y131478D01*
X303067Y130831D01*
X302420Y129988D01*
X302013Y129006D01*
X301875Y127953D01*
X302013Y126899D01*
X302420Y125918D01*
X303067Y125075D01*
X303910Y124428D01*
X304891Y124021D01*
X305945Y123882D01*
X306998Y124021D01*
X307980Y124428D01*
X308823Y125075D01*
X309470Y125918D01*
X309876Y126899D01*
X310015Y127953D01*
X309876Y129006D01*
X309470Y129988D01*
X308823Y130831D01*
X307980Y131478D01*
X306998Y131884D01*
X305945Y132023D01*
D02*
G37*
G36*
X255748Y132023D02*
X254695Y131884D01*
X253713Y131478D01*
X252870Y130831D01*
X252223Y129988D01*
X251816Y129006D01*
X251678Y127953D01*
X251816Y126899D01*
X252223Y125918D01*
X252870Y125075D01*
X253713Y124428D01*
X254695Y124021D01*
X255748Y123882D01*
X256801Y124021D01*
X257783Y124428D01*
X258626Y125075D01*
X259273Y125918D01*
X259680Y126899D01*
X259818Y127953D01*
X259680Y129006D01*
X259273Y129988D01*
X258626Y130831D01*
X257783Y131478D01*
X256801Y131884D01*
X255748Y132023D01*
D02*
G37*
G36*
X235748D02*
X234695Y131884D01*
X233713Y131478D01*
X232870Y130831D01*
X232223Y129988D01*
X231816Y129006D01*
X231678Y127953D01*
X231816Y126899D01*
X232223Y125918D01*
X232870Y125075D01*
X233713Y124428D01*
X234695Y124021D01*
X235748Y123882D01*
X236801Y124021D01*
X237783Y124428D01*
X238626Y125075D01*
X239273Y125918D01*
X239680Y126899D01*
X239818Y127953D01*
X239680Y129006D01*
X239273Y129988D01*
X238626Y130831D01*
X237783Y131478D01*
X236801Y131884D01*
X235748Y132023D01*
D02*
G37*
G36*
X225748D02*
X224694Y131884D01*
X223713Y131478D01*
X222870Y130831D01*
X222223Y129988D01*
X221816Y129006D01*
X221678Y127953D01*
X221816Y126899D01*
X222223Y125918D01*
X222870Y125075D01*
X223713Y124428D01*
X224694Y124021D01*
X225748Y123882D01*
X226801Y124021D01*
X227783Y124428D01*
X228626Y125075D01*
X229273Y125918D01*
X229679Y126899D01*
X229818Y127953D01*
X229679Y129006D01*
X229273Y129988D01*
X228626Y130831D01*
X227783Y131478D01*
X226801Y131884D01*
X225748Y132023D01*
D02*
G37*
G36*
X215748D02*
X214694Y131884D01*
X213713Y131478D01*
X212870Y130831D01*
X212223Y129988D01*
X211816Y129006D01*
X211678Y127953D01*
X211816Y126899D01*
X212223Y125918D01*
X212870Y125075D01*
X213713Y124428D01*
X214694Y124021D01*
X215748Y123882D01*
X216801Y124021D01*
X217783Y124428D01*
X218626Y125075D01*
X219273Y125918D01*
X219679Y126899D01*
X219818Y127953D01*
X219679Y129006D01*
X219273Y129988D01*
X218626Y130831D01*
X217783Y131478D01*
X216801Y131884D01*
X215748Y132023D01*
D02*
G37*
G36*
X176197Y123747D02*
Y123047D01*
X176896D01*
X176616Y123467D01*
X176197Y123747D01*
D02*
G37*
G36*
X174197D02*
X173778Y123467D01*
X173497Y123047D01*
X174197D01*
Y123747D01*
D02*
G37*
G36*
X378953Y121778D02*
Y121079D01*
X379652D01*
X379372Y121498D01*
X378953Y121778D01*
D02*
G37*
G36*
X376953D02*
X376534Y121498D01*
X376253Y121079D01*
X376953D01*
Y121778D01*
D02*
G37*
G36*
X337614D02*
Y121079D01*
X338314D01*
X338033Y121498D01*
X337614Y121778D01*
D02*
G37*
G36*
X335614D02*
X335195Y121498D01*
X334915Y121079D01*
X335614D01*
Y121778D01*
D02*
G37*
G36*
X4937D02*
Y121079D01*
X5636D01*
X5356Y121498D01*
X4937Y121778D01*
D02*
G37*
G36*
X2937D02*
X2518Y121498D01*
X2238Y121079D01*
X2937D01*
Y121778D01*
D02*
G37*
G36*
X176896Y121047D02*
X176197D01*
Y120348D01*
X176616Y120628D01*
X176896Y121047D01*
D02*
G37*
G36*
X174197D02*
X173497D01*
X173778Y120628D01*
X174197Y120348D01*
Y121047D01*
D02*
G37*
G36*
X379652Y119079D02*
X378953D01*
Y118379D01*
X379372Y118659D01*
X379652Y119079D01*
D02*
G37*
G36*
X376953D02*
X376253D01*
X376534Y118659D01*
X376953Y118379D01*
Y119079D01*
D02*
G37*
G36*
X338314D02*
X337614D01*
Y118379D01*
X338033Y118659D01*
X338314Y119079D01*
D02*
G37*
G36*
X335614D02*
X334915D01*
X335195Y118659D01*
X335614Y118379D01*
Y119079D01*
D02*
G37*
G36*
X5636D02*
X4937D01*
Y118379D01*
X5356Y118659D01*
X5636Y119079D01*
D02*
G37*
G36*
X2937D02*
X2238D01*
X2518Y118659D01*
X2937Y118379D01*
Y119079D01*
D02*
G37*
G36*
X378953Y115873D02*
Y115173D01*
X379652D01*
X379372Y115592D01*
X378953Y115873D01*
D02*
G37*
G36*
X376953D02*
X376534Y115592D01*
X376253Y115173D01*
X376953D01*
Y115873D01*
D02*
G37*
G36*
X337614D02*
Y115173D01*
X338314D01*
X338033Y115592D01*
X337614Y115873D01*
D02*
G37*
G36*
X335614D02*
X335195Y115592D01*
X334915Y115173D01*
X335614D01*
Y115873D01*
D02*
G37*
G36*
X276590D02*
Y115173D01*
X277290D01*
X277010Y115592D01*
X276590Y115873D01*
D02*
G37*
G36*
X274590D02*
X274171Y115592D01*
X273891Y115173D01*
X274590D01*
Y115873D01*
D02*
G37*
G36*
X4937D02*
Y115173D01*
X5636D01*
X5356Y115592D01*
X4937Y115873D01*
D02*
G37*
G36*
X2937D02*
X2518Y115592D01*
X2238Y115173D01*
X2937D01*
Y115873D01*
D02*
G37*
G36*
X299425Y113904D02*
Y113205D01*
X300125D01*
X299844Y113624D01*
X299425Y113904D01*
D02*
G37*
G36*
X297425D02*
X297006Y113624D01*
X296726Y113205D01*
X297425D01*
Y113904D01*
D02*
G37*
G36*
X379652Y113173D02*
X378953D01*
Y112474D01*
X379372Y112754D01*
X379652Y113173D01*
D02*
G37*
G36*
X376953D02*
X376253D01*
X376534Y112754D01*
X376953Y112474D01*
Y113173D01*
D02*
G37*
G36*
X338314D02*
X337614D01*
Y112474D01*
X338033Y112754D01*
X338314Y113173D01*
D02*
G37*
G36*
X335614D02*
X334915D01*
X335195Y112754D01*
X335614Y112474D01*
Y113173D01*
D02*
G37*
G36*
X277290D02*
X276590D01*
Y112474D01*
X277010Y112754D01*
X277290Y113173D01*
D02*
G37*
G36*
X274590D02*
X273891D01*
X274171Y112754D01*
X274590Y112474D01*
Y113173D01*
D02*
G37*
G36*
X5636D02*
X4937D01*
Y112474D01*
X5356Y112754D01*
X5636Y113173D01*
D02*
G37*
G36*
X2937D02*
X2238D01*
X2518Y112754D01*
X2937Y112474D01*
Y113173D01*
D02*
G37*
G36*
X275787Y110873D02*
X275635Y110843D01*
X275590Y110849D01*
X274922Y110761D01*
X274300Y110503D01*
X273765Y110093D01*
X273355Y109558D01*
X273097Y108936D01*
X273009Y108268D01*
X273097Y107600D01*
X273355Y106977D01*
X273765Y106443D01*
X274182Y106123D01*
Y92840D01*
X273962Y92672D01*
X273552Y92137D01*
X273294Y91514D01*
X273206Y90847D01*
X273294Y90178D01*
X273552Y89556D01*
X273962Y89021D01*
X274497Y88611D01*
X275119Y88353D01*
X275787Y88265D01*
X276455Y88353D01*
X277078Y88611D01*
X277612Y89021D01*
X278023Y89556D01*
X278280Y90178D01*
X278368Y90847D01*
X278280Y91514D01*
X278023Y92137D01*
X277612Y92672D01*
X277393Y92840D01*
Y106425D01*
X277416Y106443D01*
X277826Y106977D01*
X278084Y107600D01*
X278172Y108268D01*
X278084Y108936D01*
X277826Y109558D01*
X277416Y110093D01*
X276881Y110503D01*
X276597Y110621D01*
X276402Y110751D01*
X275787Y110873D01*
D02*
G37*
G36*
X300125Y111205D02*
X299425D01*
Y110505D01*
X299844Y110785D01*
X300125Y111205D01*
D02*
G37*
G36*
X297425D02*
X296726D01*
X297006Y110785D01*
X297425Y110505D01*
Y111205D01*
D02*
G37*
G36*
X378953Y109967D02*
Y109268D01*
X379652D01*
X379372Y109687D01*
X378953Y109967D01*
D02*
G37*
G36*
X376953D02*
X376534Y109687D01*
X376253Y109268D01*
X376953D01*
Y109967D01*
D02*
G37*
G36*
X337614D02*
Y109268D01*
X338314D01*
X338033Y109687D01*
X337614Y109967D01*
D02*
G37*
G36*
X335614D02*
X335195Y109687D01*
X334915Y109268D01*
X335614D01*
Y109967D01*
D02*
G37*
G36*
X4937D02*
Y109268D01*
X5636D01*
X5356Y109687D01*
X4937Y109967D01*
D02*
G37*
G36*
X2937D02*
X2518Y109687D01*
X2238Y109268D01*
X2937D01*
Y109967D01*
D02*
G37*
G36*
X379652Y107268D02*
X378953D01*
Y106568D01*
X379372Y106849D01*
X379652Y107268D01*
D02*
G37*
G36*
X376953D02*
X376253D01*
X376534Y106849D01*
X376953Y106568D01*
Y107268D01*
D02*
G37*
G36*
X338314D02*
X337614D01*
Y106568D01*
X338033Y106849D01*
X338314Y107268D01*
D02*
G37*
G36*
X335614D02*
X334915D01*
X335195Y106849D01*
X335614Y106568D01*
Y107268D01*
D02*
G37*
G36*
X5636D02*
X4937D01*
Y106568D01*
X5356Y106849D01*
X5636Y107268D01*
D02*
G37*
G36*
X2937D02*
X2238D01*
X2518Y106849D01*
X2937Y106568D01*
Y107268D01*
D02*
G37*
G36*
X378953Y104061D02*
Y103362D01*
X379652D01*
X379372Y103781D01*
X378953Y104061D01*
D02*
G37*
G36*
X376953D02*
X376534Y103781D01*
X376253Y103362D01*
X376953D01*
Y104061D01*
D02*
G37*
G36*
X333677D02*
Y103362D01*
X334377D01*
X334096Y103781D01*
X333677Y104061D01*
D02*
G37*
G36*
X331677D02*
X331258Y103781D01*
X330978Y103362D01*
X331677D01*
Y104061D01*
D02*
G37*
G36*
X4937D02*
Y103362D01*
X5636D01*
X5356Y103781D01*
X4937Y104061D01*
D02*
G37*
G36*
X2937D02*
X2518Y103781D01*
X2238Y103362D01*
X2937D01*
Y104061D01*
D02*
G37*
G36*
X178165Y103077D02*
Y102378D01*
X178865D01*
X178585Y102797D01*
X178165Y103077D01*
D02*
G37*
G36*
X176165D02*
X175746Y102797D01*
X175466Y102378D01*
X176165D01*
Y103077D01*
D02*
G37*
G36*
X242523Y117739D02*
X241855Y117651D01*
X241232Y117393D01*
X240698Y116983D01*
X240287Y116448D01*
X240030Y115825D01*
X239942Y115157D01*
X240030Y114489D01*
X240287Y113867D01*
X240698Y113332D01*
X241232Y112922D01*
X241469Y112824D01*
X241402Y112311D01*
X241143Y112277D01*
X240521Y112019D01*
X239986Y111609D01*
X239576Y111074D01*
X239318Y110452D01*
X239230Y109783D01*
X239318Y109116D01*
X239576Y108493D01*
X239986Y107958D01*
X240521Y107548D01*
X241143Y107290D01*
X241811Y107202D01*
X242479Y107290D01*
X243102Y107548D01*
X243636Y107958D01*
X243805Y108178D01*
X252741D01*
X258237Y102681D01*
Y99961D01*
X258017Y99792D01*
X257607Y99258D01*
X257349Y98635D01*
X257261Y97967D01*
X257349Y97299D01*
X257607Y96677D01*
X258017Y96142D01*
X258552Y95732D01*
X259174Y95474D01*
X259843Y95386D01*
X260511Y95474D01*
X261133Y95732D01*
X261668Y96142D01*
X262078Y96677D01*
X262336Y97299D01*
X262424Y97967D01*
X262336Y98635D01*
X262078Y99258D01*
X261668Y99792D01*
X261448Y99961D01*
Y103347D01*
X261326Y103961D01*
X260978Y104482D01*
X260978Y104482D01*
X254541Y110919D01*
X254020Y111267D01*
X253405Y111389D01*
X253405Y111389D01*
X243805D01*
X243636Y111609D01*
X243102Y112019D01*
X242865Y112117D01*
X242932Y112630D01*
X243191Y112664D01*
X243813Y112922D01*
X244348Y113332D01*
X244516Y113552D01*
X254256D01*
X264187Y103621D01*
X264151Y103347D01*
X264239Y102678D01*
X264497Y102056D01*
X264907Y101521D01*
X265442Y101111D01*
X266064Y100853D01*
X266732Y100765D01*
X267400Y100853D01*
X268023Y101111D01*
X268557Y101521D01*
X268968Y102056D01*
X269226Y102678D01*
X269313Y103347D01*
X269226Y104015D01*
X268968Y104637D01*
X268557Y105172D01*
X268023Y105582D01*
X267400Y105840D01*
X266863Y105910D01*
X266732Y105936D01*
X266413D01*
X256057Y116293D01*
X255536Y116641D01*
X254921Y116763D01*
X254921Y116763D01*
X244516D01*
X244348Y116983D01*
X243813Y117393D01*
X243191Y117651D01*
X242523Y117739D01*
D02*
G37*
G36*
X379652Y101362D02*
X378953D01*
Y100663D01*
X379372Y100943D01*
X379652Y101362D01*
D02*
G37*
G36*
X376953D02*
X376253D01*
X376534Y100943D01*
X376953Y100663D01*
Y101362D01*
D02*
G37*
G36*
X334377D02*
X333677D01*
Y100663D01*
X334096Y100943D01*
X334377Y101362D01*
D02*
G37*
G36*
X331677D02*
X330978D01*
X331258Y100943D01*
X331677Y100663D01*
Y101362D01*
D02*
G37*
G36*
X5636D02*
X4937D01*
Y100663D01*
X5356Y100943D01*
X5636Y101362D01*
D02*
G37*
G36*
X2937D02*
X2238D01*
X2518Y100943D01*
X2937Y100663D01*
Y101362D01*
D02*
G37*
G36*
X178865Y100378D02*
X178165D01*
Y99679D01*
X178585Y99959D01*
X178865Y100378D01*
D02*
G37*
G36*
X176165D02*
X175466D01*
X175746Y99959D01*
X176165Y99679D01*
Y100378D01*
D02*
G37*
G36*
X329740Y100125D02*
Y99425D01*
X330439D01*
X330159Y99844D01*
X329740Y100125D01*
D02*
G37*
G36*
X327740D02*
X327321Y99844D01*
X327041Y99425D01*
X327740D01*
Y100125D01*
D02*
G37*
G36*
X323835D02*
Y99425D01*
X324534D01*
X324254Y99844D01*
X323835Y100125D01*
D02*
G37*
G36*
X321835D02*
X321415Y99844D01*
X321135Y99425D01*
X321835D01*
Y100125D01*
D02*
G37*
G36*
X317929D02*
Y99425D01*
X318629D01*
X318348Y99844D01*
X317929Y100125D01*
D02*
G37*
G36*
X315929D02*
X315510Y99844D01*
X315230Y99425D01*
X315929D01*
Y100125D01*
D02*
G37*
G36*
X378953Y98156D02*
Y97457D01*
X379652D01*
X379372Y97876D01*
X378953Y98156D01*
D02*
G37*
G36*
X376953D02*
X376534Y97876D01*
X376253Y97457D01*
X376953D01*
Y98156D01*
D02*
G37*
G36*
X158480D02*
Y97457D01*
X159180D01*
X158899Y97876D01*
X158480Y98156D01*
D02*
G37*
G36*
X156480D02*
X156061Y97876D01*
X155781Y97457D01*
X156480D01*
Y98156D01*
D02*
G37*
G36*
X4937D02*
Y97457D01*
X5636D01*
X5356Y97876D01*
X4937Y98156D01*
D02*
G37*
G36*
X2937D02*
X2518Y97876D01*
X2238Y97457D01*
X2937D01*
Y98156D01*
D02*
G37*
G36*
X330439Y97425D02*
X329740D01*
Y96726D01*
X330159Y97006D01*
X330439Y97425D01*
D02*
G37*
G36*
X327740D02*
X327041D01*
X327321Y97006D01*
X327740Y96726D01*
Y97425D01*
D02*
G37*
G36*
X324534D02*
X323835D01*
Y96726D01*
X324254Y97006D01*
X324534Y97425D01*
D02*
G37*
G36*
X321835D02*
X321135D01*
X321415Y97006D01*
X321835Y96726D01*
Y97425D01*
D02*
G37*
G36*
X318629D02*
X317929D01*
Y96726D01*
X318348Y97006D01*
X318629Y97425D01*
D02*
G37*
G36*
X315929D02*
X315230D01*
X315510Y97006D01*
X315929Y96726D01*
Y97425D01*
D02*
G37*
G36*
X379652Y95457D02*
X378953D01*
Y94757D01*
X379372Y95038D01*
X379652Y95457D01*
D02*
G37*
G36*
X376953D02*
X376253D01*
X376534Y95038D01*
X376953Y94757D01*
Y95457D01*
D02*
G37*
G36*
X159180D02*
X158480D01*
Y94757D01*
X158899Y95038D01*
X159180Y95457D01*
D02*
G37*
G36*
X156480D02*
X155781D01*
X156061Y95038D01*
X156480Y94757D01*
Y95457D01*
D02*
G37*
G36*
X5636D02*
X4937D01*
Y94757D01*
X5356Y95038D01*
X5636Y95457D01*
D02*
G37*
G36*
X2937D02*
X2238D01*
X2518Y95038D01*
X2937Y94757D01*
Y95457D01*
D02*
G37*
G36*
X430134Y94219D02*
Y93520D01*
X430833D01*
X430553Y93939D01*
X430134Y94219D01*
D02*
G37*
G36*
X428134D02*
X427715Y93939D01*
X427434Y93520D01*
X428134D01*
Y94219D01*
D02*
G37*
G36*
X251969Y99038D02*
X251301Y98950D01*
X250678Y98692D01*
X250143Y98282D01*
X249733Y97747D01*
X249475Y97125D01*
X249387Y96457D01*
X249475Y95789D01*
X249733Y95166D01*
X250143Y94632D01*
X250678Y94221D01*
X251301Y93963D01*
X251680Y93914D01*
Y93050D01*
X251558Y92986D01*
X251180Y92918D01*
X250840Y93360D01*
X250306Y93771D01*
X249683Y94028D01*
X249015Y94116D01*
X248347Y94028D01*
X247725Y93771D01*
X247190Y93360D01*
X246780Y92826D01*
X246522Y92203D01*
X246434Y91535D01*
X246522Y90867D01*
X246780Y90245D01*
X247190Y89710D01*
X247725Y89300D01*
X248347Y89042D01*
X249015Y88954D01*
X249289Y88990D01*
X261659Y76621D01*
X262180Y76272D01*
X262795Y76150D01*
X262795Y76150D01*
X278012D01*
X278019Y76104D01*
X278276Y75481D01*
X278687Y74946D01*
X279221Y74536D01*
X279844Y74278D01*
X280512Y74190D01*
X281180Y74278D01*
X281802Y74536D01*
X282337Y74946D01*
X282747Y75481D01*
X283005Y76104D01*
X283093Y76772D01*
X283005Y77440D01*
X282747Y78062D01*
X282337Y78597D01*
X281802Y79007D01*
X281315Y79209D01*
X281205Y79599D01*
X281218Y79764D01*
X281353Y79868D01*
X281763Y80402D01*
X282021Y81025D01*
X282109Y81693D01*
X282021Y82361D01*
X281763Y82983D01*
X281353Y83518D01*
X280818Y83928D01*
X280196Y84186D01*
X279658Y84257D01*
X279528Y84283D01*
X279397Y84257D01*
X278859Y84186D01*
X278237Y83928D01*
X277702Y83518D01*
X277292Y82983D01*
X277101Y82521D01*
X276500Y81921D01*
X264520D01*
X254891Y91549D01*
Y94607D01*
X254769Y95221D01*
X254434Y95722D01*
X254462Y95789D01*
X254550Y96457D01*
X254462Y97125D01*
X254204Y97747D01*
X253794Y98282D01*
X253259Y98692D01*
X252637Y98950D01*
X251969Y99038D01*
D02*
G37*
G36*
X378953Y92251D02*
Y91551D01*
X379652D01*
X379372Y91970D01*
X378953Y92251D01*
D02*
G37*
G36*
X376953D02*
X376534Y91970D01*
X376253Y91551D01*
X376953D01*
Y92251D01*
D02*
G37*
G36*
X158480D02*
Y91551D01*
X159180D01*
X158899Y91970D01*
X158480Y92251D01*
D02*
G37*
G36*
X156480D02*
X156061Y91970D01*
X155781Y91551D01*
X156480D01*
Y92251D01*
D02*
G37*
G36*
X4937D02*
Y91551D01*
X5636D01*
X5356Y91970D01*
X4937Y92251D01*
D02*
G37*
G36*
X2937D02*
X2518Y91970D01*
X2238Y91551D01*
X2937D01*
Y92251D01*
D02*
G37*
G36*
X430833Y91520D02*
X430134D01*
Y90820D01*
X430553Y91101D01*
X430833Y91520D01*
D02*
G37*
G36*
X428134D02*
X427434D01*
X427715Y91101D01*
X428134Y90820D01*
Y91520D01*
D02*
G37*
G36*
X300213Y90282D02*
Y89583D01*
X300912D01*
X300632Y90002D01*
X300213Y90282D01*
D02*
G37*
G36*
X298213D02*
X297793Y90002D01*
X297513Y89583D01*
X298213D01*
Y90282D01*
D02*
G37*
G36*
X292339D02*
Y89583D01*
X293038D01*
X292758Y90002D01*
X292339Y90282D01*
D02*
G37*
G36*
X290339D02*
X289919Y90002D01*
X289639Y89583D01*
X290339D01*
Y90282D01*
D02*
G37*
G36*
X282496D02*
Y89583D01*
X283195D01*
X282915Y90002D01*
X282496Y90282D01*
D02*
G37*
G36*
X280496D02*
X280077Y90002D01*
X279797Y89583D01*
X280496D01*
Y90282D01*
D02*
G37*
G36*
X184071D02*
Y89583D01*
X184770D01*
X184490Y90002D01*
X184071Y90282D01*
D02*
G37*
G36*
X182071D02*
X181652Y90002D01*
X181372Y89583D01*
X182071D01*
Y90282D01*
D02*
G37*
G36*
X379652Y89551D02*
X378953D01*
Y88852D01*
X379372Y89132D01*
X379652Y89551D01*
D02*
G37*
G36*
X376953D02*
X376253D01*
X376534Y89132D01*
X376953Y88852D01*
Y89551D01*
D02*
G37*
G36*
X159180D02*
X158480D01*
Y88852D01*
X158899Y89132D01*
X159180Y89551D01*
D02*
G37*
G36*
X156480D02*
X155781D01*
X156061Y89132D01*
X156480Y88852D01*
Y89551D01*
D02*
G37*
G36*
X5636D02*
X4937D01*
Y88852D01*
X5356Y89132D01*
X5636Y89551D01*
D02*
G37*
G36*
X2937D02*
X2238D01*
X2518Y89132D01*
X2937Y88852D01*
Y89551D01*
D02*
G37*
G36*
X430134Y88314D02*
Y87614D01*
X430833D01*
X430553Y88033D01*
X430134Y88314D01*
D02*
G37*
G36*
X428134D02*
X427715Y88033D01*
X427434Y87614D01*
X428134D01*
Y88314D01*
D02*
G37*
G36*
X300912Y87583D02*
X300213D01*
Y86883D01*
X300632Y87164D01*
X300912Y87583D01*
D02*
G37*
G36*
X298213D02*
X297513D01*
X297793Y87164D01*
X298213Y86883D01*
Y87583D01*
D02*
G37*
G36*
X293038D02*
X292339D01*
Y86883D01*
X292758Y87164D01*
X293038Y87583D01*
D02*
G37*
G36*
X290339D02*
X289639D01*
X289919Y87164D01*
X290339Y86883D01*
Y87583D01*
D02*
G37*
G36*
X283195D02*
X282496D01*
Y86883D01*
X282915Y87164D01*
X283195Y87583D01*
D02*
G37*
G36*
X280496D02*
X279797D01*
X280077Y87164D01*
X280496Y86883D01*
Y87583D01*
D02*
G37*
G36*
X184770D02*
X184071D01*
Y86883D01*
X184490Y87164D01*
X184770Y87583D01*
D02*
G37*
G36*
X182071D02*
X181372D01*
X181652Y87164D01*
X182071Y86883D01*
Y87583D01*
D02*
G37*
G36*
X378953Y86345D02*
Y85646D01*
X379652D01*
X379372Y86065D01*
X378953Y86345D01*
D02*
G37*
G36*
X376953D02*
X376534Y86065D01*
X376253Y85646D01*
X376953D01*
Y86345D01*
D02*
G37*
G36*
X329740D02*
Y85646D01*
X330439D01*
X330159Y86065D01*
X329740Y86345D01*
D02*
G37*
G36*
X327740D02*
X327321Y86065D01*
X327041Y85646D01*
X327740D01*
Y86345D01*
D02*
G37*
G36*
X158480D02*
Y85646D01*
X159180D01*
X158899Y86065D01*
X158480Y86345D01*
D02*
G37*
G36*
X156480D02*
X156061Y86065D01*
X155781Y85646D01*
X156480D01*
Y86345D01*
D02*
G37*
G36*
X4937D02*
Y85646D01*
X5636D01*
X5356Y86065D01*
X4937Y86345D01*
D02*
G37*
G36*
X2937D02*
X2518Y86065D01*
X2238Y85646D01*
X2937D01*
Y86345D01*
D02*
G37*
G36*
X430833Y85614D02*
X430134D01*
Y84915D01*
X430553Y85195D01*
X430833Y85614D01*
D02*
G37*
G36*
X428134D02*
X427434D01*
X427715Y85195D01*
X428134Y84915D01*
Y85614D01*
D02*
G37*
G36*
X195669Y88605D02*
X195001Y88517D01*
X194378Y88259D01*
X193844Y87849D01*
X193434Y87314D01*
X193176Y86691D01*
X193088Y86023D01*
X193124Y85749D01*
X187841Y80466D01*
X187493Y79945D01*
X187371Y79331D01*
X187371Y79331D01*
Y77781D01*
X187151Y77613D01*
X186741Y77078D01*
X186483Y76455D01*
X186395Y75787D01*
X186483Y75119D01*
X186741Y74497D01*
X187151Y73962D01*
X187686Y73552D01*
X188308Y73294D01*
X188976Y73206D01*
X189644Y73294D01*
X190267Y73552D01*
X190802Y73962D01*
X191212Y74497D01*
X191470Y75119D01*
X191558Y75787D01*
X191470Y76455D01*
X191212Y77078D01*
X190802Y77613D01*
X190582Y77781D01*
Y78666D01*
X195395Y83478D01*
X195669Y83442D01*
X196337Y83530D01*
X196959Y83788D01*
X197494Y84198D01*
X197904Y84733D01*
X198162Y85355D01*
X198250Y86023D01*
X198162Y86691D01*
X197904Y87314D01*
X197494Y87849D01*
X196959Y88259D01*
X196337Y88517D01*
X195669Y88605D01*
D02*
G37*
G36*
X379652Y83646D02*
X378953D01*
Y82946D01*
X379372Y83227D01*
X379652Y83646D01*
D02*
G37*
G36*
X376953D02*
X376253D01*
X376534Y83227D01*
X376953Y82946D01*
Y83646D01*
D02*
G37*
G36*
X330439D02*
X329740D01*
Y82946D01*
X330159Y83227D01*
X330439Y83646D01*
D02*
G37*
G36*
X327740D02*
X327041D01*
X327321Y83227D01*
X327740Y82946D01*
Y83646D01*
D02*
G37*
G36*
X159180D02*
X158480D01*
Y82946D01*
X158899Y83227D01*
X159180Y83646D01*
D02*
G37*
G36*
X156480D02*
X155781D01*
X156061Y83227D01*
X156480Y82946D01*
Y83646D01*
D02*
G37*
G36*
X5636D02*
X4937D01*
Y82946D01*
X5356Y83227D01*
X5636Y83646D01*
D02*
G37*
G36*
X2937D02*
X2238D01*
X2518Y83227D01*
X2937Y82946D01*
Y83646D01*
D02*
G37*
G36*
X430134Y82408D02*
Y81709D01*
X430833D01*
X430553Y82128D01*
X430134Y82408D01*
D02*
G37*
G36*
X428134D02*
X427715Y82128D01*
X427434Y81709D01*
X428134D01*
Y82408D01*
D02*
G37*
G36*
X333677D02*
Y81709D01*
X334377D01*
X334096Y82128D01*
X333677Y82408D01*
D02*
G37*
G36*
X331677D02*
X331258Y82128D01*
X330978Y81709D01*
X331677D01*
Y82408D01*
D02*
G37*
G36*
X159449Y138435D02*
X7874D01*
X7422Y138247D01*
X7235Y137795D01*
Y113397D01*
X7300Y113238D01*
X7326Y113068D01*
X7391Y113020D01*
X7422Y112945D01*
X7581Y112879D01*
X7719Y112777D01*
X7829Y112529D01*
X7814Y112238D01*
X7456Y111057D01*
X7331Y109783D01*
X7456Y108510D01*
X7814Y107329D01*
X7829Y107038D01*
X7719Y106790D01*
X7581Y106688D01*
X7422Y106622D01*
X7391Y106547D01*
X7326Y106499D01*
X7300Y106329D01*
X7235Y106170D01*
Y82677D01*
X7422Y82225D01*
X7874Y82038D01*
X52537D01*
X52559Y82047D01*
X52625Y82009D01*
X52883Y81387D01*
X53293Y80852D01*
X53828Y80442D01*
X54450Y80184D01*
X54658Y80157D01*
X59140Y75675D01*
X59824Y75218D01*
X60630Y75058D01*
X61876D01*
X62028Y74558D01*
X61573Y74254D01*
X61293Y73835D01*
X64691D01*
X64411Y74254D01*
X63956Y74558D01*
X64108Y75058D01*
X67782D01*
X67933Y74558D01*
X67478Y74254D01*
X67198Y73835D01*
X70597D01*
X70317Y74254D01*
X69862Y74558D01*
X70013Y75058D01*
X73687D01*
X73839Y74558D01*
X73384Y74254D01*
X73104Y73835D01*
X76503D01*
X76222Y74254D01*
X75767Y74558D01*
X75919Y75058D01*
X111201D01*
X112007Y75218D01*
X112691Y75675D01*
X117589Y80573D01*
X118131Y80409D01*
X118225Y79941D01*
X118659Y79289D01*
X119079Y79009D01*
Y80709D01*
X120079D01*
Y81709D01*
X121912D01*
X122088Y82038D01*
X123975D01*
X124151Y81709D01*
X127818D01*
X127994Y82038D01*
X153543D01*
X153995Y82225D01*
X154183Y82677D01*
Y98160D01*
X155777Y99755D01*
X157480D01*
X157932Y99942D01*
X159901Y101910D01*
X160088Y102362D01*
Y108006D01*
X160011Y108192D01*
X159962Y108387D01*
X159920Y108412D01*
X159901Y108458D01*
X159715Y108535D01*
X159543Y108638D01*
X159098Y108704D01*
X159205Y109783D01*
X159098Y110863D01*
X159543Y110929D01*
X159715Y111032D01*
X159901Y111109D01*
X159920Y111155D01*
X159962Y111180D01*
X160011Y111375D01*
X160088Y111561D01*
X160088Y137795D01*
X159901Y138247D01*
X159449Y138435D01*
D02*
G37*
G36*
X378953Y80440D02*
Y79740D01*
X379652D01*
X379372Y80159D01*
X378953Y80440D01*
D02*
G37*
G36*
X376953D02*
X376534Y80159D01*
X376253Y79740D01*
X376953D01*
Y80440D01*
D02*
G37*
G36*
X4937D02*
Y79740D01*
X5636D01*
X5356Y80159D01*
X4937Y80440D01*
D02*
G37*
G36*
X2937D02*
X2518Y80159D01*
X2238Y79740D01*
X2937D01*
Y80440D01*
D02*
G37*
G36*
X430833Y79709D02*
X430134D01*
Y79009D01*
X430553Y79289D01*
X430833Y79709D01*
D02*
G37*
G36*
X428134D02*
X427434D01*
X427715Y79289D01*
X428134Y79009D01*
Y79709D01*
D02*
G37*
G36*
X334377D02*
X333677D01*
Y79009D01*
X334096Y79289D01*
X334377Y79709D01*
D02*
G37*
G36*
X331677D02*
X330978D01*
X331258Y79289D01*
X331677Y79009D01*
Y79709D01*
D02*
G37*
G36*
X127684D02*
X126984D01*
Y79009D01*
X127403Y79289D01*
X127684Y79709D01*
D02*
G37*
G36*
X124984D02*
X124285D01*
X124565Y79289D01*
X124984Y79009D01*
Y79709D01*
D02*
G37*
G36*
X121778D02*
X121079D01*
Y79009D01*
X121498Y79289D01*
X121778Y79709D01*
D02*
G37*
G36*
X337614Y78471D02*
Y77772D01*
X338314D01*
X338033Y78191D01*
X337614Y78471D01*
D02*
G37*
G36*
X335614D02*
X335195Y78191D01*
X334915Y77772D01*
X335614D01*
Y78471D01*
D02*
G37*
G36*
X379652Y77740D02*
X378953D01*
Y77041D01*
X379372Y77321D01*
X379652Y77740D01*
D02*
G37*
G36*
X376953D02*
X376253D01*
X376534Y77321D01*
X376953Y77041D01*
Y77740D01*
D02*
G37*
G36*
X5636D02*
X4937D01*
Y77041D01*
X5356Y77321D01*
X5636Y77740D01*
D02*
G37*
G36*
X2937D02*
X2238D01*
X2518Y77321D01*
X2937Y77041D01*
Y77740D01*
D02*
G37*
G36*
X382890Y76503D02*
Y75803D01*
X383589D01*
X383309Y76222D01*
X382890Y76503D01*
D02*
G37*
G36*
X380890D02*
X380471Y76222D01*
X380190Y75803D01*
X380890D01*
Y76503D01*
D02*
G37*
G36*
X338314Y75772D02*
X337614D01*
Y75072D01*
X338033Y75352D01*
X338314Y75772D01*
D02*
G37*
G36*
X335614D02*
X334915D01*
X335195Y75352D01*
X335614Y75072D01*
Y75772D01*
D02*
G37*
G36*
X341551Y74534D02*
Y73835D01*
X342250D01*
X341970Y74254D01*
X341551Y74534D01*
D02*
G37*
G36*
X339551D02*
X339132Y74254D01*
X338852Y73835D01*
X339551D01*
Y74534D01*
D02*
G37*
G36*
X300213D02*
Y73835D01*
X300912D01*
X300632Y74254D01*
X300213Y74534D01*
D02*
G37*
G36*
X298213D02*
X297793Y74254D01*
X297513Y73835D01*
X298213D01*
Y74534D01*
D02*
G37*
G36*
X288402D02*
Y73835D01*
X289101D01*
X288821Y74254D01*
X288402Y74534D01*
D02*
G37*
G36*
X286402D02*
X285982Y74254D01*
X285702Y73835D01*
X286402D01*
Y74534D01*
D02*
G37*
G36*
X58087D02*
Y73835D01*
X58786D01*
X58506Y74254D01*
X58087Y74534D01*
D02*
G37*
G36*
X56087D02*
X55667Y74254D01*
X55387Y73835D01*
X56087D01*
Y74534D01*
D02*
G37*
G36*
X52181D02*
Y73835D01*
X52880D01*
X52600Y74254D01*
X52181Y74534D01*
D02*
G37*
G36*
X50181D02*
X49762Y74254D01*
X49482Y73835D01*
X50181D01*
Y74534D01*
D02*
G37*
G36*
X46276D02*
Y73835D01*
X46975D01*
X46695Y74254D01*
X46276Y74534D01*
D02*
G37*
G36*
X44276D02*
X43856Y74254D01*
X43576Y73835D01*
X44276D01*
Y74534D01*
D02*
G37*
G36*
X40370D02*
Y73835D01*
X41069D01*
X40789Y74254D01*
X40370Y74534D01*
D02*
G37*
G36*
X38370D02*
X37951Y74254D01*
X37671Y73835D01*
X38370D01*
Y74534D01*
D02*
G37*
G36*
X383589Y73803D02*
X382890D01*
Y73104D01*
X383309Y73384D01*
X383589Y73803D01*
D02*
G37*
G36*
X380890D02*
X380190D01*
X380471Y73384D01*
X380890Y73104D01*
Y73803D01*
D02*
G37*
G36*
X386827Y72566D02*
Y71866D01*
X387526D01*
X387246Y72285D01*
X386827Y72566D01*
D02*
G37*
G36*
X384827D02*
X384408Y72285D01*
X384127Y71866D01*
X384827D01*
Y72566D01*
D02*
G37*
G36*
X342250Y71835D02*
X341551D01*
Y71135D01*
X341970Y71415D01*
X342250Y71835D01*
D02*
G37*
G36*
X339551D02*
X338852D01*
X339132Y71415D01*
X339551Y71135D01*
Y71835D01*
D02*
G37*
G36*
X300912D02*
X300213D01*
Y71135D01*
X300632Y71415D01*
X300912Y71835D01*
D02*
G37*
G36*
X298213D02*
X297513D01*
X297793Y71415D01*
X298213Y71135D01*
Y71835D01*
D02*
G37*
G36*
X289101D02*
X288402D01*
Y71135D01*
X288821Y71415D01*
X289101Y71835D01*
D02*
G37*
G36*
X286402D02*
X285702D01*
X285982Y71415D01*
X286402Y71135D01*
Y71835D01*
D02*
G37*
G36*
X76503D02*
X75803D01*
Y71135D01*
X76222Y71415D01*
X76503Y71835D01*
D02*
G37*
G36*
X73803D02*
X73104D01*
X73384Y71415D01*
X73803Y71135D01*
Y71835D01*
D02*
G37*
G36*
X70597D02*
X69898D01*
Y71135D01*
X70317Y71415D01*
X70597Y71835D01*
D02*
G37*
G36*
X67898D02*
X67198D01*
X67478Y71415D01*
X67898Y71135D01*
Y71835D01*
D02*
G37*
G36*
X64691D02*
X63992D01*
Y71135D01*
X64411Y71415D01*
X64691Y71835D01*
D02*
G37*
G36*
X61992D02*
X61293D01*
X61573Y71415D01*
X61992Y71135D01*
Y71835D01*
D02*
G37*
G36*
X58786D02*
X58087D01*
Y71135D01*
X58506Y71415D01*
X58786Y71835D01*
D02*
G37*
G36*
X56087D02*
X55387D01*
X55667Y71415D01*
X56087Y71135D01*
Y71835D01*
D02*
G37*
G36*
X52880D02*
X52181D01*
Y71135D01*
X52600Y71415D01*
X52880Y71835D01*
D02*
G37*
G36*
X50181D02*
X49482D01*
X49762Y71415D01*
X50181Y71135D01*
Y71835D01*
D02*
G37*
G36*
X46975D02*
X46276D01*
Y71135D01*
X46695Y71415D01*
X46975Y71835D01*
D02*
G37*
G36*
X44276D02*
X43576D01*
X43856Y71415D01*
X44276Y71135D01*
Y71835D01*
D02*
G37*
G36*
X41069D02*
X40370D01*
Y71135D01*
X40789Y71415D01*
X41069Y71835D01*
D02*
G37*
G36*
X38370D02*
X37671D01*
X37951Y71415D01*
X38370Y71135D01*
Y71835D01*
D02*
G37*
G36*
X351394Y70597D02*
Y69898D01*
X352093D01*
X351813Y70317D01*
X351394Y70597D01*
D02*
G37*
G36*
X349394D02*
X348974Y70317D01*
X348694Y69898D01*
X349394D01*
Y70597D01*
D02*
G37*
G36*
X345488D02*
Y69898D01*
X346187D01*
X345907Y70317D01*
X345488Y70597D01*
D02*
G37*
G36*
X343488D02*
X343069Y70317D01*
X342789Y69898D01*
X343488D01*
Y70597D01*
D02*
G37*
G36*
X176197D02*
Y69898D01*
X176896D01*
X176616Y70317D01*
X176197Y70597D01*
D02*
G37*
G36*
X174197D02*
X173778Y70317D01*
X173497Y69898D01*
X174197D01*
Y70597D01*
D02*
G37*
G36*
X168323D02*
Y69898D01*
X169022D01*
X168742Y70317D01*
X168323Y70597D01*
D02*
G37*
G36*
X166323D02*
X165904Y70317D01*
X165623Y69898D01*
X166323D01*
Y70597D01*
D02*
G37*
G36*
X387526Y69866D02*
X386827D01*
Y69167D01*
X387246Y69447D01*
X387526Y69866D01*
D02*
G37*
G36*
X384827D02*
X384127D01*
X384408Y69447D01*
X384827Y69167D01*
Y69866D01*
D02*
G37*
G36*
X390764Y68628D02*
Y67929D01*
X391463D01*
X391183Y68348D01*
X390764Y68628D01*
D02*
G37*
G36*
X388764D02*
X388345Y68348D01*
X388065Y67929D01*
X388764D01*
Y68628D01*
D02*
G37*
G36*
X382890D02*
Y67929D01*
X383589D01*
X383309Y68348D01*
X382890Y68628D01*
D02*
G37*
G36*
X380890D02*
X380471Y68348D01*
X380190Y67929D01*
X380890D01*
Y68628D01*
D02*
G37*
G36*
X352093Y67898D02*
X351394D01*
Y67198D01*
X351813Y67478D01*
X352093Y67898D01*
D02*
G37*
G36*
X349394D02*
X348694D01*
X348974Y67478D01*
X349394Y67198D01*
Y67898D01*
D02*
G37*
G36*
X346187D02*
X345488D01*
Y67198D01*
X345907Y67478D01*
X346187Y67898D01*
D02*
G37*
G36*
X343488D02*
X342789D01*
X343069Y67478D01*
X343488Y67198D01*
Y67898D01*
D02*
G37*
G36*
X176896D02*
X176197D01*
Y67198D01*
X176616Y67478D01*
X176896Y67898D01*
D02*
G37*
G36*
X174197D02*
X173497D01*
X173778Y67478D01*
X174197Y67198D01*
Y67898D01*
D02*
G37*
G36*
X169022D02*
X168323D01*
Y67198D01*
X168742Y67478D01*
X169022Y67898D01*
D02*
G37*
G36*
X166323D02*
X165623D01*
X165904Y67478D01*
X166323Y67198D01*
Y67898D01*
D02*
G37*
G36*
X304150Y66660D02*
Y65961D01*
X304849D01*
X304569Y66380D01*
X304150Y66660D01*
D02*
G37*
G36*
X302150D02*
X301730Y66380D01*
X301450Y65961D01*
X302150D01*
Y66660D01*
D02*
G37*
G36*
X276590D02*
Y65961D01*
X277290D01*
X277010Y66380D01*
X276590Y66660D01*
D02*
G37*
G36*
X274590D02*
X274171Y66380D01*
X273891Y65961D01*
X274590D01*
Y66660D01*
D02*
G37*
G36*
X391463Y65929D02*
X390764D01*
Y65230D01*
X391183Y65510D01*
X391463Y65929D01*
D02*
G37*
G36*
X388764D02*
X388065D01*
X388345Y65510D01*
X388764Y65230D01*
Y65929D01*
D02*
G37*
G36*
X383589D02*
X382890D01*
Y65230D01*
X383309Y65510D01*
X383589Y65929D01*
D02*
G37*
G36*
X380890D02*
X380190D01*
X380471Y65510D01*
X380890Y65230D01*
Y65929D01*
D02*
G37*
G36*
X378953Y64691D02*
Y63992D01*
X379652D01*
X379372Y64411D01*
X378953Y64691D01*
D02*
G37*
G36*
X376953D02*
X376534Y64411D01*
X376253Y63992D01*
X376953D01*
Y64691D01*
D02*
G37*
G36*
X373047D02*
Y63992D01*
X373747D01*
X373466Y64411D01*
X373047Y64691D01*
D02*
G37*
G36*
X371047D02*
X370628Y64411D01*
X370348Y63992D01*
X371047D01*
Y64691D01*
D02*
G37*
G36*
X367142D02*
Y63992D01*
X367841D01*
X367561Y64411D01*
X367142Y64691D01*
D02*
G37*
G36*
X365142D02*
X364722Y64411D01*
X364442Y63992D01*
X365142D01*
Y64691D01*
D02*
G37*
G36*
X361236D02*
Y63992D01*
X361935D01*
X361655Y64411D01*
X361236Y64691D01*
D02*
G37*
G36*
X359236D02*
X358817Y64411D01*
X358537Y63992D01*
X359236D01*
Y64691D01*
D02*
G37*
G36*
X329740D02*
Y63992D01*
X330439D01*
X330159Y64411D01*
X329740Y64691D01*
D02*
G37*
G36*
X327740D02*
X327321Y64411D01*
X327041Y63992D01*
X327740D01*
Y64691D01*
D02*
G37*
G36*
X199819D02*
Y63992D01*
X200518D01*
X200238Y64411D01*
X199819Y64691D01*
D02*
G37*
G36*
X197819D02*
X197400Y64411D01*
X197120Y63992D01*
X197819D01*
Y64691D01*
D02*
G37*
G36*
X193913D02*
Y63992D01*
X194613D01*
X194333Y64411D01*
X193913Y64691D01*
D02*
G37*
G36*
X191913D02*
X191494Y64411D01*
X191214Y63992D01*
X191913D01*
Y64691D01*
D02*
G37*
G36*
X304849Y63961D02*
X304150D01*
Y63261D01*
X304569Y63541D01*
X304849Y63961D01*
D02*
G37*
G36*
X302150D02*
X301450D01*
X301730Y63541D01*
X302150Y63261D01*
Y63961D01*
D02*
G37*
G36*
X277290D02*
X276590D01*
Y63261D01*
X277010Y63541D01*
X277290Y63961D01*
D02*
G37*
G36*
X274590D02*
X273891D01*
X274171Y63541D01*
X274590Y63261D01*
Y63961D01*
D02*
G37*
G36*
X186024Y63605D02*
X185356Y63517D01*
X184733Y63259D01*
X184198Y62849D01*
X184030Y62629D01*
X178175D01*
X178006Y62849D01*
X177472Y63259D01*
X176849Y63517D01*
X176181Y63605D01*
X175513Y63517D01*
X174890Y63259D01*
X174356Y62849D01*
X173946Y62314D01*
X173688Y61692D01*
X173600Y61024D01*
X173688Y60356D01*
X173946Y59733D01*
X174356Y59198D01*
X174890Y58788D01*
X175513Y58530D01*
X176181Y58442D01*
X176849Y58530D01*
X177472Y58788D01*
X178006Y59198D01*
X178175Y59418D01*
X184030D01*
X184198Y59198D01*
X184733Y58788D01*
X185356Y58530D01*
X186024Y58442D01*
X186692Y58530D01*
X187314Y58788D01*
X187849Y59198D01*
X188259Y59733D01*
X188517Y60356D01*
X188605Y61024D01*
X188517Y61692D01*
X188259Y62314D01*
X187849Y62849D01*
X187314Y63259D01*
X186692Y63517D01*
X186024Y63605D01*
D02*
G37*
G36*
X354331D02*
X353663Y63517D01*
X353040Y63259D01*
X352506Y62849D01*
X352270Y62542D01*
X351830Y62629D01*
X351830Y62629D01*
X348451D01*
X348282Y62849D01*
X347748Y63259D01*
X347125Y63517D01*
X346457Y63605D01*
X345789Y63517D01*
X345167Y63259D01*
X344632Y62849D01*
X344222Y62314D01*
X343964Y61692D01*
X343876Y61024D01*
X343964Y60356D01*
X344222Y59733D01*
X344632Y59198D01*
X345167Y58788D01*
X345789Y58530D01*
X346457Y58442D01*
X347125Y58530D01*
X347748Y58788D01*
X348282Y59198D01*
X348451Y59418D01*
X351164D01*
X351678Y58904D01*
X352199Y58556D01*
X352814Y58434D01*
X353428Y58556D01*
X353494Y58600D01*
X353663Y58530D01*
X354331Y58442D01*
X354999Y58530D01*
X355621Y58788D01*
X356156Y59198D01*
X356566Y59733D01*
X356824Y60356D01*
X356912Y61024D01*
X356824Y61692D01*
X356566Y62314D01*
X356156Y62849D01*
X355621Y63259D01*
X354999Y63517D01*
X354331Y63605D01*
D02*
G37*
G36*
X390764Y62723D02*
Y62024D01*
X391463D01*
X391183Y62443D01*
X390764Y62723D01*
D02*
G37*
G36*
X388764D02*
X388345Y62443D01*
X388065Y62024D01*
X388764D01*
Y62723D01*
D02*
G37*
G36*
X168323D02*
Y62024D01*
X169022D01*
X168742Y62443D01*
X168323Y62723D01*
D02*
G37*
G36*
X166323D02*
X165904Y62443D01*
X165623Y62024D01*
X166323D01*
Y62723D01*
D02*
G37*
G36*
X379652Y61992D02*
X378953D01*
Y61293D01*
X379372Y61573D01*
X379652Y61992D01*
D02*
G37*
G36*
X376953D02*
X376253D01*
X376534Y61573D01*
X376953Y61293D01*
Y61992D01*
D02*
G37*
G36*
X373747D02*
X373047D01*
Y61293D01*
X373466Y61573D01*
X373747Y61992D01*
D02*
G37*
G36*
X371047D02*
X370348D01*
X370628Y61573D01*
X371047Y61293D01*
Y61992D01*
D02*
G37*
G36*
X367841D02*
X367142D01*
Y61293D01*
X367561Y61573D01*
X367841Y61992D01*
D02*
G37*
G36*
X365142D02*
X364442D01*
X364722Y61573D01*
X365142Y61293D01*
Y61992D01*
D02*
G37*
G36*
X361935D02*
X361236D01*
Y61293D01*
X361655Y61573D01*
X361935Y61992D01*
D02*
G37*
G36*
X359236D02*
X358537D01*
X358817Y61573D01*
X359236Y61293D01*
Y61992D01*
D02*
G37*
G36*
X330439D02*
X329740D01*
Y61293D01*
X330159Y61573D01*
X330439Y61992D01*
D02*
G37*
G36*
X327740D02*
X327041D01*
X327321Y61573D01*
X327740Y61293D01*
Y61992D01*
D02*
G37*
G36*
X200518D02*
X199819D01*
Y61293D01*
X200238Y61573D01*
X200518Y61992D01*
D02*
G37*
G36*
X197819D02*
X197120D01*
X197400Y61573D01*
X197819Y61293D01*
Y61992D01*
D02*
G37*
G36*
X194613D02*
X193913D01*
Y61293D01*
X194333Y61573D01*
X194613Y61992D01*
D02*
G37*
G36*
X191913D02*
X191214D01*
X191494Y61573D01*
X191913Y61293D01*
Y61992D01*
D02*
G37*
G36*
X152575Y60754D02*
Y60055D01*
X153274D01*
X152994Y60474D01*
X152575Y60754D01*
D02*
G37*
G36*
X150575D02*
X150156Y60474D01*
X149875Y60055D01*
X150575D01*
Y60754D01*
D02*
G37*
G36*
X169022Y60024D02*
X168323D01*
Y59324D01*
X168742Y59604D01*
X169022Y60024D01*
D02*
G37*
G36*
X166323D02*
X165623D01*
X165904Y59604D01*
X166323Y59324D01*
Y60024D01*
D02*
G37*
G36*
X391463D02*
X390764D01*
Y59324D01*
X391183Y59604D01*
X391463Y60024D01*
D02*
G37*
G36*
X388764D02*
X388065D01*
X388345Y59604D01*
X388764Y59324D01*
Y60024D01*
D02*
G37*
G36*
X315961Y58786D02*
Y58087D01*
X316660D01*
X316380Y58506D01*
X315961Y58786D01*
D02*
G37*
G36*
X313961D02*
X313541Y58506D01*
X313261Y58087D01*
X313961D01*
Y58786D01*
D02*
G37*
G36*
X225410D02*
Y58087D01*
X226109D01*
X225829Y58506D01*
X225410Y58786D01*
D02*
G37*
G36*
X223410D02*
X222990Y58506D01*
X222710Y58087D01*
X223410D01*
Y58786D01*
D02*
G37*
G36*
X219504D02*
Y58087D01*
X220203D01*
X219923Y58506D01*
X219504Y58786D01*
D02*
G37*
G36*
X217504D02*
X217085Y58506D01*
X216805Y58087D01*
X217504D01*
Y58786D01*
D02*
G37*
G36*
X213598D02*
Y58087D01*
X214298D01*
X214018Y58506D01*
X213598Y58786D01*
D02*
G37*
G36*
X211598D02*
X211179Y58506D01*
X210899Y58087D01*
X211598D01*
Y58786D01*
D02*
G37*
G36*
X153274Y58055D02*
X152575D01*
Y57356D01*
X152994Y57636D01*
X153274Y58055D01*
D02*
G37*
G36*
X150575D02*
X149875D01*
X150156Y57636D01*
X150575Y57356D01*
Y58055D01*
D02*
G37*
G36*
X390764Y56817D02*
Y56118D01*
X391463D01*
X391183Y56537D01*
X390764Y56817D01*
D02*
G37*
G36*
X388764D02*
X388345Y56537D01*
X388065Y56118D01*
X388764D01*
Y56817D01*
D02*
G37*
G36*
X316660Y56087D02*
X315961D01*
Y55387D01*
X316380Y55667D01*
X316660Y56087D01*
D02*
G37*
G36*
X313961D02*
X313261D01*
X313541Y55667D01*
X313961Y55387D01*
Y56087D01*
D02*
G37*
G36*
X226109D02*
X225410D01*
Y55387D01*
X225829Y55667D01*
X226109Y56087D01*
D02*
G37*
G36*
X223410D02*
X222710D01*
X222990Y55667D01*
X223410Y55387D01*
Y56087D01*
D02*
G37*
G36*
X220203D02*
X219504D01*
Y55387D01*
X219923Y55667D01*
X220203Y56087D01*
D02*
G37*
G36*
X217504D02*
X216805D01*
X217085Y55667D01*
X217504Y55387D01*
Y56087D01*
D02*
G37*
G36*
X214298D02*
X213598D01*
Y55387D01*
X214018Y55667D01*
X214298Y56087D01*
D02*
G37*
G36*
X211598D02*
X210899D01*
X211179Y55667D01*
X211598Y55387D01*
Y56087D01*
D02*
G37*
G36*
X95488Y54849D02*
Y54150D01*
X96188D01*
X95907Y54569D01*
X95488Y54849D01*
D02*
G37*
G36*
X93488D02*
X93069Y54569D01*
X92789Y54150D01*
X93488D01*
Y54849D01*
D02*
G37*
G36*
X89583D02*
Y54150D01*
X90282D01*
X90002Y54569D01*
X89583Y54849D01*
D02*
G37*
G36*
X87583D02*
X87164Y54569D01*
X86883Y54150D01*
X87583D01*
Y54849D01*
D02*
G37*
G36*
X83677D02*
Y54150D01*
X84377D01*
X84096Y54569D01*
X83677Y54849D01*
D02*
G37*
G36*
X81677D02*
X81258Y54569D01*
X80978Y54150D01*
X81677D01*
Y54849D01*
D02*
G37*
G36*
X391463Y54118D02*
X390764D01*
Y53419D01*
X391183Y53699D01*
X391463Y54118D01*
D02*
G37*
G36*
X388764D02*
X388065D01*
X388345Y53699D01*
X388764Y53419D01*
Y54118D01*
D02*
G37*
G36*
X247063Y52880D02*
Y52181D01*
X247762D01*
X247482Y52600D01*
X247063Y52880D01*
D02*
G37*
G36*
X245063D02*
X244644Y52600D01*
X244364Y52181D01*
X245063D01*
Y52880D01*
D02*
G37*
G36*
X96188Y52150D02*
X95488D01*
Y51450D01*
X95907Y51730D01*
X96188Y52150D01*
D02*
G37*
G36*
X93488D02*
X92789D01*
X93069Y51730D01*
X93488Y51450D01*
Y52150D01*
D02*
G37*
G36*
X90282D02*
X89583D01*
Y51450D01*
X90002Y51730D01*
X90282Y52150D01*
D02*
G37*
G36*
X87583D02*
X86883D01*
X87164Y51730D01*
X87583Y51450D01*
Y52150D01*
D02*
G37*
G36*
X84377D02*
X83677D01*
Y51450D01*
X84096Y51730D01*
X84377Y52150D01*
D02*
G37*
G36*
X81677D02*
X80978D01*
X81258Y51730D01*
X81677Y51450D01*
Y52150D01*
D02*
G37*
G36*
X390764Y50912D02*
Y50213D01*
X391463D01*
X391183Y50632D01*
X390764Y50912D01*
D02*
G37*
G36*
X388764D02*
X388345Y50632D01*
X388065Y50213D01*
X388764D01*
Y50912D01*
D02*
G37*
G36*
X79740D02*
Y50213D01*
X80440D01*
X80159Y50632D01*
X79740Y50912D01*
D02*
G37*
G36*
X77740D02*
X77321Y50632D01*
X77041Y50213D01*
X77740D01*
Y50912D01*
D02*
G37*
G36*
X60055Y54070D02*
Y49642D01*
X64483D01*
X64425Y50081D01*
X63870Y51421D01*
X62986Y52573D01*
X61835Y53456D01*
X60494Y54012D01*
X60055Y54070D01*
D02*
G37*
G36*
X58055D02*
X57616Y54012D01*
X56275Y53456D01*
X55124Y52573D01*
X54241Y51421D01*
X53685Y50081D01*
X53627Y49642D01*
X58055D01*
Y54070D01*
D02*
G37*
G36*
X247762Y50181D02*
X247063D01*
Y49482D01*
X247482Y49762D01*
X247762Y50181D01*
D02*
G37*
G36*
X245063D02*
X244364D01*
X244644Y49762D01*
X245063Y49482D01*
Y50181D01*
D02*
G37*
G36*
X391463Y48213D02*
X390764D01*
Y47513D01*
X391183Y47793D01*
X391463Y48213D01*
D02*
G37*
G36*
X388764D02*
X388065D01*
X388345Y47793D01*
X388764Y47513D01*
Y48213D01*
D02*
G37*
G36*
X80440D02*
X79740D01*
Y47513D01*
X80159Y47793D01*
X80440Y48213D01*
D02*
G37*
G36*
X77740D02*
X77041D01*
X77321Y47793D01*
X77740Y47513D01*
Y48213D01*
D02*
G37*
G36*
X394701Y46975D02*
Y46276D01*
X395400D01*
X395120Y46695D01*
X394701Y46975D01*
D02*
G37*
G36*
X392701D02*
X392282Y46695D01*
X392002Y46276D01*
X392701D01*
Y46975D01*
D02*
G37*
G36*
X325803D02*
Y46276D01*
X326502D01*
X326222Y46695D01*
X325803Y46975D01*
D02*
G37*
G36*
X323803D02*
X323384Y46695D01*
X323104Y46276D01*
X323803D01*
Y46975D01*
D02*
G37*
G36*
X317929D02*
Y46276D01*
X318629D01*
X318348Y46695D01*
X317929Y46975D01*
D02*
G37*
G36*
X315929D02*
X315510Y46695D01*
X315230Y46276D01*
X315929D01*
Y46975D01*
D02*
G37*
G36*
X168323D02*
Y46276D01*
X169022D01*
X168742Y46695D01*
X168323Y46975D01*
D02*
G37*
G36*
X166323D02*
X165904Y46695D01*
X165623Y46276D01*
X166323D01*
Y46975D01*
D02*
G37*
G36*
X123047D02*
Y46276D01*
X123747D01*
X123467Y46695D01*
X123047Y46975D01*
D02*
G37*
G36*
X121047D02*
X120628Y46695D01*
X120348Y46276D01*
X121047D01*
Y46975D01*
D02*
G37*
G36*
X254937Y45006D02*
Y44307D01*
X255636D01*
X255356Y44726D01*
X254937Y45006D01*
D02*
G37*
G36*
X252937D02*
X252518Y44726D01*
X252238Y44307D01*
X252937D01*
Y45006D01*
D02*
G37*
G36*
X210355Y44613D02*
Y43913D01*
X211054D01*
X210774Y44333D01*
X210355Y44613D01*
D02*
G37*
G36*
X208355D02*
X207936Y44333D01*
X207656Y43913D01*
X208355D01*
Y44613D01*
D02*
G37*
G36*
X395400Y44276D02*
X394701D01*
Y43576D01*
X395120Y43856D01*
X395400Y44276D01*
D02*
G37*
G36*
X392701D02*
X392002D01*
X392282Y43856D01*
X392701Y43576D01*
Y44276D01*
D02*
G37*
G36*
X326502D02*
X325803D01*
Y43576D01*
X326222Y43856D01*
X326502Y44276D01*
D02*
G37*
G36*
X323803D02*
X323104D01*
X323384Y43856D01*
X323803Y43576D01*
Y44276D01*
D02*
G37*
G36*
X318629D02*
X317929D01*
Y43576D01*
X318348Y43856D01*
X318629Y44276D01*
D02*
G37*
G36*
X315929D02*
X315230D01*
X315510Y43856D01*
X315929Y43576D01*
Y44276D01*
D02*
G37*
G36*
X169022D02*
X168323D01*
Y43576D01*
X168742Y43856D01*
X169022Y44276D01*
D02*
G37*
G36*
X166323D02*
X165623D01*
X165904Y43856D01*
X166323Y43576D01*
Y44276D01*
D02*
G37*
G36*
X123747D02*
X123047D01*
Y43576D01*
X123467Y43856D01*
X123747Y44276D01*
D02*
G37*
G36*
X121047D02*
X120348D01*
X120628Y43856D01*
X121047Y43576D01*
Y44276D01*
D02*
G37*
G36*
X64483Y47642D02*
X60055D01*
Y43214D01*
X60494Y43272D01*
X61835Y43827D01*
X62986Y44711D01*
X63870Y45862D01*
X64425Y47203D01*
X64483Y47642D01*
D02*
G37*
G36*
X58055D02*
X53627D01*
X53685Y47203D01*
X54241Y45862D01*
X55124Y44711D01*
X56275Y43827D01*
X57616Y43272D01*
X58055Y43214D01*
Y47642D01*
D02*
G37*
G36*
X398638Y43038D02*
Y42339D01*
X399337D01*
X399057Y42758D01*
X398638Y43038D01*
D02*
G37*
G36*
X396638D02*
X396219Y42758D01*
X395938Y42339D01*
X396638D01*
Y43038D01*
D02*
G37*
G36*
X255636Y42307D02*
X254937D01*
Y41608D01*
X255356Y41888D01*
X255636Y42307D01*
D02*
G37*
G36*
X252937D02*
X252238D01*
X252518Y41888D01*
X252937Y41608D01*
Y42307D01*
D02*
G37*
G36*
X211054Y41913D02*
X210355D01*
Y41214D01*
X210774Y41494D01*
X211054Y41913D01*
D02*
G37*
G36*
X208355D02*
X207656D01*
X207936Y41494D01*
X208355Y41214D01*
Y41913D01*
D02*
G37*
G36*
X109268Y41069D02*
Y40370D01*
X109967D01*
X109687Y40789D01*
X109268Y41069D01*
D02*
G37*
G36*
X107268D02*
X106849Y40789D01*
X106568Y40370D01*
X107268D01*
Y41069D01*
D02*
G37*
G36*
X399337Y40339D02*
X398638D01*
Y39639D01*
X399057Y39919D01*
X399337Y40339D01*
D02*
G37*
G36*
X396638D02*
X395938D01*
X396219Y39919D01*
X396638Y39639D01*
Y40339D01*
D02*
G37*
G36*
X402575Y39101D02*
Y38402D01*
X403274D01*
X402994Y38821D01*
X402575Y39101D01*
D02*
G37*
G36*
X400575D02*
X400156Y38821D01*
X399875Y38402D01*
X400575D01*
Y39101D01*
D02*
G37*
G36*
X109967Y38370D02*
X109268D01*
Y37671D01*
X109687Y37951D01*
X109967Y38370D01*
D02*
G37*
G36*
X107268D02*
X106568D01*
X106849Y37951D01*
X107268Y37671D01*
Y38370D01*
D02*
G37*
G36*
X262811Y37132D02*
Y36433D01*
X263510D01*
X263230Y36852D01*
X262811Y37132D01*
D02*
G37*
G36*
X260811D02*
X260392Y36852D01*
X260112Y36433D01*
X260811D01*
Y37132D01*
D02*
G37*
G36*
X20685D02*
Y36433D01*
X21384D01*
X21104Y36852D01*
X20685Y37132D01*
D02*
G37*
G36*
X18685D02*
X18266Y36852D01*
X17986Y36433D01*
X18685D01*
Y37132D01*
D02*
G37*
G36*
X403274Y36402D02*
X402575D01*
Y35702D01*
X402994Y35982D01*
X403274Y36402D01*
D02*
G37*
G36*
X400575D02*
X399875D01*
X400156Y35982D01*
X400575Y35702D01*
Y36402D01*
D02*
G37*
G36*
X168323Y35164D02*
Y34465D01*
X169022D01*
X168742Y34884D01*
X168323Y35164D01*
D02*
G37*
G36*
X166323D02*
X165904Y34884D01*
X165623Y34465D01*
X166323D01*
Y35164D01*
D02*
G37*
G36*
X263510Y34433D02*
X262811D01*
Y33734D01*
X263230Y34014D01*
X263510Y34433D01*
D02*
G37*
G36*
X260811D02*
X260112D01*
X260392Y34014D01*
X260811Y33734D01*
Y34433D01*
D02*
G37*
G36*
X21384D02*
X20685D01*
Y33734D01*
X21104Y34014D01*
X21384Y34433D01*
D02*
G37*
G36*
X18685D02*
X17986D01*
X18266Y34014D01*
X18685Y33734D01*
Y34433D01*
D02*
G37*
G36*
X404543Y33195D02*
Y32496D01*
X405243D01*
X404962Y32915D01*
X404543Y33195D01*
D02*
G37*
G36*
X402543D02*
X402124Y32915D01*
X401844Y32496D01*
X402543D01*
Y33195D01*
D02*
G37*
G36*
X150606D02*
Y32496D01*
X151306D01*
X151025Y32915D01*
X150606Y33195D01*
D02*
G37*
G36*
X148606D02*
X148187Y32915D01*
X147907Y32496D01*
X148606D01*
Y33195D01*
D02*
G37*
G36*
X24622D02*
Y32496D01*
X25321D01*
X25041Y32915D01*
X24622Y33195D01*
D02*
G37*
G36*
X22622D02*
X22203Y32915D01*
X21923Y32496D01*
X22622D01*
Y33195D01*
D02*
G37*
G36*
X169022Y32465D02*
X168323D01*
Y31765D01*
X168742Y32045D01*
X169022Y32465D01*
D02*
G37*
G36*
X166323D02*
X165623D01*
X165904Y32045D01*
X166323Y31765D01*
Y32465D01*
D02*
G37*
G36*
X405243Y30496D02*
X404543D01*
Y29797D01*
X404962Y30077D01*
X405243Y30496D01*
D02*
G37*
G36*
X402543D02*
X401844D01*
X402124Y30077D01*
X402543Y29797D01*
Y30496D01*
D02*
G37*
G36*
X151306D02*
X150606D01*
Y29797D01*
X151025Y30077D01*
X151306Y30496D01*
D02*
G37*
G36*
X148606D02*
X147907D01*
X148187Y30077D01*
X148606Y29797D01*
Y30496D01*
D02*
G37*
G36*
X25321D02*
X24622D01*
Y29797D01*
X25041Y30077D01*
X25321Y30496D01*
D02*
G37*
G36*
X22622D02*
X21923D01*
X22203Y30077D01*
X22622Y29797D01*
Y30496D01*
D02*
G37*
G36*
X270685Y29258D02*
Y28559D01*
X271384D01*
X271104Y28978D01*
X270685Y29258D01*
D02*
G37*
G36*
X268685D02*
X268266Y28978D01*
X267986Y28559D01*
X268685D01*
Y29258D01*
D02*
G37*
G36*
X231315D02*
Y28559D01*
X232014D01*
X231734Y28978D01*
X231315Y29258D01*
D02*
G37*
G36*
X229315D02*
X228896Y28978D01*
X228616Y28559D01*
X229315D01*
Y29258D01*
D02*
G37*
G36*
X28559D02*
Y28559D01*
X29258D01*
X28978Y28978D01*
X28559Y29258D01*
D02*
G37*
G36*
X26559D02*
X26140Y28978D01*
X25860Y28559D01*
X26559D01*
Y29258D01*
D02*
G37*
G36*
X207299Y30459D02*
Y27024D01*
X210734D01*
X210710Y27206D01*
X210254Y28307D01*
X209528Y29253D01*
X208582Y29978D01*
X207481Y30435D01*
X207299Y30459D01*
D02*
G37*
G36*
X205299D02*
X205117Y30435D01*
X204016Y29978D01*
X203070Y29253D01*
X202344Y28307D01*
X201888Y27206D01*
X201864Y27024D01*
X205299D01*
Y30459D01*
D02*
G37*
G36*
X404543Y27290D02*
Y26591D01*
X405243D01*
X404962Y27010D01*
X404543Y27290D01*
D02*
G37*
G36*
X402543D02*
X402124Y27010D01*
X401844Y26591D01*
X402543D01*
Y27290D01*
D02*
G37*
G36*
X271384Y26559D02*
X270685D01*
Y25860D01*
X271104Y26140D01*
X271384Y26559D01*
D02*
G37*
G36*
X268685D02*
X267986D01*
X268266Y26140D01*
X268685Y25860D01*
Y26559D01*
D02*
G37*
G36*
X232014D02*
X231315D01*
Y25860D01*
X231734Y26140D01*
X232014Y26559D01*
D02*
G37*
G36*
X229315D02*
X228616D01*
X228896Y26140D01*
X229315Y25860D01*
Y26559D01*
D02*
G37*
G36*
X29258D02*
X28559D01*
Y25860D01*
X28978Y26140D01*
X29258Y26559D01*
D02*
G37*
G36*
X26559D02*
X25860D01*
X26140Y26140D01*
X26559Y25860D01*
Y26559D01*
D02*
G37*
G36*
X109268Y25321D02*
Y24622D01*
X109967D01*
X109687Y25041D01*
X109268Y25321D01*
D02*
G37*
G36*
X107268D02*
X106849Y25041D01*
X106568Y24622D01*
X107268D01*
Y25321D01*
D02*
G37*
G36*
X32496D02*
Y24622D01*
X33195D01*
X32915Y25041D01*
X32496Y25321D01*
D02*
G37*
G36*
X30496D02*
X30077Y25041D01*
X29797Y24622D01*
X30496D01*
Y25321D01*
D02*
G37*
G36*
X405243Y24590D02*
X404543D01*
Y23891D01*
X404962Y24171D01*
X405243Y24590D01*
D02*
G37*
G36*
X402543D02*
X401844D01*
X402124Y24171D01*
X402543Y23891D01*
Y24590D01*
D02*
G37*
G36*
X64567Y34154D02*
X53543D01*
Y23130D01*
X64567D01*
Y34154D01*
D02*
G37*
G36*
X367457Y27239D02*
Y22811D01*
X371885D01*
X371827Y23250D01*
X371272Y24591D01*
X370388Y25742D01*
X369237Y26626D01*
X367896Y27181D01*
X367457Y27239D01*
D02*
G37*
G36*
X365457D02*
X365018Y27181D01*
X363678Y26626D01*
X362526Y25742D01*
X361643Y24591D01*
X361087Y23250D01*
X361030Y22811D01*
X365457D01*
Y27239D01*
D02*
G37*
G36*
X312339D02*
Y22811D01*
X316767D01*
X316709Y23250D01*
X316154Y24591D01*
X315270Y25742D01*
X314119Y26626D01*
X312778Y27181D01*
X312339Y27239D01*
D02*
G37*
G36*
X310339D02*
X309900Y27181D01*
X308559Y26626D01*
X307408Y25742D01*
X306524Y24591D01*
X305969Y23250D01*
X305911Y22811D01*
X310339D01*
Y27239D01*
D02*
G37*
G36*
X400606Y23353D02*
Y22654D01*
X401306D01*
X401025Y23073D01*
X400606Y23353D01*
D02*
G37*
G36*
X398606D02*
X398187Y23073D01*
X397907Y22654D01*
X398606D01*
Y23353D01*
D02*
G37*
G36*
X109967Y22622D02*
X109268D01*
Y21923D01*
X109687Y22203D01*
X109967Y22622D01*
D02*
G37*
G36*
X107268D02*
X106568D01*
X106849Y22203D01*
X107268Y21923D01*
Y22622D01*
D02*
G37*
G36*
X33195D02*
X32496D01*
Y21923D01*
X32915Y22203D01*
X33195Y22622D01*
D02*
G37*
G36*
X30496D02*
X29797D01*
X30077Y22203D01*
X30496Y21923D01*
Y22622D01*
D02*
G37*
G36*
X210734Y25024D02*
X207299D01*
Y21589D01*
X207481Y21613D01*
X208582Y22069D01*
X209528Y22794D01*
X210254Y23740D01*
X210710Y24842D01*
X210734Y25024D01*
D02*
G37*
G36*
X205299D02*
X201864D01*
X201888Y24842D01*
X202344Y23740D01*
X203070Y22794D01*
X204016Y22069D01*
X205117Y21613D01*
X205299Y21589D01*
Y25024D01*
D02*
G37*
G36*
X224606Y30551D02*
X215551D01*
Y21496D01*
X224606D01*
Y30551D01*
D02*
G37*
G36*
X192520Y30590D02*
X191338Y30435D01*
X190236Y29978D01*
X189291Y29253D01*
X188565Y28307D01*
X188109Y27206D01*
X187953Y26024D01*
X188109Y24842D01*
X188565Y23740D01*
X189291Y22794D01*
X190236Y22069D01*
X191338Y21613D01*
X192520Y21457D01*
X193702Y21613D01*
X194803Y22069D01*
X195749Y22794D01*
X196475Y23740D01*
X196931Y24842D01*
X197086Y26024D01*
X196931Y27206D01*
X196475Y28307D01*
X195749Y29253D01*
X194803Y29978D01*
X193702Y30435D01*
X192520Y30590D01*
D02*
G37*
G36*
X36433Y21384D02*
Y20685D01*
X37132D01*
X36852Y21104D01*
X36433Y21384D01*
D02*
G37*
G36*
X34433D02*
X34014Y21104D01*
X33734Y20685D01*
X34433D01*
Y21384D01*
D02*
G37*
G36*
X401306Y20653D02*
X400606D01*
Y19954D01*
X401025Y20234D01*
X401306Y20653D01*
D02*
G37*
G36*
X398606D02*
X397907D01*
X398187Y20234D01*
X398606Y19954D01*
Y20653D01*
D02*
G37*
G36*
X252811Y21655D02*
Y18717D01*
X255750D01*
X255743Y18770D01*
X255336Y19752D01*
X254689Y20595D01*
X253846Y21241D01*
X252865Y21648D01*
X252811Y21655D01*
D02*
G37*
G36*
X250811D02*
X250758Y21648D01*
X249776Y21241D01*
X248933Y20595D01*
X248286Y19752D01*
X247880Y18770D01*
X247872Y18717D01*
X250811D01*
Y21655D01*
D02*
G37*
G36*
X396669Y19416D02*
Y18717D01*
X397369D01*
X397089Y19136D01*
X396669Y19416D01*
D02*
G37*
G36*
X394669D02*
X394250Y19136D01*
X393970Y18717D01*
X394669D01*
Y19416D01*
D02*
G37*
G36*
X150606D02*
Y18717D01*
X151306D01*
X151025Y19136D01*
X150606Y19416D01*
D02*
G37*
G36*
X148606D02*
X148187Y19136D01*
X147907Y18717D01*
X148606D01*
Y19416D01*
D02*
G37*
G36*
X37132Y18685D02*
X36433D01*
Y17986D01*
X36852Y18266D01*
X37132Y18685D01*
D02*
G37*
G36*
X34433D02*
X33734D01*
X34014Y18266D01*
X34433Y17986D01*
Y18685D01*
D02*
G37*
G36*
X164386Y17447D02*
Y16748D01*
X165085D01*
X164805Y17167D01*
X164386Y17447D01*
D02*
G37*
G36*
X162386D02*
X161967Y17167D01*
X161687Y16748D01*
X162386D01*
Y17447D01*
D02*
G37*
G36*
X40370D02*
Y16748D01*
X41069D01*
X40789Y17167D01*
X40370Y17447D01*
D02*
G37*
G36*
X38370D02*
X37951Y17167D01*
X37671Y16748D01*
X38370D01*
Y17447D01*
D02*
G37*
G36*
X371885Y20811D02*
X367457D01*
Y16383D01*
X367896Y16441D01*
X369237Y16996D01*
X370388Y17880D01*
X371272Y19031D01*
X371827Y20372D01*
X371885Y20811D01*
D02*
G37*
G36*
X365457D02*
X361030D01*
X361087Y20372D01*
X361643Y19031D01*
X362526Y17880D01*
X363678Y16996D01*
X365018Y16441D01*
X365457Y16383D01*
Y20811D01*
D02*
G37*
G36*
X316767D02*
X312339D01*
Y16383D01*
X312778Y16441D01*
X314119Y16996D01*
X315270Y17880D01*
X316154Y19031D01*
X316709Y20372D01*
X316767Y20811D01*
D02*
G37*
G36*
X310339D02*
X305911D01*
X305969Y20372D01*
X306524Y19031D01*
X307408Y17880D01*
X308559Y16996D01*
X309900Y16441D01*
X310339Y16383D01*
Y20811D01*
D02*
G37*
G36*
X351969Y27323D02*
X340945D01*
Y16299D01*
X351969D01*
Y27323D01*
D02*
G37*
G36*
X296851D02*
X285827D01*
Y16299D01*
X296851D01*
Y27323D01*
D02*
G37*
G36*
X397369Y16716D02*
X396669D01*
Y16017D01*
X397089Y16297D01*
X397369Y16716D01*
D02*
G37*
G36*
X394669D02*
X393970D01*
X394250Y16297D01*
X394669Y16017D01*
Y16716D01*
D02*
G37*
G36*
X151306D02*
X150606D01*
Y16017D01*
X151025Y16297D01*
X151306Y16716D01*
D02*
G37*
G36*
X148606D02*
X147907D01*
X148187Y16297D01*
X148606Y16017D01*
Y16716D01*
D02*
G37*
G36*
X392732Y15479D02*
Y14780D01*
X393432D01*
X393151Y15199D01*
X392732Y15479D01*
D02*
G37*
G36*
X390732D02*
X390313Y15199D01*
X390033Y14780D01*
X390732D01*
Y15479D01*
D02*
G37*
G36*
X165085Y14748D02*
X164386D01*
Y14049D01*
X164805Y14329D01*
X165085Y14748D01*
D02*
G37*
G36*
X162386D02*
X161687D01*
X161967Y14329D01*
X162386Y14049D01*
Y14748D01*
D02*
G37*
G36*
X41069D02*
X40370D01*
Y14049D01*
X40789Y14329D01*
X41069Y14748D01*
D02*
G37*
G36*
X38370D02*
X37671D01*
X37951Y14329D01*
X38370Y14049D01*
Y14748D01*
D02*
G37*
G36*
X255750Y16717D02*
X252811D01*
Y13778D01*
X252865Y13785D01*
X253846Y14192D01*
X254689Y14839D01*
X255336Y15682D01*
X255743Y16663D01*
X255750Y16717D01*
D02*
G37*
G36*
X250811D02*
X247872D01*
X247880Y16663D01*
X248286Y15682D01*
X248933Y14839D01*
X249776Y14192D01*
X250758Y13785D01*
X250811Y13778D01*
Y16717D01*
D02*
G37*
G36*
X265846Y21752D02*
X257776D01*
Y13681D01*
X265846D01*
Y21752D01*
D02*
G37*
G36*
X241811Y21787D02*
X240758Y21648D01*
X239776Y21241D01*
X238933Y20595D01*
X238286Y19752D01*
X237880Y18770D01*
X237741Y17717D01*
X237880Y16663D01*
X238286Y15682D01*
X238933Y14839D01*
X239776Y14192D01*
X240758Y13785D01*
X241811Y13646D01*
X242865Y13785D01*
X243846Y14192D01*
X244689Y14839D01*
X245336Y15682D01*
X245743Y16663D01*
X245881Y17717D01*
X245743Y18770D01*
X245336Y19752D01*
X244689Y20595D01*
X243846Y21241D01*
X242865Y21648D01*
X241811Y21787D01*
D02*
G37*
G36*
X44307Y13510D02*
Y12811D01*
X45006D01*
X44726Y13230D01*
X44307Y13510D01*
D02*
G37*
G36*
X42307D02*
X41888Y13230D01*
X41608Y12811D01*
X42307D01*
Y13510D01*
D02*
G37*
G36*
X393432Y12779D02*
X392732D01*
Y12080D01*
X393151Y12360D01*
X393432Y12779D01*
D02*
G37*
G36*
X390732D02*
X390033D01*
X390313Y12360D01*
X390732Y12080D01*
Y12779D01*
D02*
G37*
G36*
X207299Y15459D02*
Y12024D01*
X210734D01*
X210710Y12206D01*
X210254Y13307D01*
X209528Y14253D01*
X208582Y14978D01*
X207481Y15435D01*
X207299Y15459D01*
D02*
G37*
G36*
X205299D02*
X205117Y15435D01*
X204016Y14978D01*
X203070Y14253D01*
X202344Y13307D01*
X201888Y12206D01*
X201864Y12024D01*
X205299D01*
Y15459D01*
D02*
G37*
G36*
X388795Y11542D02*
Y10842D01*
X389495D01*
X389214Y11262D01*
X388795Y11542D01*
D02*
G37*
G36*
X386795D02*
X386376Y11262D01*
X386096Y10842D01*
X386795D01*
Y11542D01*
D02*
G37*
G36*
X45006Y10811D02*
X44307D01*
Y10112D01*
X44726Y10392D01*
X45006Y10811D01*
D02*
G37*
G36*
X42307D02*
X41608D01*
X41888Y10392D01*
X42307Y10112D01*
Y10811D01*
D02*
G37*
G36*
X48244Y9573D02*
Y8874D01*
X48943D01*
X48663Y9293D01*
X48244Y9573D01*
D02*
G37*
G36*
X46244D02*
X45825Y9293D01*
X45545Y8874D01*
X46244D01*
Y9573D01*
D02*
G37*
G36*
X389495Y8843D02*
X388795D01*
Y8143D01*
X389214Y8423D01*
X389495Y8843D01*
D02*
G37*
G36*
X386795D02*
X386096D01*
X386376Y8423D01*
X386795Y8143D01*
Y8843D01*
D02*
G37*
G36*
X384858Y7605D02*
Y6905D01*
X385558D01*
X385278Y7325D01*
X384858Y7605D01*
D02*
G37*
G36*
X382858D02*
X382439Y7325D01*
X382159Y6905D01*
X382858D01*
Y7605D01*
D02*
G37*
G36*
X210734Y10024D02*
X207299D01*
Y6589D01*
X207481Y6613D01*
X208582Y7069D01*
X209528Y7795D01*
X210254Y8740D01*
X210710Y9842D01*
X210734Y10024D01*
D02*
G37*
G36*
X205299D02*
X201864D01*
X201888Y9842D01*
X202344Y8740D01*
X203070Y7795D01*
X204016Y7069D01*
X205117Y6613D01*
X205299Y6589D01*
Y10024D01*
D02*
G37*
G36*
X224606Y15551D02*
X215551D01*
Y6496D01*
X224606D01*
Y15551D01*
D02*
G37*
G36*
X192520Y15590D02*
X191338Y15435D01*
X190236Y14978D01*
X189291Y14253D01*
X188565Y13307D01*
X188109Y12206D01*
X187953Y11024D01*
X188109Y9842D01*
X188565Y8740D01*
X189291Y7795D01*
X190236Y7069D01*
X191338Y6613D01*
X192520Y6457D01*
X193702Y6613D01*
X194803Y7069D01*
X195749Y7795D01*
X196475Y8740D01*
X196931Y9842D01*
X197086Y11024D01*
X196931Y12206D01*
X196475Y13307D01*
X195749Y14253D01*
X194803Y14978D01*
X193702Y15435D01*
X192520Y15590D01*
D02*
G37*
G36*
X48943Y6874D02*
X48244D01*
Y6175D01*
X48663Y6455D01*
X48943Y6874D01*
D02*
G37*
G36*
X46244D02*
X45545D01*
X45825Y6455D01*
X46244Y6175D01*
Y6874D01*
D02*
G37*
G36*
X378953Y5636D02*
Y4937D01*
X379652D01*
X379372Y5356D01*
X378953Y5636D01*
D02*
G37*
G36*
X376953D02*
X376534Y5356D01*
X376253Y4937D01*
X376953D01*
Y5636D01*
D02*
G37*
G36*
X373047D02*
Y4937D01*
X373747D01*
X373466Y5356D01*
X373047Y5636D01*
D02*
G37*
G36*
X371047D02*
X370628Y5356D01*
X370348Y4937D01*
X371047D01*
Y5636D01*
D02*
G37*
G36*
X367142D02*
Y4937D01*
X367841D01*
X367561Y5356D01*
X367142Y5636D01*
D02*
G37*
G36*
X365142D02*
X364722Y5356D01*
X364442Y4937D01*
X365142D01*
Y5636D01*
D02*
G37*
G36*
X361236D02*
Y4937D01*
X361935D01*
X361655Y5356D01*
X361236Y5636D01*
D02*
G37*
G36*
X359236D02*
X358817Y5356D01*
X358537Y4937D01*
X359236D01*
Y5636D01*
D02*
G37*
G36*
X355331D02*
Y4937D01*
X356030D01*
X355750Y5356D01*
X355331Y5636D01*
D02*
G37*
G36*
X353331D02*
X352911Y5356D01*
X352631Y4937D01*
X353331D01*
Y5636D01*
D02*
G37*
G36*
X349425D02*
Y4937D01*
X350125D01*
X349844Y5356D01*
X349425Y5636D01*
D02*
G37*
G36*
X347425D02*
X347006Y5356D01*
X346726Y4937D01*
X347425D01*
Y5636D01*
D02*
G37*
G36*
X343520D02*
Y4937D01*
X344219D01*
X343939Y5356D01*
X343520Y5636D01*
D02*
G37*
G36*
X341520D02*
X341101Y5356D01*
X340820Y4937D01*
X341520D01*
Y5636D01*
D02*
G37*
G36*
X337614D02*
Y4937D01*
X338314D01*
X338033Y5356D01*
X337614Y5636D01*
D02*
G37*
G36*
X335614D02*
X335195Y5356D01*
X334915Y4937D01*
X335614D01*
Y5636D01*
D02*
G37*
G36*
X331709D02*
Y4937D01*
X332408D01*
X332128Y5356D01*
X331709Y5636D01*
D02*
G37*
G36*
X329709D02*
X329289Y5356D01*
X329009Y4937D01*
X329709D01*
Y5636D01*
D02*
G37*
G36*
X325803D02*
Y4937D01*
X326502D01*
X326222Y5356D01*
X325803Y5636D01*
D02*
G37*
G36*
X323803D02*
X323384Y5356D01*
X323104Y4937D01*
X323803D01*
Y5636D01*
D02*
G37*
G36*
X319898D02*
Y4937D01*
X320597D01*
X320317Y5356D01*
X319898Y5636D01*
D02*
G37*
G36*
X317898D02*
X317478Y5356D01*
X317198Y4937D01*
X317898D01*
Y5636D01*
D02*
G37*
G36*
X313992D02*
Y4937D01*
X314691D01*
X314411Y5356D01*
X313992Y5636D01*
D02*
G37*
G36*
X311992D02*
X311573Y5356D01*
X311293Y4937D01*
X311992D01*
Y5636D01*
D02*
G37*
G36*
X308087D02*
Y4937D01*
X308786D01*
X308506Y5356D01*
X308087Y5636D01*
D02*
G37*
G36*
X306087D02*
X305667Y5356D01*
X305387Y4937D01*
X306087D01*
Y5636D01*
D02*
G37*
G36*
X302181D02*
Y4937D01*
X302880D01*
X302600Y5356D01*
X302181Y5636D01*
D02*
G37*
G36*
X300181D02*
X299762Y5356D01*
X299482Y4937D01*
X300181D01*
Y5636D01*
D02*
G37*
G36*
X296276D02*
Y4937D01*
X296975D01*
X296695Y5356D01*
X296276Y5636D01*
D02*
G37*
G36*
X294276D02*
X293856Y5356D01*
X293576Y4937D01*
X294276D01*
Y5636D01*
D02*
G37*
G36*
X290370D02*
Y4937D01*
X291069D01*
X290789Y5356D01*
X290370Y5636D01*
D02*
G37*
G36*
X288370D02*
X287951Y5356D01*
X287671Y4937D01*
X288370D01*
Y5636D01*
D02*
G37*
G36*
X284465D02*
Y4937D01*
X285164D01*
X284884Y5356D01*
X284465Y5636D01*
D02*
G37*
G36*
X282465D02*
X282045Y5356D01*
X281765Y4937D01*
X282465D01*
Y5636D01*
D02*
G37*
G36*
X278559D02*
Y4937D01*
X279258D01*
X278978Y5356D01*
X278559Y5636D01*
D02*
G37*
G36*
X276559D02*
X276140Y5356D01*
X275860Y4937D01*
X276559D01*
Y5636D01*
D02*
G37*
G36*
X272654D02*
Y4937D01*
X273353D01*
X273073Y5356D01*
X272654Y5636D01*
D02*
G37*
G36*
X270654D02*
X270234Y5356D01*
X269954Y4937D01*
X270654D01*
Y5636D01*
D02*
G37*
G36*
X266748D02*
Y4937D01*
X267447D01*
X267167Y5356D01*
X266748Y5636D01*
D02*
G37*
G36*
X264748D02*
X264329Y5356D01*
X264049Y4937D01*
X264748D01*
Y5636D01*
D02*
G37*
G36*
X260842D02*
Y4937D01*
X261542D01*
X261262Y5356D01*
X260842Y5636D01*
D02*
G37*
G36*
X258842D02*
X258423Y5356D01*
X258143Y4937D01*
X258842D01*
Y5636D01*
D02*
G37*
G36*
X254937D02*
Y4937D01*
X255636D01*
X255356Y5356D01*
X254937Y5636D01*
D02*
G37*
G36*
X252937D02*
X252518Y5356D01*
X252238Y4937D01*
X252937D01*
Y5636D01*
D02*
G37*
G36*
X249031D02*
Y4937D01*
X249731D01*
X249451Y5356D01*
X249031Y5636D01*
D02*
G37*
G36*
X247031D02*
X246612Y5356D01*
X246332Y4937D01*
X247031D01*
Y5636D01*
D02*
G37*
G36*
X243126D02*
Y4937D01*
X243825D01*
X243545Y5356D01*
X243126Y5636D01*
D02*
G37*
G36*
X241126D02*
X240707Y5356D01*
X240427Y4937D01*
X241126D01*
Y5636D01*
D02*
G37*
G36*
X237221D02*
Y4937D01*
X237920D01*
X237640Y5356D01*
X237221Y5636D01*
D02*
G37*
G36*
X235221D02*
X234801Y5356D01*
X234521Y4937D01*
X235221D01*
Y5636D01*
D02*
G37*
G36*
X231315D02*
Y4937D01*
X232014D01*
X231734Y5356D01*
X231315Y5636D01*
D02*
G37*
G36*
X229315D02*
X228896Y5356D01*
X228616Y4937D01*
X229315D01*
Y5636D01*
D02*
G37*
G36*
X225410D02*
Y4937D01*
X226109D01*
X225829Y5356D01*
X225410Y5636D01*
D02*
G37*
G36*
X223410D02*
X222990Y5356D01*
X222710Y4937D01*
X223410D01*
Y5636D01*
D02*
G37*
G36*
X219504D02*
Y4937D01*
X220203D01*
X219923Y5356D01*
X219504Y5636D01*
D02*
G37*
G36*
X217504D02*
X217085Y5356D01*
X216805Y4937D01*
X217504D01*
Y5636D01*
D02*
G37*
G36*
X213598D02*
Y4937D01*
X214298D01*
X214018Y5356D01*
X213598Y5636D01*
D02*
G37*
G36*
X211598D02*
X211179Y5356D01*
X210899Y4937D01*
X211598D01*
Y5636D01*
D02*
G37*
G36*
X207693D02*
Y4937D01*
X208392D01*
X208112Y5356D01*
X207693Y5636D01*
D02*
G37*
G36*
X205693D02*
X205274Y5356D01*
X204994Y4937D01*
X205693D01*
Y5636D01*
D02*
G37*
G36*
X201787D02*
Y4937D01*
X202487D01*
X202207Y5356D01*
X201787Y5636D01*
D02*
G37*
G36*
X199787D02*
X199368Y5356D01*
X199088Y4937D01*
X199787D01*
Y5636D01*
D02*
G37*
G36*
X195882D02*
Y4937D01*
X196581D01*
X196301Y5356D01*
X195882Y5636D01*
D02*
G37*
G36*
X193882D02*
X193463Y5356D01*
X193183Y4937D01*
X193882D01*
Y5636D01*
D02*
G37*
G36*
X189976D02*
Y4937D01*
X190676D01*
X190396Y5356D01*
X189976Y5636D01*
D02*
G37*
G36*
X187976D02*
X187557Y5356D01*
X187277Y4937D01*
X187976D01*
Y5636D01*
D02*
G37*
G36*
X184071D02*
Y4937D01*
X184770D01*
X184490Y5356D01*
X184071Y5636D01*
D02*
G37*
G36*
X182071D02*
X181652Y5356D01*
X181372Y4937D01*
X182071D01*
Y5636D01*
D02*
G37*
G36*
X178165D02*
Y4937D01*
X178865D01*
X178585Y5356D01*
X178165Y5636D01*
D02*
G37*
G36*
X176165D02*
X175746Y5356D01*
X175466Y4937D01*
X176165D01*
Y5636D01*
D02*
G37*
G36*
X172260D02*
Y4937D01*
X172959D01*
X172679Y5356D01*
X172260Y5636D01*
D02*
G37*
G36*
X170260D02*
X169841Y5356D01*
X169561Y4937D01*
X170260D01*
Y5636D01*
D02*
G37*
G36*
X166354D02*
Y4937D01*
X167054D01*
X166773Y5356D01*
X166354Y5636D01*
D02*
G37*
G36*
X164354D02*
X163935Y5356D01*
X163655Y4937D01*
X164354D01*
Y5636D01*
D02*
G37*
G36*
X160449D02*
Y4937D01*
X161148D01*
X160868Y5356D01*
X160449Y5636D01*
D02*
G37*
G36*
X158449D02*
X158030Y5356D01*
X157749Y4937D01*
X158449D01*
Y5636D01*
D02*
G37*
G36*
X154543D02*
Y4937D01*
X155243D01*
X154963Y5356D01*
X154543Y5636D01*
D02*
G37*
G36*
X152543D02*
X152124Y5356D01*
X151844Y4937D01*
X152543D01*
Y5636D01*
D02*
G37*
G36*
X148638D02*
Y4937D01*
X149337D01*
X149057Y5356D01*
X148638Y5636D01*
D02*
G37*
G36*
X146638D02*
X146219Y5356D01*
X145939Y4937D01*
X146638D01*
Y5636D01*
D02*
G37*
G36*
X142732D02*
Y4937D01*
X143432D01*
X143151Y5356D01*
X142732Y5636D01*
D02*
G37*
G36*
X140732D02*
X140313Y5356D01*
X140033Y4937D01*
X140732D01*
Y5636D01*
D02*
G37*
G36*
X136827D02*
Y4937D01*
X137526D01*
X137246Y5356D01*
X136827Y5636D01*
D02*
G37*
G36*
X134827D02*
X134408Y5356D01*
X134127Y4937D01*
X134827D01*
Y5636D01*
D02*
G37*
G36*
X130921D02*
Y4937D01*
X131621D01*
X131341Y5356D01*
X130921Y5636D01*
D02*
G37*
G36*
X128921D02*
X128502Y5356D01*
X128222Y4937D01*
X128921D01*
Y5636D01*
D02*
G37*
G36*
X125016D02*
Y4937D01*
X125715D01*
X125435Y5356D01*
X125016Y5636D01*
D02*
G37*
G36*
X123016D02*
X122597Y5356D01*
X122316Y4937D01*
X123016D01*
Y5636D01*
D02*
G37*
G36*
X119110D02*
Y4937D01*
X119810D01*
X119529Y5356D01*
X119110Y5636D01*
D02*
G37*
G36*
X117110D02*
X116691Y5356D01*
X116411Y4937D01*
X117110D01*
Y5636D01*
D02*
G37*
G36*
X113205D02*
Y4937D01*
X113904D01*
X113624Y5356D01*
X113205Y5636D01*
D02*
G37*
G36*
X111205D02*
X110785Y5356D01*
X110505Y4937D01*
X111205D01*
Y5636D01*
D02*
G37*
G36*
X107299D02*
Y4937D01*
X107999D01*
X107718Y5356D01*
X107299Y5636D01*
D02*
G37*
G36*
X105299D02*
X104880Y5356D01*
X104600Y4937D01*
X105299D01*
Y5636D01*
D02*
G37*
G36*
X101394D02*
Y4937D01*
X102093D01*
X101813Y5356D01*
X101394Y5636D01*
D02*
G37*
G36*
X99394D02*
X98975Y5356D01*
X98694Y4937D01*
X99394D01*
Y5636D01*
D02*
G37*
G36*
X95488D02*
Y4937D01*
X96188D01*
X95907Y5356D01*
X95488Y5636D01*
D02*
G37*
G36*
X93488D02*
X93069Y5356D01*
X92789Y4937D01*
X93488D01*
Y5636D01*
D02*
G37*
G36*
X89583D02*
Y4937D01*
X90282D01*
X90002Y5356D01*
X89583Y5636D01*
D02*
G37*
G36*
X87583D02*
X87164Y5356D01*
X86883Y4937D01*
X87583D01*
Y5636D01*
D02*
G37*
G36*
X83677D02*
Y4937D01*
X84377D01*
X84096Y5356D01*
X83677Y5636D01*
D02*
G37*
G36*
X81677D02*
X81258Y5356D01*
X80978Y4937D01*
X81677D01*
Y5636D01*
D02*
G37*
G36*
X77772D02*
Y4937D01*
X78471D01*
X78191Y5356D01*
X77772Y5636D01*
D02*
G37*
G36*
X75772D02*
X75352Y5356D01*
X75072Y4937D01*
X75772D01*
Y5636D01*
D02*
G37*
G36*
X71866D02*
Y4937D01*
X72566D01*
X72285Y5356D01*
X71866Y5636D01*
D02*
G37*
G36*
X69866D02*
X69447Y5356D01*
X69167Y4937D01*
X69866D01*
Y5636D01*
D02*
G37*
G36*
X65961D02*
Y4937D01*
X66660D01*
X66380Y5356D01*
X65961Y5636D01*
D02*
G37*
G36*
X63961D02*
X63541Y5356D01*
X63261Y4937D01*
X63961D01*
Y5636D01*
D02*
G37*
G36*
X60055D02*
Y4937D01*
X60754D01*
X60474Y5356D01*
X60055Y5636D01*
D02*
G37*
G36*
X58055D02*
X57636Y5356D01*
X57356Y4937D01*
X58055D01*
Y5636D01*
D02*
G37*
G36*
X54150D02*
Y4937D01*
X54849D01*
X54569Y5356D01*
X54150Y5636D01*
D02*
G37*
G36*
X52150D02*
X51730Y5356D01*
X51450Y4937D01*
X52150D01*
Y5636D01*
D02*
G37*
G36*
X385558Y4905D02*
X384858D01*
Y4206D01*
X385278Y4486D01*
X385558Y4905D01*
D02*
G37*
G36*
X382858D02*
X382159D01*
X382439Y4486D01*
X382858Y4206D01*
Y4905D01*
D02*
G37*
G36*
X379652Y2937D02*
X378953D01*
Y2238D01*
X379372Y2518D01*
X379652Y2937D01*
D02*
G37*
G36*
X376953D02*
X376253D01*
X376534Y2518D01*
X376953Y2238D01*
Y2937D01*
D02*
G37*
G36*
X373747D02*
X373047D01*
Y2238D01*
X373466Y2518D01*
X373747Y2937D01*
D02*
G37*
G36*
X371047D02*
X370348D01*
X370628Y2518D01*
X371047Y2238D01*
Y2937D01*
D02*
G37*
G36*
X367841D02*
X367142D01*
Y2238D01*
X367561Y2518D01*
X367841Y2937D01*
D02*
G37*
G36*
X365142D02*
X364442D01*
X364722Y2518D01*
X365142Y2238D01*
Y2937D01*
D02*
G37*
G36*
X361935D02*
X361236D01*
Y2238D01*
X361655Y2518D01*
X361935Y2937D01*
D02*
G37*
G36*
X359236D02*
X358537D01*
X358817Y2518D01*
X359236Y2238D01*
Y2937D01*
D02*
G37*
G36*
X356030D02*
X355331D01*
Y2238D01*
X355750Y2518D01*
X356030Y2937D01*
D02*
G37*
G36*
X353331D02*
X352631D01*
X352911Y2518D01*
X353331Y2238D01*
Y2937D01*
D02*
G37*
G36*
X350125D02*
X349425D01*
Y2238D01*
X349844Y2518D01*
X350125Y2937D01*
D02*
G37*
G36*
X347425D02*
X346726D01*
X347006Y2518D01*
X347425Y2238D01*
Y2937D01*
D02*
G37*
G36*
X344219D02*
X343520D01*
Y2238D01*
X343939Y2518D01*
X344219Y2937D01*
D02*
G37*
G36*
X341520D02*
X340820D01*
X341101Y2518D01*
X341520Y2238D01*
Y2937D01*
D02*
G37*
G36*
X338314D02*
X337614D01*
Y2238D01*
X338033Y2518D01*
X338314Y2937D01*
D02*
G37*
G36*
X335614D02*
X334915D01*
X335195Y2518D01*
X335614Y2238D01*
Y2937D01*
D02*
G37*
G36*
X332408D02*
X331709D01*
Y2238D01*
X332128Y2518D01*
X332408Y2937D01*
D02*
G37*
G36*
X329709D02*
X329009D01*
X329289Y2518D01*
X329709Y2238D01*
Y2937D01*
D02*
G37*
G36*
X326502D02*
X325803D01*
Y2238D01*
X326222Y2518D01*
X326502Y2937D01*
D02*
G37*
G36*
X323803D02*
X323104D01*
X323384Y2518D01*
X323803Y2238D01*
Y2937D01*
D02*
G37*
G36*
X320597D02*
X319898D01*
Y2238D01*
X320317Y2518D01*
X320597Y2937D01*
D02*
G37*
G36*
X317898D02*
X317198D01*
X317478Y2518D01*
X317898Y2238D01*
Y2937D01*
D02*
G37*
G36*
X314691D02*
X313992D01*
Y2238D01*
X314411Y2518D01*
X314691Y2937D01*
D02*
G37*
G36*
X311992D02*
X311293D01*
X311573Y2518D01*
X311992Y2238D01*
Y2937D01*
D02*
G37*
G36*
X308786D02*
X308087D01*
Y2238D01*
X308506Y2518D01*
X308786Y2937D01*
D02*
G37*
G36*
X306087D02*
X305387D01*
X305667Y2518D01*
X306087Y2238D01*
Y2937D01*
D02*
G37*
G36*
X302880D02*
X302181D01*
Y2238D01*
X302600Y2518D01*
X302880Y2937D01*
D02*
G37*
G36*
X300181D02*
X299482D01*
X299762Y2518D01*
X300181Y2238D01*
Y2937D01*
D02*
G37*
G36*
X296975D02*
X296276D01*
Y2238D01*
X296695Y2518D01*
X296975Y2937D01*
D02*
G37*
G36*
X294276D02*
X293576D01*
X293856Y2518D01*
X294276Y2238D01*
Y2937D01*
D02*
G37*
G36*
X291069D02*
X290370D01*
Y2238D01*
X290789Y2518D01*
X291069Y2937D01*
D02*
G37*
G36*
X288370D02*
X287671D01*
X287951Y2518D01*
X288370Y2238D01*
Y2937D01*
D02*
G37*
G36*
X285164D02*
X284465D01*
Y2238D01*
X284884Y2518D01*
X285164Y2937D01*
D02*
G37*
G36*
X282465D02*
X281765D01*
X282045Y2518D01*
X282465Y2238D01*
Y2937D01*
D02*
G37*
G36*
X279258D02*
X278559D01*
Y2238D01*
X278978Y2518D01*
X279258Y2937D01*
D02*
G37*
G36*
X276559D02*
X275860D01*
X276140Y2518D01*
X276559Y2238D01*
Y2937D01*
D02*
G37*
G36*
X273353D02*
X272654D01*
Y2238D01*
X273073Y2518D01*
X273353Y2937D01*
D02*
G37*
G36*
X270654D02*
X269954D01*
X270234Y2518D01*
X270654Y2238D01*
Y2937D01*
D02*
G37*
G36*
X267447D02*
X266748D01*
Y2238D01*
X267167Y2518D01*
X267447Y2937D01*
D02*
G37*
G36*
X264748D02*
X264049D01*
X264329Y2518D01*
X264748Y2238D01*
Y2937D01*
D02*
G37*
G36*
X261542D02*
X260842D01*
Y2238D01*
X261262Y2518D01*
X261542Y2937D01*
D02*
G37*
G36*
X258842D02*
X258143D01*
X258423Y2518D01*
X258842Y2238D01*
Y2937D01*
D02*
G37*
G36*
X255636D02*
X254937D01*
Y2238D01*
X255356Y2518D01*
X255636Y2937D01*
D02*
G37*
G36*
X252937D02*
X252238D01*
X252518Y2518D01*
X252937Y2238D01*
Y2937D01*
D02*
G37*
G36*
X249731D02*
X249031D01*
Y2238D01*
X249451Y2518D01*
X249731Y2937D01*
D02*
G37*
G36*
X247031D02*
X246332D01*
X246612Y2518D01*
X247031Y2238D01*
Y2937D01*
D02*
G37*
G36*
X243825D02*
X243126D01*
Y2238D01*
X243545Y2518D01*
X243825Y2937D01*
D02*
G37*
G36*
X241126D02*
X240427D01*
X240707Y2518D01*
X241126Y2238D01*
Y2937D01*
D02*
G37*
G36*
X237920D02*
X237221D01*
Y2238D01*
X237640Y2518D01*
X237920Y2937D01*
D02*
G37*
G36*
X235221D02*
X234521D01*
X234801Y2518D01*
X235221Y2238D01*
Y2937D01*
D02*
G37*
G36*
X232014D02*
X231315D01*
Y2238D01*
X231734Y2518D01*
X232014Y2937D01*
D02*
G37*
G36*
X229315D02*
X228616D01*
X228896Y2518D01*
X229315Y2238D01*
Y2937D01*
D02*
G37*
G36*
X226109D02*
X225410D01*
Y2238D01*
X225829Y2518D01*
X226109Y2937D01*
D02*
G37*
G36*
X223410D02*
X222710D01*
X222990Y2518D01*
X223410Y2238D01*
Y2937D01*
D02*
G37*
G36*
X220203D02*
X219504D01*
Y2238D01*
X219923Y2518D01*
X220203Y2937D01*
D02*
G37*
G36*
X217504D02*
X216805D01*
X217085Y2518D01*
X217504Y2238D01*
Y2937D01*
D02*
G37*
G36*
X214298D02*
X213598D01*
Y2238D01*
X214018Y2518D01*
X214298Y2937D01*
D02*
G37*
G36*
X211598D02*
X210899D01*
X211179Y2518D01*
X211598Y2238D01*
Y2937D01*
D02*
G37*
G36*
X208392D02*
X207693D01*
Y2238D01*
X208112Y2518D01*
X208392Y2937D01*
D02*
G37*
G36*
X205693D02*
X204994D01*
X205274Y2518D01*
X205693Y2238D01*
Y2937D01*
D02*
G37*
G36*
X202487D02*
X201787D01*
Y2238D01*
X202207Y2518D01*
X202487Y2937D01*
D02*
G37*
G36*
X199787D02*
X199088D01*
X199368Y2518D01*
X199787Y2238D01*
Y2937D01*
D02*
G37*
G36*
X196581D02*
X195882D01*
Y2238D01*
X196301Y2518D01*
X196581Y2937D01*
D02*
G37*
G36*
X193882D02*
X193183D01*
X193463Y2518D01*
X193882Y2238D01*
Y2937D01*
D02*
G37*
G36*
X190676D02*
X189976D01*
Y2238D01*
X190396Y2518D01*
X190676Y2937D01*
D02*
G37*
G36*
X187976D02*
X187277D01*
X187557Y2518D01*
X187976Y2238D01*
Y2937D01*
D02*
G37*
G36*
X184770D02*
X184071D01*
Y2238D01*
X184490Y2518D01*
X184770Y2937D01*
D02*
G37*
G36*
X182071D02*
X181372D01*
X181652Y2518D01*
X182071Y2238D01*
Y2937D01*
D02*
G37*
G36*
X178865D02*
X178165D01*
Y2238D01*
X178585Y2518D01*
X178865Y2937D01*
D02*
G37*
G36*
X176165D02*
X175466D01*
X175746Y2518D01*
X176165Y2238D01*
Y2937D01*
D02*
G37*
G36*
X172959D02*
X172260D01*
Y2238D01*
X172679Y2518D01*
X172959Y2937D01*
D02*
G37*
G36*
X170260D02*
X169561D01*
X169841Y2518D01*
X170260Y2238D01*
Y2937D01*
D02*
G37*
G36*
X167054D02*
X166354D01*
Y2238D01*
X166773Y2518D01*
X167054Y2937D01*
D02*
G37*
G36*
X164354D02*
X163655D01*
X163935Y2518D01*
X164354Y2238D01*
Y2937D01*
D02*
G37*
G36*
X161148D02*
X160449D01*
Y2238D01*
X160868Y2518D01*
X161148Y2937D01*
D02*
G37*
G36*
X158449D02*
X157749D01*
X158030Y2518D01*
X158449Y2238D01*
Y2937D01*
D02*
G37*
G36*
X155243D02*
X154543D01*
Y2238D01*
X154963Y2518D01*
X155243Y2937D01*
D02*
G37*
G36*
X152543D02*
X151844D01*
X152124Y2518D01*
X152543Y2238D01*
Y2937D01*
D02*
G37*
G36*
X149337D02*
X148638D01*
Y2238D01*
X149057Y2518D01*
X149337Y2937D01*
D02*
G37*
G36*
X146638D02*
X145939D01*
X146219Y2518D01*
X146638Y2238D01*
Y2937D01*
D02*
G37*
G36*
X143432D02*
X142732D01*
Y2238D01*
X143151Y2518D01*
X143432Y2937D01*
D02*
G37*
G36*
X140732D02*
X140033D01*
X140313Y2518D01*
X140732Y2238D01*
Y2937D01*
D02*
G37*
G36*
X137526D02*
X136827D01*
Y2238D01*
X137246Y2518D01*
X137526Y2937D01*
D02*
G37*
G36*
X134827D02*
X134127D01*
X134408Y2518D01*
X134827Y2238D01*
Y2937D01*
D02*
G37*
G36*
X131621D02*
X130921D01*
Y2238D01*
X131341Y2518D01*
X131621Y2937D01*
D02*
G37*
G36*
X128921D02*
X128222D01*
X128502Y2518D01*
X128921Y2238D01*
Y2937D01*
D02*
G37*
G36*
X125715D02*
X125016D01*
Y2238D01*
X125435Y2518D01*
X125715Y2937D01*
D02*
G37*
G36*
X123016D02*
X122316D01*
X122597Y2518D01*
X123016Y2238D01*
Y2937D01*
D02*
G37*
G36*
X119810D02*
X119110D01*
Y2238D01*
X119529Y2518D01*
X119810Y2937D01*
D02*
G37*
G36*
X117110D02*
X116411D01*
X116691Y2518D01*
X117110Y2238D01*
Y2937D01*
D02*
G37*
G36*
X113904D02*
X113205D01*
Y2238D01*
X113624Y2518D01*
X113904Y2937D01*
D02*
G37*
G36*
X111205D02*
X110505D01*
X110785Y2518D01*
X111205Y2238D01*
Y2937D01*
D02*
G37*
G36*
X107999D02*
X107299D01*
Y2238D01*
X107718Y2518D01*
X107999Y2937D01*
D02*
G37*
G36*
X105299D02*
X104600D01*
X104880Y2518D01*
X105299Y2238D01*
Y2937D01*
D02*
G37*
G36*
X102093D02*
X101394D01*
Y2238D01*
X101813Y2518D01*
X102093Y2937D01*
D02*
G37*
G36*
X99394D02*
X98694D01*
X98975Y2518D01*
X99394Y2238D01*
Y2937D01*
D02*
G37*
G36*
X96188D02*
X95488D01*
Y2238D01*
X95907Y2518D01*
X96188Y2937D01*
D02*
G37*
G36*
X93488D02*
X92789D01*
X93069Y2518D01*
X93488Y2238D01*
Y2937D01*
D02*
G37*
G36*
X90282D02*
X89583D01*
Y2238D01*
X90002Y2518D01*
X90282Y2937D01*
D02*
G37*
G36*
X87583D02*
X86883D01*
X87164Y2518D01*
X87583Y2238D01*
Y2937D01*
D02*
G37*
G36*
X84377D02*
X83677D01*
Y2238D01*
X84096Y2518D01*
X84377Y2937D01*
D02*
G37*
G36*
X81677D02*
X80978D01*
X81258Y2518D01*
X81677Y2238D01*
Y2937D01*
D02*
G37*
G36*
X78471D02*
X77772D01*
Y2238D01*
X78191Y2518D01*
X78471Y2937D01*
D02*
G37*
G36*
X75772D02*
X75072D01*
X75352Y2518D01*
X75772Y2238D01*
Y2937D01*
D02*
G37*
G36*
X72566D02*
X71866D01*
Y2238D01*
X72285Y2518D01*
X72566Y2937D01*
D02*
G37*
G36*
X69866D02*
X69167D01*
X69447Y2518D01*
X69866Y2238D01*
Y2937D01*
D02*
G37*
G36*
X66660D02*
X65961D01*
Y2238D01*
X66380Y2518D01*
X66660Y2937D01*
D02*
G37*
G36*
X63961D02*
X63261D01*
X63541Y2518D01*
X63961Y2238D01*
Y2937D01*
D02*
G37*
G36*
X60754D02*
X60055D01*
Y2238D01*
X60474Y2518D01*
X60754Y2937D01*
D02*
G37*
G36*
X58055D02*
X57356D01*
X57636Y2518D01*
X58055Y2238D01*
Y2937D01*
D02*
G37*
G36*
X54849D02*
X54150D01*
Y2238D01*
X54569Y2518D01*
X54849Y2937D01*
D02*
G37*
G36*
X52150D02*
X51450D01*
X51730Y2518D01*
X52150Y2238D01*
Y2937D01*
D02*
G37*
%LPD*%
G36*
X159449Y111561D02*
X158949Y111487D01*
X158708Y112282D01*
X158105Y113410D01*
X157293Y114399D01*
X156304Y115211D01*
X155175Y115814D01*
X153951Y116186D01*
X153677Y116212D01*
Y109783D01*
Y103355D01*
X153951Y103382D01*
X155175Y103753D01*
X156304Y104356D01*
X157293Y105168D01*
X158105Y106157D01*
X158708Y107286D01*
X158949Y108080D01*
X159449Y108006D01*
Y102362D01*
X157480Y100394D01*
X155512D01*
X153543Y98425D01*
Y82677D01*
X126178D01*
X125984Y82716D01*
X125790Y82677D01*
X120400D01*
X120243Y82941D01*
X120214Y83199D01*
X130063Y93048D01*
X130630Y92973D01*
X131567Y93096D01*
X132441Y93458D01*
X133191Y94034D01*
X133766Y94784D01*
X134128Y95657D01*
X134251Y96595D01*
X134128Y97532D01*
X133766Y98405D01*
X133191Y99155D01*
X132441Y99731D01*
X131567Y100093D01*
X130630Y100216D01*
X129693Y100093D01*
X128819Y99731D01*
X128069Y99155D01*
X127494Y98405D01*
X127132Y97532D01*
X127008Y96595D01*
X127083Y96028D01*
X126611Y95556D01*
X126156Y95808D01*
X126259Y96595D01*
X126136Y97532D01*
X125774Y98405D01*
X125199Y99155D01*
X124449Y99731D01*
X123575Y100093D01*
X122638Y100216D01*
X121701Y100093D01*
X120827Y99731D01*
X120077Y99155D01*
X119501Y98405D01*
X119140Y97532D01*
X119016Y96595D01*
X119140Y95657D01*
X119261Y95364D01*
Y95076D01*
X115846Y91661D01*
X115385Y91907D01*
X115484Y92403D01*
Y93083D01*
X115583Y93096D01*
X116456Y93458D01*
X117207Y94034D01*
X117782Y94784D01*
X118144Y95657D01*
X118267Y96595D01*
X118144Y97532D01*
X117782Y98405D01*
X117207Y99155D01*
X116456Y99731D01*
X115583Y100093D01*
X114646Y100216D01*
X113708Y100093D01*
X112835Y99731D01*
X112085Y99155D01*
X111509Y98405D01*
X111147Y97532D01*
X111024Y96595D01*
X111147Y95657D01*
X111269Y95364D01*
Y93276D01*
X104352Y86359D01*
X98961D01*
X98836Y86859D01*
X99571Y87252D01*
X100635Y88125D01*
X101508Y89189D01*
X102157Y90403D01*
X102556Y91721D01*
X102691Y93091D01*
X102556Y94461D01*
X102157Y95778D01*
X101508Y96992D01*
X100635Y98056D01*
X99571Y98929D01*
X98356Y99578D01*
X97039Y99978D01*
X95669Y100113D01*
X94299Y99978D01*
X92982Y99578D01*
X91768Y98929D01*
X90704Y98056D01*
X89831Y96992D01*
X89182Y95778D01*
X88782Y94461D01*
X88647Y93091D01*
X88782Y91721D01*
X89182Y90403D01*
X89831Y89189D01*
X90704Y88125D01*
X91768Y87252D01*
X92503Y86859D01*
X92377Y86359D01*
X74158D01*
X74033Y86859D01*
X74767Y87252D01*
X75831Y88125D01*
X76705Y89189D01*
X77354Y90403D01*
X77753Y91721D01*
X77888Y93091D01*
X77753Y94461D01*
X77354Y95778D01*
X76705Y96992D01*
X75831Y98056D01*
X74767Y98929D01*
X73553Y99578D01*
X72236Y99978D01*
X70866Y100113D01*
X69496Y99978D01*
X68179Y99578D01*
X66965Y98929D01*
X65901Y98056D01*
X65028Y96992D01*
X64379Y95778D01*
X63979Y94461D01*
X63844Y93091D01*
X63979Y91721D01*
X64379Y90403D01*
X65028Y89189D01*
X65901Y88125D01*
X66965Y87252D01*
X67699Y86859D01*
X67574Y86359D01*
X65046D01*
X64364Y87041D01*
X64187Y87307D01*
X58771Y92722D01*
X58087Y93179D01*
X57969Y93713D01*
X58388Y94034D01*
X58963Y94784D01*
X59325Y95657D01*
X59448Y96595D01*
X59325Y97532D01*
X58963Y98405D01*
X58388Y99155D01*
X57638Y99731D01*
X56764Y100093D01*
X55827Y100216D01*
X54889Y100093D01*
X54016Y99731D01*
X53266Y99155D01*
X52690Y98405D01*
X52329Y97532D01*
X52205Y96595D01*
X52329Y95657D01*
X52690Y94784D01*
X53266Y94034D01*
X53519Y93840D01*
X53349Y93340D01*
X50312D01*
X50143Y93840D01*
X50395Y94034D01*
X50971Y94784D01*
X51333Y95657D01*
X51456Y96595D01*
X51333Y97532D01*
X50971Y98405D01*
X50395Y99155D01*
X49645Y99731D01*
X48772Y100093D01*
X47835Y100216D01*
X46897Y100093D01*
X46024Y99731D01*
X45274Y99155D01*
X44698Y98405D01*
X44337Y97532D01*
X44213Y96595D01*
X44317Y95808D01*
X43862Y95556D01*
X43389Y96028D01*
X43464Y96595D01*
X43341Y97532D01*
X42979Y98405D01*
X42403Y99155D01*
X41653Y99731D01*
X40780Y100093D01*
X39843Y100216D01*
X38905Y100093D01*
X38032Y99731D01*
X37282Y99155D01*
X36706Y98405D01*
X36344Y97532D01*
X36221Y96595D01*
X36344Y95657D01*
X36706Y94784D01*
X37282Y94034D01*
X38032Y93458D01*
X38905Y93096D01*
X39843Y92973D01*
X40409Y93048D01*
X43715Y89742D01*
X44398Y89285D01*
X45053Y89155D01*
X45243Y88777D01*
X45259Y88625D01*
X45009Y88298D01*
X44751Y87676D01*
X44663Y87008D01*
X44751Y86340D01*
X45009Y85717D01*
X45419Y85183D01*
X45953Y84772D01*
X46576Y84514D01*
X47244Y84427D01*
X47912Y84514D01*
X48535Y84772D01*
X48702Y84900D01*
X53059D01*
X53215Y84400D01*
X52883Y83968D01*
X52625Y83345D01*
X52537Y82677D01*
X7874D01*
Y106170D01*
X8359Y106291D01*
X8431Y106157D01*
X9243Y105168D01*
X10232Y104356D01*
X11360Y103753D01*
X12585Y103382D01*
X12858Y103355D01*
Y109783D01*
Y116212D01*
X12585Y116186D01*
X11360Y115814D01*
X10232Y115211D01*
X9243Y114399D01*
X8431Y113410D01*
X8359Y113276D01*
X7874Y113397D01*
Y137795D01*
X159449D01*
X159449Y111561D01*
D02*
G37*
%LPC*%
G36*
X151677Y116212D02*
X151404Y116186D01*
X150179Y115814D01*
X149051Y115211D01*
X148062Y114399D01*
X147250Y113410D01*
X146647Y112282D01*
X146275Y111057D01*
X146248Y110784D01*
X151677D01*
Y116212D01*
D02*
G37*
G36*
X14858D02*
Y110784D01*
X20287D01*
X20260Y111057D01*
X19889Y112282D01*
X19286Y113410D01*
X18474Y114399D01*
X17485Y115211D01*
X16356Y115814D01*
X15132Y116186D01*
X14858Y116212D01*
D02*
G37*
G36*
X151677Y108783D02*
X146248D01*
X146275Y108510D01*
X146647Y107286D01*
X147250Y106157D01*
X148062Y105168D01*
X149051Y104356D01*
X150179Y103753D01*
X151404Y103382D01*
X151677Y103355D01*
Y108783D01*
D02*
G37*
G36*
X95090D02*
X89661D01*
Y103355D01*
X89935Y103382D01*
X91159Y103753D01*
X92288Y104356D01*
X93277Y105168D01*
X94089Y106157D01*
X94692Y107286D01*
X95064Y108510D01*
X95090Y108783D01*
D02*
G37*
G36*
X76874D02*
X71445D01*
X71472Y108510D01*
X71843Y107286D01*
X72447Y106157D01*
X73258Y105168D01*
X74247Y104356D01*
X75376Y103753D01*
X76601Y103382D01*
X76874Y103355D01*
Y108783D01*
D02*
G37*
G36*
X20287D02*
X14858D01*
Y103355D01*
X15132Y103382D01*
X16356Y103753D01*
X17485Y104356D01*
X18474Y105168D01*
X19286Y106157D01*
X19889Y107286D01*
X20260Y108510D01*
X20287Y108783D01*
D02*
G37*
G36*
X121653Y128092D02*
X71485D01*
X70679Y127931D01*
X69995Y127474D01*
X65100Y122580D01*
X61300D01*
X61133Y122708D01*
X60511Y122966D01*
X59842Y123054D01*
X59175Y122966D01*
X58552Y122708D01*
X58017Y122298D01*
X57607Y121763D01*
X57349Y121141D01*
X57261Y120472D01*
X57349Y119804D01*
X57607Y119182D01*
X58017Y118647D01*
X58398Y118355D01*
X58228Y117855D01*
X52638D01*
X52472Y117983D01*
X51849Y118241D01*
X51181Y118329D01*
X50513Y118241D01*
X49890Y117983D01*
X49356Y117573D01*
X48946Y117038D01*
X48688Y116416D01*
X48600Y115748D01*
X48688Y115080D01*
X48946Y114457D01*
X49051Y114320D01*
X48805Y113820D01*
X46752D01*
X45945Y113659D01*
X45262Y113203D01*
X42951Y110892D01*
X42494Y110208D01*
X42431Y109890D01*
X42048Y109731D01*
X41298Y109155D01*
X40722Y108405D01*
X40360Y107532D01*
X40237Y106595D01*
X40360Y105657D01*
X40722Y104784D01*
X41298Y104034D01*
X42048Y103458D01*
X42921Y103096D01*
X43858Y102973D01*
X44796Y103096D01*
X45669Y103458D01*
X46419Y104034D01*
X46995Y104784D01*
X47356Y105657D01*
X47480Y106595D01*
X47356Y107532D01*
X46995Y108405D01*
X46747Y108728D01*
X47625Y109605D01*
X49137D01*
X49157Y109546D01*
X49251Y109105D01*
X48714Y108405D01*
X48352Y107532D01*
X48229Y106595D01*
X48352Y105657D01*
X48714Y104784D01*
X49290Y104034D01*
X50040Y103458D01*
X50913Y103096D01*
X51850Y102973D01*
X52788Y103096D01*
X53661Y103458D01*
X54411Y104034D01*
X54987Y104784D01*
X55348Y105657D01*
X55472Y106595D01*
X55348Y107532D01*
X54987Y108405D01*
X54450Y109105D01*
X54544Y109546D01*
X54564Y109605D01*
X57129D01*
X57149Y109546D01*
X57243Y109105D01*
X56706Y108405D01*
X56344Y107532D01*
X56221Y106595D01*
X56344Y105657D01*
X56706Y104784D01*
X57282Y104034D01*
X58032Y103458D01*
X58905Y103096D01*
X59842Y102973D01*
X60780Y103096D01*
X61653Y103458D01*
X62403Y104034D01*
X62979Y104784D01*
X63341Y105657D01*
X63464Y106595D01*
X63341Y107532D01*
X62979Y108405D01*
X62442Y109105D01*
X62536Y109546D01*
X62556Y109605D01*
X67235D01*
X68042Y109765D01*
X68725Y110222D01*
X71841Y113338D01*
X72247Y113037D01*
X71843Y112282D01*
X71472Y111057D01*
X71445Y110784D01*
X77874D01*
Y109783D01*
X78874D01*
Y103355D01*
X79147Y103382D01*
X80372Y103753D01*
X81501Y104356D01*
X82490Y105168D01*
X83018Y105811D01*
X83518D01*
X84046Y105168D01*
X85035Y104356D01*
X86164Y103753D01*
X87388Y103382D01*
X87661Y103355D01*
Y109783D01*
X88661D01*
Y110784D01*
X95090D01*
X95064Y111057D01*
X94692Y112282D01*
X94089Y113410D01*
X93277Y114399D01*
X92288Y115211D01*
X91159Y115814D01*
X89935Y116186D01*
X88938Y116284D01*
X88873Y116290D01*
X88897Y116786D01*
X88926Y116790D01*
X110544D01*
X116554Y110781D01*
Y109503D01*
X116101Y109155D01*
X115525Y108405D01*
X115163Y107532D01*
X115040Y106595D01*
X115163Y105657D01*
X115525Y104784D01*
X116101Y104034D01*
X116851Y103458D01*
X117724Y103096D01*
X118661Y102973D01*
X119599Y103096D01*
X120472Y103458D01*
X121222Y104034D01*
X121798Y104784D01*
X122160Y105657D01*
X122283Y106595D01*
X122160Y107532D01*
X121798Y108405D01*
X121222Y109155D01*
X120769Y109503D01*
Y111653D01*
X120608Y112460D01*
X120152Y113144D01*
X113424Y119872D01*
X113615Y120334D01*
X114088D01*
X124462Y109959D01*
X124438Y109420D01*
X124093Y109155D01*
X123517Y108405D01*
X123155Y107532D01*
X123032Y106595D01*
X123155Y105657D01*
X123517Y104784D01*
X124093Y104034D01*
X124843Y103458D01*
X125716Y103096D01*
X126654Y102973D01*
X127591Y103096D01*
X128464Y103458D01*
X129214Y104034D01*
X129790Y104784D01*
X130152Y105657D01*
X130275Y106595D01*
X130152Y107532D01*
X129790Y108405D01*
X129214Y109155D01*
X128761Y109503D01*
Y110748D01*
X128601Y111555D01*
X128144Y112238D01*
X116967Y123415D01*
X117158Y123877D01*
X120781D01*
X132538Y112119D01*
Y109503D01*
X132085Y109155D01*
X131509Y108405D01*
X131148Y107532D01*
X131024Y106595D01*
X131148Y105657D01*
X131509Y104784D01*
X132085Y104034D01*
X132835Y103458D01*
X133708Y103096D01*
X134646Y102973D01*
X135583Y103096D01*
X136456Y103458D01*
X137206Y104034D01*
X137782Y104784D01*
X138144Y105657D01*
X138267Y106595D01*
X138144Y107532D01*
X137782Y108405D01*
X137206Y109155D01*
X136753Y109503D01*
Y112992D01*
X136593Y113799D01*
X136136Y114482D01*
X123144Y127474D01*
X122460Y127931D01*
X121653Y128092D01*
D02*
G37*
G36*
X110669Y110216D02*
X109732Y110093D01*
X108859Y109731D01*
X108108Y109155D01*
X107533Y108405D01*
X107171Y107532D01*
X107048Y106595D01*
X107171Y105657D01*
X107533Y104784D01*
X108108Y104034D01*
X108859Y103458D01*
X109732Y103096D01*
X110669Y102973D01*
X111607Y103096D01*
X112480Y103458D01*
X113230Y104034D01*
X113806Y104784D01*
X114167Y105657D01*
X114291Y106595D01*
X114167Y107532D01*
X113806Y108405D01*
X113230Y109155D01*
X112480Y109731D01*
X111607Y110093D01*
X110669Y110216D01*
D02*
G37*
G36*
X35866D02*
X34929Y110093D01*
X34055Y109731D01*
X33305Y109155D01*
X32730Y108405D01*
X32368Y107532D01*
X32245Y106595D01*
X32368Y105657D01*
X32730Y104784D01*
X33305Y104034D01*
X34055Y103458D01*
X34929Y103096D01*
X35866Y102973D01*
X36803Y103096D01*
X37677Y103458D01*
X38427Y104034D01*
X39002Y104784D01*
X39364Y105657D01*
X39488Y106595D01*
X39364Y107532D01*
X39002Y108405D01*
X38427Y109155D01*
X37677Y109731D01*
X36803Y110093D01*
X35866Y110216D01*
D02*
G37*
G36*
X106653Y100216D02*
X105716Y100093D01*
X104843Y99731D01*
X104093Y99155D01*
X103517Y98405D01*
X103155Y97532D01*
X103032Y96595D01*
X103155Y95657D01*
X103517Y94784D01*
X104093Y94034D01*
X104843Y93458D01*
X105716Y93096D01*
X106653Y92973D01*
X107591Y93096D01*
X108464Y93458D01*
X109214Y94034D01*
X109790Y94784D01*
X110152Y95657D01*
X110275Y96595D01*
X110152Y97532D01*
X109790Y98405D01*
X109214Y99155D01*
X108464Y99731D01*
X107591Y100093D01*
X106653Y100216D01*
D02*
G37*
G36*
X31850D02*
X30913Y100093D01*
X30040Y99731D01*
X29290Y99155D01*
X28714Y98405D01*
X28352Y97532D01*
X28229Y96595D01*
X28352Y95657D01*
X28714Y94784D01*
X29290Y94034D01*
X30040Y93458D01*
X30913Y93096D01*
X31850Y92973D01*
X32788Y93096D01*
X33661Y93458D01*
X34411Y94034D01*
X34987Y94784D01*
X35348Y95657D01*
X35472Y96595D01*
X35348Y97532D01*
X34987Y98405D01*
X34411Y99155D01*
X33661Y99731D01*
X32788Y100093D01*
X31850Y100216D01*
D02*
G37*
G36*
X145669Y100113D02*
X144299Y99978D01*
X142982Y99578D01*
X141768Y98929D01*
X140704Y98056D01*
X139831Y96992D01*
X139182Y95778D01*
X138782Y94461D01*
X138647Y93091D01*
X138782Y91721D01*
X139182Y90403D01*
X139831Y89189D01*
X140704Y88125D01*
X141768Y87252D01*
X142982Y86603D01*
X144299Y86204D01*
X145669Y86069D01*
X147039Y86204D01*
X148356Y86603D01*
X149571Y87252D01*
X150635Y88125D01*
X151508Y89189D01*
X152157Y90403D01*
X152556Y91721D01*
X152691Y93091D01*
X152556Y94461D01*
X152157Y95778D01*
X151508Y96992D01*
X150635Y98056D01*
X149571Y98929D01*
X148356Y99578D01*
X147039Y99978D01*
X145669Y100113D01*
D02*
G37*
G36*
X20866D02*
X19496Y99978D01*
X18179Y99578D01*
X16965Y98929D01*
X15901Y98056D01*
X15028Y96992D01*
X14379Y95778D01*
X13979Y94461D01*
X13844Y93091D01*
X13979Y91721D01*
X14379Y90403D01*
X15028Y89189D01*
X15901Y88125D01*
X16965Y87252D01*
X18179Y86603D01*
X19496Y86204D01*
X20866Y86069D01*
X22236Y86204D01*
X23553Y86603D01*
X24767Y87252D01*
X25831Y88125D01*
X26705Y89189D01*
X27354Y90403D01*
X27753Y91721D01*
X27888Y93091D01*
X27753Y94461D01*
X27354Y95778D01*
X26705Y96992D01*
X25831Y98056D01*
X24767Y98929D01*
X23553Y99578D01*
X22236Y99978D01*
X20866Y100113D01*
D02*
G37*
%LPD*%
D74*
X188976Y79331D02*
X195669Y86023D01*
X188976Y75787D02*
Y79331D01*
X195669Y86023D02*
Y86023D01*
X346457Y61024D02*
X351830D01*
X352814Y60039D01*
X353798Y61024D01*
X354331D01*
X275590Y108268D02*
Y109071D01*
X275787Y109268D01*
Y91831D02*
Y109268D01*
X277165Y80315D02*
X279528Y82677D01*
X263855Y80315D02*
X277165D01*
X253286Y90884D02*
X263855Y80315D01*
X253286Y90884D02*
Y94607D01*
X251969Y95924D02*
X253286Y94607D01*
X251969Y95924D02*
Y96457D01*
X262795Y77756D02*
X280512D01*
X249015Y91535D02*
X262795Y77756D01*
X265748Y104331D02*
X266732D01*
X254921Y115157D02*
X265748Y104331D01*
X259843Y98952D02*
Y103347D01*
X253405Y109783D02*
X259843Y103347D01*
X242523Y115157D02*
X254921D01*
X241811Y109783D02*
X253405D01*
X176181Y61024D02*
X186024D01*
D75*
X129361Y95325D02*
Y96595D01*
X111201Y77165D02*
X129361Y95325D01*
X60630Y77165D02*
X111201D01*
X133376Y106595D02*
X134646Y107864D01*
Y112992D01*
Y106595D02*
Y107864D01*
X121653Y125984D02*
X134646Y112992D01*
X71485Y125984D02*
X121653D01*
X65973Y120472D02*
X71485Y125984D01*
X59842Y120472D02*
X65973D01*
X67235Y111712D02*
X74420Y118898D01*
X111417D01*
X118661Y111653D01*
X66260Y115748D02*
X72953Y122441D01*
X114961D01*
X126654Y110748D01*
X46752Y111712D02*
X67235D01*
X51181Y115748D02*
X66260D01*
X126654Y106595D02*
Y110748D01*
X118661Y106595D02*
Y111653D01*
X44441Y109402D02*
X46752Y111712D01*
X44441Y107178D02*
Y109402D01*
X43858Y106595D02*
X44441Y107178D01*
X45205Y91232D02*
X57281D01*
X40138Y96299D02*
X45205Y91232D01*
X39546Y96299D02*
X40138D01*
X47244Y87008D02*
X56494D01*
X47244Y87008D02*
X47244Y87008D01*
X62706Y80709D02*
X107874D01*
X56494Y87008D02*
X59153Y84349D01*
X57281Y91232D02*
X62697Y85816D01*
Y85728D02*
X64173Y84252D01*
X62697Y85728D02*
Y85816D01*
X59153Y84261D02*
X62706Y80709D01*
X59153Y84261D02*
Y84349D01*
X64173Y84252D02*
X105225D01*
X121369Y94203D02*
Y96595D01*
X107874Y80709D02*
X121369Y94203D01*
X105225Y84252D02*
X113376Y92403D01*
X55118Y82677D02*
X60630Y77165D01*
X113376Y92403D02*
Y96595D01*
X125384Y106595D02*
X125445Y106655D01*
D77*
X59055Y48642D02*
D03*
X311339Y21811D02*
D03*
X366457D02*
D03*
D78*
X59055Y28642D02*
D03*
D79*
X291339Y21811D02*
D03*
X346457D02*
D03*
D80*
X261811Y17717D02*
D03*
X315945Y127953D02*
D03*
X265748Y127953D02*
D03*
D81*
X251811Y17717D02*
D03*
X241811D02*
D03*
X295945Y127953D02*
D03*
X305945D02*
D03*
X255748Y127953D02*
D03*
X245748D02*
D03*
X235748D02*
D03*
X225748D02*
D03*
X215748D02*
D03*
D82*
X59842Y106595D02*
D03*
X55827Y96595D02*
D03*
X51850Y106595D02*
D03*
X47835Y96595D02*
D03*
X43858Y106595D02*
D03*
X39843Y96595D02*
D03*
X35866Y106595D02*
D03*
X31850Y96595D02*
D03*
X20866Y93091D02*
D03*
X70866D02*
D03*
X134646Y106595D02*
D03*
X130630Y96595D02*
D03*
X126654Y106595D02*
D03*
X122638Y96595D02*
D03*
X118661Y106595D02*
D03*
X114646Y96595D02*
D03*
X110669Y106595D02*
D03*
X106653Y96595D02*
D03*
X95669Y93091D02*
D03*
X145669D02*
D03*
D83*
X13858Y109783D02*
D03*
X77874D02*
D03*
X88661D02*
D03*
X152677D02*
D03*
D84*
X220079Y26024D02*
D03*
Y11024D02*
D03*
D85*
X206299Y26024D02*
D03*
X192520D02*
D03*
Y11024D02*
D03*
X206299D02*
D03*
D86*
X413386Y59055D02*
D03*
X19685D02*
D03*
D87*
X177165Y101378D02*
D03*
X165354Y137795D02*
D03*
X171260D02*
D03*
X177165D02*
D03*
X298425Y112205D02*
D03*
X275590Y114173D02*
D03*
X299213Y88583D02*
D03*
X291339D02*
D03*
X281496D02*
D03*
X275590Y64961D02*
D03*
X299213Y72835D02*
D03*
X287402D02*
D03*
X314961Y57087D02*
D03*
X303150Y64961D02*
D03*
X328740Y62992D02*
D03*
X324803Y45276D02*
D03*
X316929D02*
D03*
X269685Y27559D02*
D03*
X261811Y35433D02*
D03*
X253937Y43307D02*
D03*
X246063Y51181D02*
D03*
X183071Y88583D02*
D03*
X198819Y62992D02*
D03*
X192913D02*
D03*
X224410Y57087D02*
D03*
X218504D02*
D03*
X212598D02*
D03*
X209355Y42913D02*
D03*
X230315Y27559D02*
D03*
X108268Y39370D02*
D03*
X149606Y31496D02*
D03*
X151575Y59055D02*
D03*
X167323Y45276D02*
D03*
Y33465D02*
D03*
X163386Y15748D02*
D03*
X149606Y17717D02*
D03*
X122047Y45276D02*
D03*
X108268Y23622D02*
D03*
X94488Y53150D02*
D03*
X88583D02*
D03*
X82677D02*
D03*
X78740Y49213D02*
D03*
X3937Y137795D02*
D03*
Y131890D02*
D03*
Y125984D02*
D03*
Y120079D02*
D03*
Y114173D02*
D03*
Y108268D02*
D03*
Y102362D02*
D03*
Y96457D02*
D03*
Y90551D02*
D03*
Y84646D02*
D03*
Y78740D02*
D03*
X125984Y80709D02*
D03*
X120079D02*
D03*
X157480Y84646D02*
D03*
Y90551D02*
D03*
Y96457D02*
D03*
X429134Y137795D02*
D03*
Y92520D02*
D03*
Y86614D02*
D03*
Y80709D02*
D03*
X381890Y66929D02*
D03*
X377953Y62992D02*
D03*
X372047D02*
D03*
X366142D02*
D03*
X360236D02*
D03*
X350394Y68898D02*
D03*
X344488D02*
D03*
X340551Y72835D02*
D03*
X336614Y76772D02*
D03*
X332677Y80709D02*
D03*
X328740Y84646D02*
D03*
X332677Y102362D02*
D03*
X328740Y98425D02*
D03*
X322835D02*
D03*
X316929D02*
D03*
X336614Y108268D02*
D03*
Y114173D02*
D03*
Y120079D02*
D03*
Y125984D02*
D03*
Y131890D02*
D03*
X403543Y31496D02*
D03*
X401575Y37402D02*
D03*
X397638Y41339D02*
D03*
X393701Y45276D02*
D03*
X389764Y49213D02*
D03*
Y55118D02*
D03*
Y61024D02*
D03*
Y66929D02*
D03*
X385827Y70866D02*
D03*
X381890Y74803D02*
D03*
X377953Y78740D02*
D03*
Y84646D02*
D03*
Y90551D02*
D03*
Y96457D02*
D03*
Y102362D02*
D03*
Y108268D02*
D03*
Y114173D02*
D03*
Y120079D02*
D03*
Y125984D02*
D03*
Y131890D02*
D03*
X403543Y25591D02*
D03*
X399606Y21654D02*
D03*
X395669Y17717D02*
D03*
X391732Y13780D02*
D03*
X387795Y9843D02*
D03*
X383858Y5906D02*
D03*
X19685Y35433D02*
D03*
X23622Y31496D02*
D03*
X27559Y27559D02*
D03*
X31496Y23622D02*
D03*
X35433Y19685D02*
D03*
X39370Y15748D02*
D03*
X43307Y11811D02*
D03*
X47244Y7874D02*
D03*
X175197Y122047D02*
D03*
Y68898D02*
D03*
X167323Y61024D02*
D03*
Y68898D02*
D03*
X74803Y72835D02*
D03*
X68898D02*
D03*
X62992D02*
D03*
X57087D02*
D03*
X51181D02*
D03*
X45276D02*
D03*
X39370D02*
D03*
X183071Y137795D02*
D03*
X188976D02*
D03*
X194882D02*
D03*
X200787D02*
D03*
X206693D02*
D03*
X212598D02*
D03*
X218504D02*
D03*
X224410D02*
D03*
X230315D02*
D03*
X236221D02*
D03*
X242126D02*
D03*
X248031D02*
D03*
X253937D02*
D03*
X259842D02*
D03*
X265748D02*
D03*
X271654D02*
D03*
X277559D02*
D03*
X283465D02*
D03*
X289370D02*
D03*
X295276D02*
D03*
X301181D02*
D03*
X307087D02*
D03*
X312992D02*
D03*
X318898D02*
D03*
X324803D02*
D03*
X330709D02*
D03*
X336614D02*
D03*
X342520D02*
D03*
X348425D02*
D03*
X354331D02*
D03*
X360236D02*
D03*
X366142D02*
D03*
X372047D02*
D03*
X377953D02*
D03*
Y3937D02*
D03*
X372047D02*
D03*
X366142D02*
D03*
X360236D02*
D03*
X354331D02*
D03*
X348425D02*
D03*
X342520D02*
D03*
X336614D02*
D03*
X330709D02*
D03*
X324803D02*
D03*
X318898D02*
D03*
X312992D02*
D03*
X307087D02*
D03*
X301181D02*
D03*
X295276D02*
D03*
X289370D02*
D03*
X283465D02*
D03*
X277559D02*
D03*
X271654D02*
D03*
X265748D02*
D03*
X259842D02*
D03*
X253937D02*
D03*
X248031D02*
D03*
X242126D02*
D03*
X236221D02*
D03*
X230315D02*
D03*
X224410D02*
D03*
X218504D02*
D03*
X212598D02*
D03*
X206693D02*
D03*
X200787D02*
D03*
X194882D02*
D03*
X188976D02*
D03*
X183071D02*
D03*
X177165D02*
D03*
X171260D02*
D03*
X165354D02*
D03*
X159449D02*
D03*
X153543D02*
D03*
X147638D02*
D03*
X141732D02*
D03*
X135827D02*
D03*
X129921D02*
D03*
X124016D02*
D03*
X118110D02*
D03*
X112205D02*
D03*
X106299D02*
D03*
X100394D02*
D03*
X94488D02*
D03*
X88583D02*
D03*
X82677D02*
D03*
X76772D02*
D03*
X70866D02*
D03*
X64961D02*
D03*
X59055D02*
D03*
X53150D02*
D03*
D88*
X188976Y75787D02*
D03*
X195669Y86023D02*
D03*
X346457Y61024D02*
D03*
X354331D02*
D03*
X275590Y108268D02*
D03*
X275787Y90847D02*
D03*
X279528Y81693D02*
D03*
X251969Y96457D02*
D03*
X280512Y76772D02*
D03*
X249015Y91535D02*
D03*
X266732Y103347D02*
D03*
X259843Y97967D02*
D03*
X242523Y115157D02*
D03*
X241811Y109783D02*
D03*
X176181Y61024D02*
D03*
X186024D02*
D03*
X59842Y120472D02*
D03*
X51181Y115748D02*
D03*
X55118Y82677D02*
D03*
X47244Y87008D02*
D03*
M02*
