G04*
G04 #@! TF.GenerationSoftware,Altium Limited,Altium Designer,20.0.11 (256)*
G04*
G04 Layer_Color=16711935*
%FSLAX25Y25*%
%MOIN*%
G70*
G01*
G75*
%ADD62C,0.10642*%
%ADD63R,0.10642X0.10642*%
%ADD64R,0.10642X0.10642*%
%ADD65R,0.07690X0.07690*%
%ADD66C,0.07690*%
%ADD67C,0.06800*%
%ADD68C,0.12611*%
%ADD69R,0.08674X0.08674*%
%ADD70C,0.08674*%
%ADD71C,0.40170*%
%ADD72C,0.03556*%
%ADD73C,0.04737*%
D62*
X59055Y48642D02*
D03*
X311339Y21811D02*
D03*
X366457D02*
D03*
D63*
X59055Y28642D02*
D03*
D64*
X291339Y21811D02*
D03*
X346457D02*
D03*
D65*
X261811Y17717D02*
D03*
X315945Y127953D02*
D03*
X265748Y127953D02*
D03*
D66*
X251811Y17717D02*
D03*
X241811D02*
D03*
X295945Y127953D02*
D03*
X305945D02*
D03*
X255748Y127953D02*
D03*
X245748D02*
D03*
X235748D02*
D03*
X225748D02*
D03*
X215748D02*
D03*
D67*
X59842Y106595D02*
D03*
X55827Y96595D02*
D03*
X51850Y106595D02*
D03*
X47835Y96595D02*
D03*
X43858Y106595D02*
D03*
X39843Y96595D02*
D03*
X35866Y106595D02*
D03*
X31850Y96595D02*
D03*
X20866Y93091D02*
D03*
X70866D02*
D03*
X134646Y106595D02*
D03*
X130630Y96595D02*
D03*
X126654Y106595D02*
D03*
X122638Y96595D02*
D03*
X118661Y106595D02*
D03*
X114646Y96595D02*
D03*
X110669Y106595D02*
D03*
X106653Y96595D02*
D03*
X95669Y93091D02*
D03*
X145669D02*
D03*
D68*
X13858Y109783D02*
D03*
X77874D02*
D03*
X88661D02*
D03*
X152677D02*
D03*
D69*
X220079Y26024D02*
D03*
Y11024D02*
D03*
D70*
X206299Y26024D02*
D03*
X192520D02*
D03*
Y11024D02*
D03*
X206299D02*
D03*
D71*
X413386Y59055D02*
D03*
X19685D02*
D03*
D72*
X177165Y101378D02*
D03*
X165354Y137795D02*
D03*
X171260D02*
D03*
X177165D02*
D03*
X298425Y112205D02*
D03*
X275590Y114173D02*
D03*
X299213Y88583D02*
D03*
X291339D02*
D03*
X281496D02*
D03*
X275590Y64961D02*
D03*
X299213Y72835D02*
D03*
X287402D02*
D03*
X314961Y57087D02*
D03*
X303150Y64961D02*
D03*
X328740Y62992D02*
D03*
X324803Y45276D02*
D03*
X316929D02*
D03*
X269685Y27559D02*
D03*
X261811Y35433D02*
D03*
X253937Y43307D02*
D03*
X246063Y51181D02*
D03*
X183071Y88583D02*
D03*
X198819Y62992D02*
D03*
X192913D02*
D03*
X224410Y57087D02*
D03*
X218504D02*
D03*
X212598D02*
D03*
X209355Y42913D02*
D03*
X230315Y27559D02*
D03*
X108268Y39370D02*
D03*
X149606Y31496D02*
D03*
X151575Y59055D02*
D03*
X167323Y45276D02*
D03*
Y33465D02*
D03*
X163386Y15748D02*
D03*
X149606Y17717D02*
D03*
X122047Y45276D02*
D03*
X108268Y23622D02*
D03*
X94488Y53150D02*
D03*
X88583D02*
D03*
X82677D02*
D03*
X78740Y49213D02*
D03*
X3937Y137795D02*
D03*
Y131890D02*
D03*
Y125984D02*
D03*
Y120079D02*
D03*
Y114173D02*
D03*
Y108268D02*
D03*
Y102362D02*
D03*
Y96457D02*
D03*
Y90551D02*
D03*
Y84646D02*
D03*
Y78740D02*
D03*
X125984Y80709D02*
D03*
X120079D02*
D03*
X157480Y84646D02*
D03*
Y90551D02*
D03*
Y96457D02*
D03*
X429134Y137795D02*
D03*
Y92520D02*
D03*
Y86614D02*
D03*
Y80709D02*
D03*
X381890Y66929D02*
D03*
X377953Y62992D02*
D03*
X372047D02*
D03*
X366142D02*
D03*
X360236D02*
D03*
X350394Y68898D02*
D03*
X344488D02*
D03*
X340551Y72835D02*
D03*
X336614Y76772D02*
D03*
X332677Y80709D02*
D03*
X328740Y84646D02*
D03*
X332677Y102362D02*
D03*
X328740Y98425D02*
D03*
X322835D02*
D03*
X316929D02*
D03*
X336614Y108268D02*
D03*
Y114173D02*
D03*
Y120079D02*
D03*
Y125984D02*
D03*
Y131890D02*
D03*
X403543Y31496D02*
D03*
X401575Y37402D02*
D03*
X397638Y41339D02*
D03*
X393701Y45276D02*
D03*
X389764Y49213D02*
D03*
Y55118D02*
D03*
Y61024D02*
D03*
Y66929D02*
D03*
X385827Y70866D02*
D03*
X381890Y74803D02*
D03*
X377953Y78740D02*
D03*
Y84646D02*
D03*
Y90551D02*
D03*
Y96457D02*
D03*
Y102362D02*
D03*
Y108268D02*
D03*
Y114173D02*
D03*
Y120079D02*
D03*
Y125984D02*
D03*
Y131890D02*
D03*
X403543Y25591D02*
D03*
X399606Y21654D02*
D03*
X395669Y17717D02*
D03*
X391732Y13780D02*
D03*
X387795Y9843D02*
D03*
X383858Y5906D02*
D03*
X19685Y35433D02*
D03*
X23622Y31496D02*
D03*
X27559Y27559D02*
D03*
X31496Y23622D02*
D03*
X35433Y19685D02*
D03*
X39370Y15748D02*
D03*
X43307Y11811D02*
D03*
X47244Y7874D02*
D03*
X175197Y122047D02*
D03*
Y68898D02*
D03*
X167323Y61024D02*
D03*
Y68898D02*
D03*
X74803Y72835D02*
D03*
X68898D02*
D03*
X62992D02*
D03*
X57087D02*
D03*
X51181D02*
D03*
X45276D02*
D03*
X39370D02*
D03*
X183071Y137795D02*
D03*
X188976D02*
D03*
X194882D02*
D03*
X200787D02*
D03*
X206693D02*
D03*
X212598D02*
D03*
X218504D02*
D03*
X224410D02*
D03*
X230315D02*
D03*
X236221D02*
D03*
X242126D02*
D03*
X248031D02*
D03*
X253937D02*
D03*
X259842D02*
D03*
X265748D02*
D03*
X271654D02*
D03*
X277559D02*
D03*
X283465D02*
D03*
X289370D02*
D03*
X295276D02*
D03*
X301181D02*
D03*
X307087D02*
D03*
X312992D02*
D03*
X318898D02*
D03*
X324803D02*
D03*
X330709D02*
D03*
X336614D02*
D03*
X342520D02*
D03*
X348425D02*
D03*
X354331D02*
D03*
X360236D02*
D03*
X366142D02*
D03*
X372047D02*
D03*
X377953D02*
D03*
Y3937D02*
D03*
X372047D02*
D03*
X366142D02*
D03*
X360236D02*
D03*
X354331D02*
D03*
X348425D02*
D03*
X342520D02*
D03*
X336614D02*
D03*
X330709D02*
D03*
X324803D02*
D03*
X318898D02*
D03*
X312992D02*
D03*
X307087D02*
D03*
X301181D02*
D03*
X295276D02*
D03*
X289370D02*
D03*
X283465D02*
D03*
X277559D02*
D03*
X271654D02*
D03*
X265748D02*
D03*
X259842D02*
D03*
X253937D02*
D03*
X248031D02*
D03*
X242126D02*
D03*
X236221D02*
D03*
X230315D02*
D03*
X224410D02*
D03*
X218504D02*
D03*
X212598D02*
D03*
X206693D02*
D03*
X200787D02*
D03*
X194882D02*
D03*
X188976D02*
D03*
X183071D02*
D03*
X177165D02*
D03*
X171260D02*
D03*
X165354D02*
D03*
X159449D02*
D03*
X153543D02*
D03*
X147638D02*
D03*
X141732D02*
D03*
X135827D02*
D03*
X129921D02*
D03*
X124016D02*
D03*
X118110D02*
D03*
X112205D02*
D03*
X106299D02*
D03*
X100394D02*
D03*
X94488D02*
D03*
X88583D02*
D03*
X82677D02*
D03*
X76772D02*
D03*
X70866D02*
D03*
X64961D02*
D03*
X59055D02*
D03*
X53150D02*
D03*
D73*
X188976Y75787D02*
D03*
X195669Y86023D02*
D03*
X346457Y61024D02*
D03*
X354331D02*
D03*
X275590Y108268D02*
D03*
X275787Y90847D02*
D03*
X279528Y81693D02*
D03*
X251969Y96457D02*
D03*
X280512Y76772D02*
D03*
X249015Y91535D02*
D03*
X266732Y103347D02*
D03*
X259843Y97967D02*
D03*
X242523Y115157D02*
D03*
X241811Y109783D02*
D03*
X176181Y61024D02*
D03*
X186024D02*
D03*
X59842Y120472D02*
D03*
X51181Y115748D02*
D03*
X55118Y82677D02*
D03*
X47244Y87008D02*
D03*
M02*
