G04*
G04 #@! TF.GenerationSoftware,Altium Limited,Altium Designer,20.0.11 (256)*
G04*
G04 Layer_Color=8421504*
%FSLAX25Y25*%
%MOIN*%
G70*
G01*
G75*
%ADD19R,0.05512X0.04528*%
%ADD20R,0.05315X0.04724*%
%ADD21O,0.02165X0.06299*%
%ADD22O,0.06299X0.02165*%
%ADD23R,0.01575X0.03150*%
%ADD24R,0.04528X0.05512*%
%ADD25R,0.08071X0.21850*%
%ADD26R,0.04921X0.10630*%
%ADD27O,0.02362X0.05709*%
%ADD28R,0.04724X0.05315*%
%ADD29R,0.07087X0.10630*%
%ADD30O,0.02362X0.08661*%
%ADD31R,0.02362X0.05709*%
%ADD32R,0.05906X0.05512*%
%ADD33R,0.10630X0.04921*%
%ADD34R,0.10039X0.06102*%
%ADD35R,0.05512X0.11811*%
%ADD36O,0.08661X0.02362*%
%ADD37R,0.06102X0.10039*%
%ADD38R,0.17323X0.07874*%
%ADD39R,0.11811X0.05512*%
D19*
X375000Y47539D02*
D03*
Y54823D02*
D03*
X335630Y47539D02*
D03*
Y54823D02*
D03*
X346457Y117815D02*
D03*
Y110531D02*
D03*
Y77067D02*
D03*
Y84350D02*
D03*
X320866Y62106D02*
D03*
Y69390D02*
D03*
X320866Y84350D02*
D03*
Y77067D02*
D03*
X224409Y89862D02*
D03*
Y97146D02*
D03*
X238976Y30610D02*
D03*
Y37894D02*
D03*
X251794Y118391D02*
D03*
Y111108D02*
D03*
X224410Y105610D02*
D03*
Y112894D02*
D03*
X169291Y77067D02*
D03*
Y84351D02*
D03*
X127953Y33169D02*
D03*
Y25886D02*
D03*
X124016Y11122D02*
D03*
Y18405D02*
D03*
D20*
X367126Y47441D02*
D03*
Y54921D02*
D03*
X343504Y47441D02*
D03*
Y54921D02*
D03*
X320866Y115945D02*
D03*
Y108465D02*
D03*
X328740Y115945D02*
D03*
Y108465D02*
D03*
X346457Y93701D02*
D03*
Y101181D02*
D03*
X359252Y47441D02*
D03*
Y54921D02*
D03*
X351378Y47441D02*
D03*
Y54921D02*
D03*
X267542Y111009D02*
D03*
Y118489D02*
D03*
X259668Y111009D02*
D03*
Y118489D02*
D03*
X177165Y84449D02*
D03*
Y76968D02*
D03*
X123031Y51378D02*
D03*
Y58858D02*
D03*
X123031Y74606D02*
D03*
Y67126D02*
D03*
D21*
X272638Y100000D02*
D03*
X275787D02*
D03*
X278937D02*
D03*
X282087D02*
D03*
X285236D02*
D03*
X288386D02*
D03*
X291535D02*
D03*
X294685D02*
D03*
X297835D02*
D03*
X300984D02*
D03*
X304134D02*
D03*
Y55512D02*
D03*
X300984D02*
D03*
X297835D02*
D03*
X294685D02*
D03*
X291535D02*
D03*
X288386D02*
D03*
X285236D02*
D03*
X282087D02*
D03*
X278937D02*
D03*
X275787D02*
D03*
X272638D02*
D03*
D22*
X310630Y93504D02*
D03*
Y90354D02*
D03*
Y87205D02*
D03*
Y84055D02*
D03*
Y80905D02*
D03*
Y77756D02*
D03*
Y74606D02*
D03*
Y71457D02*
D03*
Y68307D02*
D03*
Y65158D02*
D03*
Y62008D02*
D03*
X266142D02*
D03*
Y65158D02*
D03*
Y68307D02*
D03*
Y71457D02*
D03*
Y74606D02*
D03*
Y77756D02*
D03*
Y80905D02*
D03*
Y84055D02*
D03*
Y87205D02*
D03*
Y90354D02*
D03*
Y93504D02*
D03*
D23*
X329232Y123763D02*
D03*
Y130259D02*
D03*
X326279D02*
D03*
Y123763D02*
D03*
D24*
X293012Y110236D02*
D03*
X285728D02*
D03*
X169980Y125000D02*
D03*
X162697D02*
D03*
X230807Y37205D02*
D03*
X223524D02*
D03*
X301870Y46260D02*
D03*
X294587D02*
D03*
X273917D02*
D03*
X281201D02*
D03*
X183366Y101378D02*
D03*
X190650D02*
D03*
X193996Y37205D02*
D03*
X201279D02*
D03*
X208760Y37205D02*
D03*
X216043D02*
D03*
X138484Y46260D02*
D03*
X131201D02*
D03*
X88287Y19685D02*
D03*
X81004D02*
D03*
X162697Y117126D02*
D03*
X169980D02*
D03*
D25*
X362205Y115945D02*
D03*
Y78937D02*
D03*
D26*
X245177Y66929D02*
D03*
X256791D02*
D03*
D27*
X195098Y48917D02*
D03*
X200098D02*
D03*
X205099D02*
D03*
X210099D02*
D03*
X215099D02*
D03*
X220098D02*
D03*
X225098D02*
D03*
X230099D02*
D03*
X195098Y70374D02*
D03*
X200098D02*
D03*
X205099D02*
D03*
X210099D02*
D03*
X215099D02*
D03*
X220098D02*
D03*
X225098D02*
D03*
X230099D02*
D03*
D28*
X233465Y90551D02*
D03*
X240945D02*
D03*
X285630Y118110D02*
D03*
X293110D02*
D03*
X301378Y118110D02*
D03*
X308858D02*
D03*
X240945Y98425D02*
D03*
X233465D02*
D03*
X190748Y93504D02*
D03*
X183268D02*
D03*
Y109252D02*
D03*
X190748D02*
D03*
D29*
X175197Y50689D02*
D03*
Y37894D02*
D03*
X156496Y26083D02*
D03*
Y13287D02*
D03*
D30*
X201161Y90945D02*
D03*
X206161D02*
D03*
X211161D02*
D03*
X216161D02*
D03*
X201161Y109843D02*
D03*
X206161D02*
D03*
X211161D02*
D03*
X216161D02*
D03*
X131280Y56496D02*
D03*
X136279D02*
D03*
X141279D02*
D03*
X146280D02*
D03*
X131280Y75394D02*
D03*
X136279D02*
D03*
X141279D02*
D03*
X146280D02*
D03*
D31*
X169291Y93996D02*
D03*
X165551Y102854D02*
D03*
X173031D02*
D03*
D32*
X180807Y130315D02*
D03*
Y121654D02*
D03*
X197146Y130315D02*
D03*
Y121654D02*
D03*
D33*
X173228Y13878D02*
D03*
Y25492D02*
D03*
X139764Y38287D02*
D03*
Y26673D02*
D03*
X84646Y40256D02*
D03*
Y28642D02*
D03*
D34*
X100000Y14764D02*
D03*
X112599D02*
D03*
D35*
X132480Y14764D02*
D03*
X141142D02*
D03*
D36*
X117717Y25964D02*
D03*
Y30964D02*
D03*
Y35965D02*
D03*
Y40964D02*
D03*
X98819Y25964D02*
D03*
Y30964D02*
D03*
Y35965D02*
D03*
Y40964D02*
D03*
D37*
X157480Y59646D02*
D03*
Y72244D02*
D03*
D38*
X87992Y62992D02*
D03*
X108858D02*
D03*
D39*
X157480Y48622D02*
D03*
Y39961D02*
D03*
M02*
